<svg xmlns="http://www.w3.org/2000/svg" width="224" height="165.665" viewBox="0 0 224 165.665">
    <defs>
        <linearGradient id="a" y1="0.5" x2="1" y2="0.5" gradientUnits="objectBoundingBox">
            <stop offset="0" stop-color="#6a11cb"/>
            <stop offset="0.5" stop-color="#552fda"/>
            <stop offset="1" stop-color="#2575fc"/>
        </linearGradient>
        <filter id="c" x="28.925" y="1.758" width="165.938" height="138.358" filterUnits="userSpaceOnUse">
            <feOffset dy="19" input="SourceAlpha"/>
            <feGaussianBlur stdDeviation="19" result="d"/>
            <feFlood flood-opacity="0.4"/>
            <feComposite operator="in" in2="d"/>
            <feComposite in="SourceGraphic"/>
        </filter>
        <filter id="e" x="32.835" y="8.769" width="124.325" height="124.325" filterUnits="userSpaceOnUse">
            <feOffset dy="19" input="SourceAlpha"/>
            <feGaussianBlur stdDeviation="19" result="f"/>
            <feFlood flood-opacity="0.4"/>
            <feComposite operator="in" in2="f"/>
            <feComposite in="SourceGraphic"/>
        </filter>
        <filter id="g" x="27.161" y="0" width="169.677" height="141.843" filterUnits="userSpaceOnUse">
            <feOffset dy="19" input="SourceAlpha"/>
            <feGaussianBlur stdDeviation="19" result="h"/>
            <feFlood flood-opacity="0.4"/>
            <feComposite operator="in" in2="h"/>
            <feComposite in="SourceGraphic"/>
        </filter>
        <filter id="i" x="52.289" y="12.555" width="139.451" height="116.737" filterUnits="userSpaceOnUse">
            <feOffset dy="19" input="SourceAlpha"/>
            <feGaussianBlur stdDeviation="19" result="j"/>
            <feFlood flood-opacity="0.4"/>
            <feComposite operator="in" in2="j"/>
            <feComposite in="SourceGraphic"/>
        </filter>
    </defs>
    <g transform="translate(-0.75 1.641)">
        <g transform="translate(0.75 99)">
            <path d="M216.6,22.608a.688.688,0,0,1-.08-.007c-.046,0-.1-.011-.144-.011a.338.338,0,0,0-.325.168L204.727,43.609l-11.236-20.9a.217.217,0,0,0-.213-.1,1.17,1.17,0,0,0-.151.007h-6.615l7.4,13.508a.442.442,0,0,0,.049.077c.018.028.056.087.077.126l-3.9,7.261-11.184-20.88a.221.221,0,0,0-.217-.1,1.47,1.47,0,0,0-.168.007h-6.625L186.7,49.575c1.066,1.954,2.188,2.948,3.332,2.948a2.165,2.165,0,0,0,1.171-.364,7.577,7.577,0,0,0,2.374-3.027c.087-.165.178-.328.266-.486l3.482-6.265,3.926,7.216a6.091,6.091,0,0,0,2.415,2.724,2.088,2.088,0,0,0,.9.213c1.5,0,2.619-1.7,3.336-2.975l15.127-26.947H216.6Zm-61.119-1.541a15.039,15.039,0,0,0-11.191,4.66,15.3,15.3,0,0,0-4.6,11.194,15.831,15.831,0,1,0,15.791-15.854Zm6.778,22.707a9.649,9.649,0,0,1-16.4-6.853,9.241,9.241,0,0,1,2.912-6.789,9.007,9.007,0,0,1,6.7-2.891,9.137,9.137,0,0,1,6.842,2.839,9.231,9.231,0,0,1,2.776,6.842,9.259,9.259,0,0,1-2.839,6.842ZM131.382,9.61h-6.247V21.525h-3.689v6.247h3.689V52.255h6.247V27.769H137.7V21.522h-6.317ZM113.236,35.781l-.038-.028a15.943,15.943,0,0,0-2.451-1.388,41.446,41.446,0,0,0-3.891-1.563,11.3,11.3,0,0,1-3.206-1.478,1.994,1.994,0,0,1-.782-1.647c0-1.251.23-2.374,2.975-2.374a6,6,0,0,1,4.471,1.72l1.168,1.164,4.66-4.038L114.8,24.808a12.232,12.232,0,0,0-8.953-3.678,8.941,8.941,0,0,0-6.565,2.538,7.982,7.982,0,0,0-2.646,6.01,7.7,7.7,0,0,0,2.755,6.31,18.188,18.188,0,0,0,5.244,2.66c1.157.426,2.147.807,2.951,1.132a13.552,13.552,0,0,1,1.531.71,3.142,3.142,0,0,1,1.409,2.552c0,1.815-.534,3.492-4.415,3.492a5.545,5.545,0,0,1-3.405-.892l-.05-.035a7.5,7.5,0,0,1-2.168-2.562L99.6,41.431l-5.347,3.208.829,1.5a11.9,11.9,0,0,0,11.03,6.643,11.2,11.2,0,0,0,7.463-2.657,8.875,8.875,0,0,0,3.2-7.08,8.735,8.735,0,0,0-3.524-7.263Zm-36.42,4.8-9-19.06h-6.8L73.293,47.986,65.438,65.024h6.925l20.207-43.5H85.7ZM55.125,25.3A15.708,15.708,0,0,0,43.9,21.063,15.393,15.393,0,0,0,28.041,36.921,15.5,15.5,0,0,0,43.9,52.786a16.814,16.814,0,0,0,5.149-.745A14.9,14.9,0,0,0,57.973,44.6l.871-1.654-5.559-2.552-.822,1.329a9.749,9.749,0,0,1-4.236,4.089A11.276,11.276,0,0,1,43.9,46.6c-3.114,0-5.471-.892-7.184-2.72A9.727,9.727,0,0,1,34.3,38.1H59.692v-1.77A14.463,14.463,0,0,0,55.124,25.3ZM35.474,31.992c1.692-3.23,4.419-4.751,8.428-4.751a10.015,10.015,0,0,1,6.072,1.911,7.7,7.7,0,0,1,2.5,2.842h-17ZM24.369,20.473H15.524L6.243,29.7V0H0V52.255H6.241V39.084L19.472,52.255h8.561L10.272,34.491Z"/>
        </g>
        <g transform="translate(62.75)">
            <path d="M91.259,65H0l3.884,63.384h91.21L100,65Z" transform="translate(0 -41.963)" fill="url(#a)"/>
            <path d="M103.7,11.546H56.052A.848.848,0,0,1,55.2,10.7V0H20.582V21.4H103.7Z" transform="translate(-13.287)"
                  fill="url(#a)"/>
            <g transform="translate(22.677 36.859)">
                <g transform="matrix(1, 0, 0, 1, -84.68, -38.5)" filter="url(#c)">
                    <path d="M112.24,125.947l1.149,1.15,6.29-6.465.007-.008-2.949-3.085H92.7a.869.869,0,0,1-.815-.567,12.161,12.161,0,0,0-11.27-8.01,11.667,11.667,0,1,0,10.637,16.456,11.353,11.353,0,0,0,.435-1.111.9.9,0,0,1,.826-.593h9.655a.871.871,0,0,1,.615.255l3.127,3.128,3.131-3.128h0a.868.868,0,0,1,1.228,0ZM77.5,125.3a4.662,4.662,0,0,1-4.66-4.661v0A4.662,4.662,0,1,1,77.5,125.3Zm15.6-3.8a.867.867,0,0,1,.025-1.731h22.748v-.006h0a.869.869,0,1,1,0,1.737Z"
                          transform="translate(17.49 -68.7)" fill="#3f84a0" stroke="rgba(0,0,0,0)"
                          stroke-miterlimit="10" stroke-width="1"/>
                </g>
                <g transform="matrix(1, 0, 0, 1, -84.68, -38.5)" filter="url(#e)">
                    <path d="M84.611,128.742a4.662,4.662,0,0,0-4.664,4.661v0a4.662,4.662,0,1,0,4.663-4.664Zm-.008,7.584a2.92,2.92,0,1,1,0-5.841h0a2.92,2.92,0,1,1,0,5.841Z"
                          transform="translate(10.39 -81.47)" fill="#050606" stroke="rgba(0,0,0,0)"
                          stroke-miterlimit="10"
                          stroke-width="1"/>
                </g>
                <g transform="matrix(1, 0, 0, 1, -84.68, -38.5)" filter="url(#g)">
                    <path d="M109.583,125.749a.9.9,0,0,0,.622.256.872.872,0,0,0,.617-.264l7.5-7.7a.87.87,0,0,0,0-1.212l-3.787-3.959a.863.863,0,0,0-.628-.268H90.091a14.128,14.128,0,0,0-4.74-5.992,13.421,13.421,0,1,0,4.572,15.655h8.691l2.983,2.983.131.132.044.043.331.331a.866.866,0,0,0,1.2.024c.008-.008.017-.014.024-.022l0,0,.005-.005.431-.431,2.69-2.694Zm-3.748-4.98h0L102.7,123.9l-3.127-3.128a.871.871,0,0,0-.615-.255H89.307a.9.9,0,0,0-.826.593,11.357,11.357,0,0,1-.435,1.111,11.667,11.667,0,1,1-10.637-16.454,12.161,12.161,0,0,1,11.27,8.01.869.869,0,0,0,.815.567h24.04l2.949,3.085-.007.008-6.289,6.462-1.149-1.15-1.975-1.975A.868.868,0,0,0,105.835,120.768Z"
                          transform="translate(20.69 -65.5)" fill="#050606" stroke="rgba(0,0,0,0)"
                          stroke-miterlimit="10" stroke-width="1"/>
                </g>
                <g transform="matrix(1, 0, 0, 1, -84.68, -38.5)" filter="url(#i)">
                    <path d="M159.289,140.294a.87.87,0,0,0-.872-.868h0v.006H135.667a.867.867,0,0,0-.025,1.731h22.773A.876.876,0,0,0,159.289,140.294Z"
                          transform="translate(-25.05 -88.37)" fill="#050606" stroke="rgba(0,0,0,0)"
                          stroke-miterlimit="10"
                          stroke-width="1"/>
                </g>
            </g>
        </g>
    </g>
</svg>
