<svg xmlns="http://www.w3.org/2000/svg" width="138.04" height="40.245" viewBox="0 0 138.04 40.245">
    <path d="M134.056,13.992l-.05,0c-.028,0-.061-.007-.089-.007a.209.209,0,0,0-.2.1L126.71,26.99l-6.954-12.937a.134.134,0,0,0-.132-.061.724.724,0,0,0-.093,0h-4.094l4.583,8.36a.272.272,0,0,0,.03.048c.011.017.034.054.048.078l-2.412,4.494-6.922-12.923a.137.137,0,0,0-.134-.061.909.909,0,0,0-.1,0h-4.1l9.129,16.686c.66,1.21,1.354,1.825,2.062,1.825a1.34,1.34,0,0,0,.725-.225,4.69,4.69,0,0,0,1.469-1.874c.054-.1.11-.2.164-.3l2.155-3.877,2.43,4.466a3.77,3.77,0,0,0,1.495,1.686,1.293,1.293,0,0,0,.558.132c.926,0,1.621-1.049,2.064-1.841L138.04,14h-3.984Zm-37.828-.954A9.308,9.308,0,0,0,89.3,15.923a9.47,9.47,0,0,0-2.847,6.928,9.8,9.8,0,1,0,9.773-9.812Zm4.2,14.054a5.972,5.972,0,0,1-10.148-4.241,5.72,5.72,0,0,1,1.8-4.2,5.575,5.575,0,0,1,4.148-1.79,5.655,5.655,0,0,1,4.235,1.757,5.714,5.714,0,0,1,1.718,4.235,5.731,5.731,0,0,1-1.757,4.235ZM81.315,5.948H77.449v7.374H75.166v3.866h2.283V32.342h3.866V17.187h3.91V13.32h-3.91Zm-11.231,16.2-.023-.017a9.868,9.868,0,0,0-1.517-.859,25.655,25.655,0,0,0-2.408-.967,7,7,0,0,1-1.984-.915,1.234,1.234,0,0,1-.484-1.019c0-.774.142-1.469,1.841-1.469a3.714,3.714,0,0,1,2.767,1.065l.723.72,2.884-2.5-.831-.831a7.571,7.571,0,0,0-5.541-2.276,5.534,5.534,0,0,0-4.063,1.571,4.94,4.94,0,0,0-1.638,3.72,4.767,4.767,0,0,0,1.7,3.906,11.257,11.257,0,0,0,3.246,1.647c.716.264,1.329.5,1.826.7a8.389,8.389,0,0,1,.948.439,1.945,1.945,0,0,1,.872,1.58c0,1.123-.331,2.161-2.733,2.161a3.432,3.432,0,0,1-2.107-.552l-.031-.021a4.642,4.642,0,0,1-1.342-1.586l-.552-1-3.31,1.985.513.926a7.364,7.364,0,0,0,6.827,4.112,6.935,6.935,0,0,0,4.619-1.645,5.493,5.493,0,0,0,1.978-4.382,5.406,5.406,0,0,0-2.181-4.5ZM47.543,25.119l-5.571-11.8H37.766l7.6,16.377L40.5,40.245h4.286L57.294,13.322h-4.25ZM34.118,15.661a9.722,9.722,0,0,0-6.948-2.625,9.527,9.527,0,0,0-9.815,9.815A9.591,9.591,0,0,0,27.17,32.67a10.406,10.406,0,0,0,3.187-.461A9.224,9.224,0,0,0,35.881,27.6l.539-1.024L32.979,25l-.509.822a6.034,6.034,0,0,1-2.622,2.531,6.979,6.979,0,0,1-2.679.491,5.754,5.754,0,0,1-4.446-1.683,6.02,6.02,0,0,1-1.491-3.579H36.945v-1.1a8.951,8.951,0,0,0-2.827-6.825ZM21.956,19.8a5.341,5.341,0,0,1,5.216-2.94,6.2,6.2,0,0,1,3.758,1.183A4.767,4.767,0,0,1,32.478,19.8H21.956Zm-6.873-7.129H9.608L3.864,18.383V0H0V32.342H3.863V24.19l8.189,8.152h5.3L6.357,21.348Z"
          fill="#fff"/>
</svg>
