<svg width="132" height="121" viewBox="0 0 132 121" fill="none" xmlns="http://www.w3.org/2000/svg">
    <path d="M107.259 23.037H16L19.884 86.421H111.094L116 23.037H107.259Z" fill="url(#paint0_linear_2_29)"/>
    <path d="M106.413 11.546H58.765C58.6535 11.5465 58.5429 11.525 58.4397 11.4828C58.3365 11.4405 58.2426 11.3783 58.1635 11.2998C58.0844 11.2212 58.0215 11.1277 57.9785 11.0248C57.9355 10.9219 57.9133 10.8115 57.913 10.7V0H23.295V21.4H106.413V11.546Z"
          fill="url(#paint1_linear_2_29)"/>
    <g filter="url(#filter0_d_2_29)">
        <path d="M83.727 55.606L84.876 56.756L91.166 50.291L91.173 50.283L88.224 47.198H64.187C64.0095 47.198 63.8363 47.1437 63.6906 47.0423C63.5449 46.941 63.4337 46.7974 63.372 46.631C62.5291 44.3093 60.9993 42.2994 58.9861 40.8685C56.9729 39.4376 54.5717 38.6537 52.102 38.621C50.0042 38.6206 47.945 39.186 46.1414 40.2574C44.3378 41.3289 42.8565 42.8668 41.8534 44.7093C40.8503 46.5518 40.3625 48.6306 40.4414 50.727C40.5204 52.8233 41.1631 54.8596 42.3019 56.6215C43.4408 58.3833 45.0336 59.8055 46.9126 60.7382C48.7917 61.671 50.8875 62.0799 52.9794 61.9218C55.0713 61.7637 57.0818 61.0445 58.7994 59.8399C60.5169 58.6353 61.8779 56.9899 62.739 55.077C62.9034 54.7145 63.0486 54.3437 63.174 53.966C63.2359 53.7954 63.3478 53.6475 63.4952 53.5416C63.6426 53.4358 63.8186 53.377 64 53.373H73.655C73.8857 53.3732 74.1069 53.4649 74.27 53.628L77.397 56.756L80.528 53.628C80.6086 53.5473 80.7043 53.4833 80.8097 53.4396C80.915 53.396 81.028 53.3735 81.142 53.3735C81.256 53.3735 81.369 53.396 81.4743 53.4396C81.5797 53.4833 81.6754 53.5473 81.756 53.628L83.727 55.606ZM48.987 54.959C47.7511 54.9584 46.566 54.4672 45.6921 53.5932C44.8183 52.7191 44.3273 51.5339 44.327 50.298V50.298C44.3268 49.3758 44.6001 48.4743 45.1123 47.7074C45.6246 46.9406 46.3527 46.3429 47.2047 45.9899C48.0567 45.637 48.9942 45.5446 49.8986 45.7246C50.8031 45.9045 51.6339 46.3486 52.2859 47.0008C52.9379 47.6529 53.3819 48.4838 53.5616 49.3883C53.7413 50.2928 53.6488 51.2303 53.2957 52.0822C52.9425 52.9341 52.3447 53.6621 51.5777 54.1742C50.8108 54.6863 49.9092 54.9594 48.987 54.959V54.959ZM64.587 51.159C64.3662 51.1432 64.1598 51.0435 64.0101 50.8804C63.8604 50.7172 63.7788 50.503 63.782 50.2817C63.7852 50.0603 63.873 49.8485 64.0273 49.6898C64.1816 49.5311 64.3908 49.4374 64.612 49.428H87.36V49.422C87.4765 49.418 87.5927 49.4376 87.7015 49.4794C87.8103 49.5213 87.9096 49.5846 87.9934 49.6657C88.0773 49.7467 88.1439 49.8438 88.1895 49.9511C88.235 50.0585 88.2585 50.1739 88.2585 50.2905C88.2585 50.4071 88.235 50.5225 88.1895 50.6298C88.1439 50.7372 88.0773 50.8342 87.9934 50.9153C87.9096 50.9963 87.8103 51.0597 87.7015 51.1015C87.5927 51.1434 87.4765 51.1629 87.36 51.159H64.587Z"
              fill="#3F84A0"/>
    </g>
    <g filter="url(#filter1_d_2_29)">
        <path d="M48.998 45.6309C48.3857 45.6307 47.7793 45.751 47.2135 45.9851C46.6478 46.2192 46.1336 46.5625 45.7005 46.9953C45.2674 47.4282 44.9238 47.9421 44.6894 48.5077C44.4549 49.0733 44.3341 49.6796 44.334 50.2919V50.2919C44.3344 51.2139 44.6081 52.115 45.1206 52.8813C45.6331 53.6477 46.3612 54.245 47.2131 54.5975C48.0649 54.9501 49.0022 55.0422 49.9064 54.8622C50.8106 54.6822 51.6411 54.2381 52.2929 53.5861C52.9447 52.9341 53.3886 52.1035 53.5684 51.1993C53.7483 50.2951 53.656 49.3579 53.3032 48.5061C52.9505 47.6543 52.3531 46.9263 51.5866 46.414C50.8201 45.9017 49.9189 45.6281 48.997 45.6279L48.998 45.6309ZM48.99 53.2149C48.6019 53.2221 48.2163 53.1519 47.8557 53.0083C47.4951 52.8648 47.1667 52.6508 46.8897 52.3789C46.6127 52.107 46.3927 51.7826 46.2425 51.4247C46.0923 51.0668 46.015 50.6826 46.015 50.2944C46.015 49.9063 46.0923 49.522 46.2425 49.1641C46.3927 48.8062 46.6127 48.4819 46.8897 48.2099C47.1667 47.938 47.4951 47.7241 47.8557 47.5805C48.2163 47.437 48.6019 47.3668 48.99 47.3739C49.7552 47.3881 50.4843 47.702 51.0204 48.2482C51.5566 48.7943 51.857 49.5291 51.857 50.2944C51.857 51.0598 51.5566 51.7945 51.0204 52.3407C50.4843 52.8869 49.7552 53.2008 48.99 53.2149Z"
              fill="#050606"/>
    </g>
    <g filter="url(#filter2_d_2_29)">
        <path d="M84.27 58.608C84.4365 58.7705 84.6594 58.8622 84.892 58.864C85.0072 58.8629 85.121 58.839 85.2269 58.7937C85.3328 58.7484 85.4287 58.6826 85.509 58.6L93.009 50.9C93.1666 50.7376 93.2548 50.5203 93.2548 50.294C93.2548 50.0677 93.1666 49.8503 93.009 49.688L89.222 45.729C89.1411 45.644 89.0436 45.5763 88.9356 45.5302C88.8277 45.4842 88.7114 45.4606 88.594 45.461H64.778C63.7783 43.0662 62.1383 40.9931 60.038 39.469C57.7767 37.8077 55.0517 36.8969 52.2459 36.8647C49.4402 36.8324 46.6949 37.6804 44.3961 39.2893C42.0973 40.8983 40.3606 43.1872 39.4302 45.8344C38.4997 48.4816 38.4224 51.3538 39.209 54.0472C39.9956 56.7406 41.6066 59.1197 43.8154 60.85C46.0243 62.5804 48.72 63.5749 51.5234 63.6937C54.3268 63.8126 57.0969 63.0498 59.4443 61.5126C61.7917 59.9754 63.5983 57.7412 64.61 55.124H73.301L76.284 58.107L76.415 58.239L76.459 58.282L76.79 58.613C76.9482 58.7712 77.1615 58.8621 77.3852 58.8666C77.6089 58.8711 77.8256 58.7888 77.99 58.637C77.998 58.629 78.007 58.623 78.014 58.615L78.445 58.184L81.135 55.49L84.27 58.608ZM80.522 53.628L77.387 56.759L74.26 53.631C74.0969 53.4679 73.8757 53.3762 73.645 53.376H63.994C63.8126 53.38 63.6366 53.4388 63.4892 53.5447C63.3418 53.6505 63.2299 53.7984 63.168 53.969C63.0426 54.3467 62.8974 54.7175 62.733 55.08C61.8722 56.9932 60.5114 58.639 58.7939 59.8439C57.0765 61.0488 55.0659 61.7683 52.9739 61.9267C50.8819 62.0851 48.7859 61.6764 46.9067 60.7437C45.0274 59.811 43.4344 58.3889 42.2954 56.627C41.1564 54.8651 40.5135 52.8287 40.4346 50.7323C40.3556 48.6358 40.8433 46.5568 41.8465 44.7142C42.8497 42.8716 44.3312 41.3336 46.135 40.2622C47.9387 39.1907 49.998 38.6255 52.096 38.626C54.5657 38.6587 56.9669 39.4426 58.9801 40.8735C60.9933 42.3044 62.5231 44.3143 63.366 46.636C63.4277 46.8024 63.5389 46.946 63.6846 47.0473C63.8303 47.1487 64.0035 47.203 64.181 47.203H88.221L91.17 50.288L91.163 50.296L84.874 56.758L83.725 55.608L81.75 53.633C81.6698 53.5519 81.5744 53.4875 81.4692 53.4433C81.3641 53.3991 81.2513 53.3761 81.1372 53.3755C81.0232 53.375 80.9102 53.3969 80.8046 53.44C80.699 53.4832 80.603 53.5467 80.522 53.627V53.628Z"
              fill="#050606"/>
    </g>
    <g filter="url(#filter3_d_2_29)">
        <path d="M88.236 50.2831C88.2357 50.1688 88.213 50.0557 88.169 49.9503C88.125 49.8448 88.0607 49.749 87.9798 49.6684C87.8988 49.5878 87.8027 49.524 87.6971 49.4805C87.5914 49.437 87.4783 49.4148 87.364 49.415V49.415V49.4211H64.614C64.3928 49.4305 64.1836 49.5242 64.0293 49.6829C63.875 49.8416 63.7872 50.0534 63.784 50.2747C63.7808 50.4961 63.8624 50.7103 64.0121 50.8734C64.1618 51.0366 64.3682 51.1362 64.589 51.152H87.362C87.5928 51.1515 87.814 51.06 87.9777 50.8972C88.1413 50.7345 88.2342 50.5138 88.236 50.2831V50.2831Z"
              fill="#050606"/>
    </g>
    <defs>
        <filter id="filter0_d_2_29" x="2.43318" y="19.621" width="126.74" height="99.334" filterUnits="userSpaceOnUse"
                color-interpolation-filters="sRGB">
            <feFlood flood-opacity="0" result="BackgroundImageFix"/>
            <feColorMatrix in="SourceAlpha" type="matrix" values="0 0 0 0 0 0 0 0 0 0 0 0 0 0 0 0 0 0 127 0"
                           result="hardAlpha"/>
            <feOffset dy="19"/>
            <feGaussianBlur stdDeviation="19"/>
            <feColorMatrix type="matrix" values="0 0 0 0 0 0 0 0 0 0 0 0 0 0 0 0 0 0 0.4 0"/>
            <feBlend mode="normal" in2="BackgroundImageFix" result="effect1_dropShadow_2_29"/>
            <feBlend mode="normal" in="SourceGraphic" in2="effect1_dropShadow_2_29" result="shape"/>
        </filter>
        <filter id="filter1_d_2_29" x="6.334" y="26.6279" width="85.324" height="85.324" filterUnits="userSpaceOnUse"
                color-interpolation-filters="sRGB">
            <feFlood flood-opacity="0" result="BackgroundImageFix"/>
            <feColorMatrix in="SourceAlpha" type="matrix" values="0 0 0 0 0 0 0 0 0 0 0 0 0 0 0 0 0 0 127 0"
                           result="hardAlpha"/>
            <feOffset dy="19"/>
            <feGaussianBlur stdDeviation="19"/>
            <feColorMatrix type="matrix" values="0 0 0 0 0 0 0 0 0 0 0 0 0 0 0 0 0 0 0.4 0"/>
            <feBlend mode="normal" in2="BackgroundImageFix" result="effect1_dropShadow_2_29"/>
            <feBlend mode="normal" in="SourceGraphic" in2="effect1_dropShadow_2_29" result="shape"/>
        </filter>
        <filter id="filter2_d_2_29" x="0.670805" y="17.8638" width="130.584" height="102.842"
                filterUnits="userSpaceOnUse"
                color-interpolation-filters="sRGB">
            <feFlood flood-opacity="0" result="BackgroundImageFix"/>
            <feColorMatrix in="SourceAlpha" type="matrix" values="0 0 0 0 0 0 0 0 0 0 0 0 0 0 0 0 0 0 127 0"
                           result="hardAlpha"/>
            <feOffset dy="19"/>
            <feGaussianBlur stdDeviation="19"/>
            <feColorMatrix type="matrix" values="0 0 0 0 0 0 0 0 0 0 0 0 0 0 0 0 0 0 0.4 0"/>
            <feBlend mode="normal" in2="BackgroundImageFix" result="effect1_dropShadow_2_29"/>
            <feBlend mode="normal" in="SourceGraphic" in2="effect1_dropShadow_2_29" result="shape"/>
        </filter>
        <filter id="filter3_d_2_29" x="25.7839" y="30.415" width="100.452" height="77.7371" filterUnits="userSpaceOnUse"
                color-interpolation-filters="sRGB">
            <feFlood flood-opacity="0" result="BackgroundImageFix"/>
            <feColorMatrix in="SourceAlpha" type="matrix" values="0 0 0 0 0 0 0 0 0 0 0 0 0 0 0 0 0 0 127 0"
                           result="hardAlpha"/>
            <feOffset dy="19"/>
            <feGaussianBlur stdDeviation="19"/>
            <feColorMatrix type="matrix" values="0 0 0 0 0 0 0 0 0 0 0 0 0 0 0 0 0 0 0.4 0"/>
            <feBlend mode="normal" in2="BackgroundImageFix" result="effect1_dropShadow_2_29"/>
            <feBlend mode="normal" in="SourceGraphic" in2="effect1_dropShadow_2_29" result="shape"/>
        </filter>
        <linearGradient id="paint0_linear_2_29" x1="16" y1="54.729" x2="116" y2="54.729" gradientUnits="userSpaceOnUse">
            <stop stop-color="#6A11CB"/>
            <stop offset="0.5" stop-color="#552FDA"/>
            <stop offset="1" stop-color="#2575FC"/>
        </linearGradient>
        <linearGradient id="paint1_linear_2_29" x1="23.295" y1="10.7" x2="106.413" y2="10.7"
                        gradientUnits="userSpaceOnUse">
            <stop stop-color="#6A11CB"/>
            <stop offset="0.5" stop-color="#552FDA"/>
            <stop offset="1" stop-color="#2575FC"/>
        </linearGradient>
    </defs>
</svg>
