<svg xmlns="http://www.w3.org/2000/svg" width="40" height="40" viewBox="0 0 40 40">
    <path d="M37.792,40A2.208,2.208,0,0,0,40,37.792V2.208A2.208,2.208,0,0,0,37.792,0H2.208A2.207,2.207,0,0,0,0,2.208V37.792A2.208,2.208,0,0,0,2.208,40H37.792"
          fill="#fff"/>
    <path d="M117.467,71.469V56.505h6.4l.958-5.831h-7.359V46.951c0-1.688.6-2.839,3.683-2.839h3.935V38.895c-.681-.071-3.017-.23-5.734-.23-5.674,0-9.558,2.718-9.558,7.708v4.3h-6.417v5.831h6.417V71.469h7.674"
          transform="translate(-90.166 -31.469)"/>
</svg>
