<svg xmlns="http://www.w3.org/2000/svg" width="49.22" height="40" viewBox="0 0 49.22 40">
    <path d="M49.22,5.557a20.19,20.19,0,0,1-5.8,1.59,10.128,10.128,0,0,0,4.44-5.587,20.222,20.222,0,0,1-6.412,2.45,10.107,10.107,0,0,0-17.208,9.21A28.668,28.668,0,0,1,3.426,2.67,10.109,10.109,0,0,0,6.552,16.152a10.058,10.058,0,0,1-4.574-1.263c0,.042,0,.084,0,.127a10.1,10.1,0,0,0,8.1,9.9,10.122,10.122,0,0,1-4.56.173A10.108,10.108,0,0,0,14.95,32.1,20.262,20.262,0,0,1,2.409,36.426,20.543,20.543,0,0,1,0,36.285a28.582,28.582,0,0,0,15.479,4.537c18.574,0,28.731-15.387,28.731-28.731q0-.657-.029-1.306A20.525,20.525,0,0,0,49.22,5.557"
          transform="translate(0 -0.822)" fill="#fff"/>
</svg>
