<svg xmlns="http://www.w3.org/2000/svg" width="41.012" height="40" viewBox="0 0 41.012 40">
    <path d="M20.506,0a20.509,20.509,0,0,0-6.483,39.965c1.025.19,1.4-.445,1.4-.987,0-.489-.019-2.1-.028-3.818-5.7,1.24-6.909-2.419-6.909-2.419a5.43,5.43,0,0,0-2.277-3c-1.861-1.273.14-1.247.14-1.247a4.31,4.31,0,0,1,3.143,2.113c1.829,3.135,4.8,2.229,5.967,1.7a4.367,4.367,0,0,1,1.3-2.742c-4.555-.518-9.343-2.277-9.343-10.134a7.936,7.936,0,0,1,2.113-5.5,7.368,7.368,0,0,1,.2-5.427s1.722-.551,5.641,2.1a19.451,19.451,0,0,1,10.27,0c3.914-2.653,5.634-2.1,5.634-2.1a7.359,7.359,0,0,1,.2,5.427,7.921,7.921,0,0,1,2.11,5.5c0,7.876-4.8,9.61-9.363,10.118a4.9,4.9,0,0,1,1.391,3.8c0,2.744-.024,4.952-.024,5.627,0,.546.369,1.185,1.409.984A20.509,20.509,0,0,0,20.506,0ZM7.68,29.212c-.045.1-.205.132-.351.062s-.232-.206-.184-.308.2-.134.353-.064S7.732,29.109,7.68,29.212Zm1.009.9c-.1.091-.289.049-.419-.095a.314.314,0,0,1-.06-.426c.1-.091.286-.048.421.095S8.791,30.02,8.689,30.112Zm.692,1.152c-.126.087-.331.005-.458-.177s-.126-.4,0-.489.33-.009.458.172S9.509,31.174,9.381,31.263Zm1.17,1.334c-.112.124-.352.091-.527-.078s-.229-.4-.116-.524.355-.089.531.078S10.671,32.474,10.551,32.6Zm1.513.45c-.05.161-.28.234-.512.165s-.384-.258-.337-.421.28-.238.514-.165S12.112,32.884,12.064,33.047Zm1.721.191c.006.169-.191.309-.435.312s-.443-.132-.446-.3.193-.31.438-.314S13.785,33.07,13.785,33.238Zm1.691-.065c.029.165-.14.335-.382.38s-.458-.058-.489-.222.143-.339.381-.382S15.445,33.006,15.476,33.173Z"
          fill="#fff"/>
</svg>
