<svg xmlns="http://www.w3.org/2000/svg" width="191.098" height="134" viewBox="0 0 191.098 134">
    <g transform="translate(-1025.902 -2504)">
        <g transform="translate(1132.45 2573)">
            <path d="M82.688,108.289v8.267L56.819,133.51l-7.952-4.662-7.952,4.662L15.047,116.556v-8.267L8,111.939V152.8H89.734V111.939Zm0,0"
                  transform="translate(-6.592 -89.214)" fill="#45d"/>
            <path d="M189.053,9.008,178.16,14.645h21.786Zm0,0" transform="translate(-146.778 -7.421)" fill="#45d"/>
            <g transform="translate(-0.001 0)">
                <path d="M77.5,18.215V5.814h-24L42.275,0,31.041,5.814h-24v12.4L0,21.865V65H84.55V21.868ZM31.651,44.229,2.818,61.131V25.338Zm10.624-2.961L77.951,62.182H6.6ZM52.9,44.227,81.732,25.333V61.126ZM80.352,22.865,77.5,24.733V21.391ZM42.275,3.173l5.1,2.641H37.171ZM74.686,8.632V26.581l-24.5,16.065L42.275,38l-7.911,4.638L9.864,26.581V8.632ZM7.045,24.733,4.2,22.865l2.848-1.474Zm0,0"
                      transform="translate(0.001 0)" fill="#28348e"/>
                <path d="M96,73.008h4.228v2.818H96Zm0,0" transform="translate(-79.09 -60.148)" fill="#28348e"/>
                <path d="M144,73.008h42.276v2.818H144Zm0,0" transform="translate(-118.635 -60.148)" fill="#28348e"/>
                <path d="M96,113.008h50.731v2.818H96Zm0,0" transform="translate(-79.09 -93.102)" fill="#28348e"/>
            </g>
        </g>
        <g transform="translate(1025.902 2503.5)">
            <path d="M147.26,9.176H92.279a5.5,5.5,0,0,0-5.5,5.5v5.5h65.977v-5.5a5.5,5.5,0,0,0-5.5-5.5Zm0,0"
                  transform="translate(-73.035 -7.302)" fill="#45d"/>
            <path d="M289.2,193.3a1.375,1.375,0,0,0,1.375-1.375L278.291,181.88l12.289,10.048V174.058l-15.12,9.622-15.12-9.622v17.869l12.288-10.047L260.34,191.927a1.374,1.374,0,0,0,1.374,1.375Zm0,0"
                  transform="translate(-219.103 -146.068)" fill="#45d"/>
            <path d="M290.58,174.059H260.34l15.12,9.622Zm0,0" transform="translate(-219.104 -146.068)" fill="#45d"/>
            <g transform="translate(0 0.5)">
                <path d="M139.956.5H84.974A6.881,6.881,0,0,0,78.1,7.373V23.868H80.85V14.246h63.229V62.354a4.124,4.124,0,0,1-4.124,4.124H84.974a4.124,4.124,0,0,1-4.124-4.124v-11H78.1v11a6.881,6.881,0,0,0,6.873,6.873h54.981a6.881,6.881,0,0,0,6.873-6.873V7.373A6.881,6.881,0,0,0,139.956.5ZM80.85,11.5V7.373a4.124,4.124,0,0,1,4.124-4.124h54.981a4.124,4.124,0,0,1,4.124,4.124V11.5Zm0,0"
                      transform="translate(-65.731 -0.5)" fill="#28348e"/>
                <path d="M121.492,35.211h2.749V37.96h-2.749Zm0,0" transform="translate(-102.248 -29.713)"
                      fill="#28348e"/>
                <path d="M156.2,35.211h2.749V37.96H156.2Zm0,0" transform="translate(-131.461 -29.713)" fill="#28348e"/>
                <path d="M190.914,35.211h2.749V37.96h-2.749Zm0,0" transform="translate(-160.674 -29.713)"
                      fill="#28348e"/>
                <path d="M281.9,187.375a2.75,2.75,0,0,0,2.75-2.75V166.756c0-.037-.018-.069-.021-.106a1.524,1.524,0,0,0-.034-.275c-.009-.029-.029-.053-.039-.081a1.466,1.466,0,0,0-.079-.166,1.357,1.357,0,0,0-.175-.259,1.27,1.27,0,0,0-.124-.127,1.315,1.315,0,0,0-.275-.182,1.055,1.055,0,0,0-.137-.076,1.365,1.365,0,0,0-.491-.1h-30.24a1.384,1.384,0,0,0-.492.1,1.231,1.231,0,0,0-.137.074,1.3,1.3,0,0,0-.275.184c-.044.04-.082.081-.123.125a1.365,1.365,0,0,0-.174.261,1.331,1.331,0,0,0-.079.164c-.011.03-.032.052-.04.082a1.347,1.347,0,0,0-.035.282c0,.036-.02.066-.02.1v17.869a2.749,2.749,0,0,0,2.749,2.749H281.9Zm-27.491-18.114,8.573,5.455-8.573,7.01Zm11.016,7.01,1.992,1.268a1.373,1.373,0,0,0,1.476,0l1.992-1.268,10.22,8.354h-25.9Zm16.475,5.457-8.574-7.01,8.574-5.457Zm-3.345-13.6-10.4,6.617-10.4-6.617Zm0,0"
                      transform="translate(-211.799 -139.266)" fill="#28348e"/>
                <path d="M112.813,165.383h19.244v2.749H112.813Zm0,0" transform="translate(-94.944 -139.267)"
                      fill="#28348e"/>
                <path d="M60.746,165.383h5.5v2.749h-5.5Zm0,0" transform="translate(-51.124 -139.267)" fill="#28348e"/>
                <path d="M164.883,226.125h11v2.75h-11Zm0,0" transform="translate(-138.767 -190.387)" fill="#28348e"/>
                <path d="M130.168,226.125h2.75v2.75h-2.75Zm0,0" transform="translate(-109.55 -190.387)" fill="#28348e"/>
                <path d="M78.1,226.125h5.5v2.75H78.1Zm0,0" transform="translate(-65.731 -190.387)" fill="#28348e"/>
                <path d="M8.676,226.125h5.5v2.75h-5.5Zm0,0" transform="translate(-7.302 -190.387)" fill="#28348e"/>
                <path d="M147.527,286.871h13.745v2.75H147.527Zm0,0" transform="translate(-124.16 -241.512)"
                      fill="#28348e"/>
                <path d="M95.457,286.871h5.5v2.75h-5.5Zm0,0" transform="translate(-80.337 -241.512)" fill="#28348e"/>
                <path d="M60.746,286.871H63.5v2.75H60.746Zm0,0" transform="translate(-51.124 -241.512)" fill="#28348e"/>
                <path d="M0,286.871H5.5v2.75H0Zm0,0" transform="translate(0 -241.512)" fill="#28348e"/>
                <path d="M26.035,165.383h2.749v2.749H26.035Zm0,0" transform="translate(-21.911 -139.267)"
                      fill="#28348e"/>
            </g>
        </g>
    </g>
</svg>
