<svg height="37" viewBox="0 0 37 37"
     width="37"
     xmlns="http://www.w3.org/2000/svg">
    <path d="M34.958,37A2.042,2.042,0,0,0,37,34.958V2.042A2.042,2.042,0,0,0,34.958,0H2.042A2.042,2.042,0,0,0,0,2.042V34.958A2.042,2.042,0,0,0,2.042,37H34.958"
          fill="#395185"/>
    <path d="M113.678,69.229V55.287h4.68l.7-5.433h-5.38V46.385c0-1.573.437-2.645,2.693-2.645h2.877V38.879a38.458,38.458,0,0,0-4.192-.214c-4.148,0-6.988,2.532-6.988,7.182v4.007h-4.692v5.433h4.692V69.229h5.611"
          fill="#fff"
          transform="translate(-88.117 -32.229)"/>
</svg>
