<svg xmlns="http://www.w3.org/2000/svg" width="627.467" height="511.688" viewBox="0 0 627.467 511.688">
    <g transform="translate(0)">
        <path d="M4294.063,1722.6a70.9,70.9,0,1,1-4.95-100.153,70.9,70.9,0,0,1,4.95,100.153"
              transform="translate(-4170.607 -1250.169)"
              fill="#415f79"/>
        <g transform="translate(7.579 353.854)">
            <path d="M4238.811,1728.886c.12-.625.823-3.312.309-3.707-.965-.743-1.392-1.545-3.088-1.495a22.324,22.324,0,0,1-3.512.009c1.11-2.231.713-4.1,2.044-6.264,1.052-1.714-3.306-.939-3.866-.77-.99.3-.759.764-.909,1.679-.105.632-1.013,1.326-.9,1.851a4.6,4.6,0,0,0-1.441,0,2.689,2.689,0,0,1-1.931-.244c-.85-.674-1.458.352-2.059-.76-.369-.681-.318-1.779-.733-2.433-.919-1.448-1.279-4.374-.3-5.828.861-1.277-.557-2.6.8-3.653a5.639,5.639,0,0,0,1.305-3.268c1.149-.089,3.321,1.166,4.317,1.234.281.651,1.813,1.353,1.927.335.36.292.7.833,1.246.451a.722.722,0,0,0-.566-.678,1.226,1.226,0,0,0,.11-1.021c.735-.424,1.456.2,1.927.222a2.113,2.113,0,0,1,1.5-.052c.387.09,1.3-.491,1.655-.626-.132.883.317,1.5.822,1.134.878-.647,1.053.314,1.688.922.913.874-.259,2.813,1.485,3.817-.126.754,1.015,2.782,1.409,2.732,3.094-.385-1.04-7.346-.518-9.192a3.415,3.415,0,0,1,1.906-2.4c.918-.505-.074-2.6.854-2.915.968-.324,2.427.173,3.348-.2.521-.208.853-.525.221-.852a8.95,8.95,0,0,1,1.359-.91c-.045-.716-1.137-1.9-1.027-2.377.13.067.505-.217.467-.068.15.409.917-1.063.973-1.158.544-.94-.859-1.5-.637-2.277.451.1,1.746.522,2.039-.18.284-.677-.554-4.189-.935-4.145,1.177-1.33,4.123,2.317,5.215,1.241.914.074,1.361.17,1.358-.8-.367-.41-.981-.005-1.248-.564.155-1.014.906-1.426,1.934-1.78.412-.156.455-.788.664-1.172a5.9,5.9,0,0,0,1.612-.663c1.582-.621.483-.457.991-.7.073-.02,2.633-.224,2.491-.46.216.453-1.826,1.045-1.687,1.981.207,1.421,1.854-.359,2.722-.557.775-1.6,2.742-.753,4.406-1.1.148-.477-.439-.244-.342-.679a1.684,1.684,0,0,0,1.664-.557c.241-.337.12-.672-.647-.579.015-.375-.759-3.506-1.875-2.115-.568.705.409,2.127.4,2.912a3.907,3.907,0,0,0-1.463-.1,5.512,5.512,0,0,1-1.029-.005c-.331-.515-.525-.472-1.066-.69-.435-.175-.883-1.4-1.093-1.342a5.513,5.513,0,0,0,.564-1.022,10.365,10.365,0,0,0-1.726-.329c.828.028,3.188-.491,2.014-1.551-.847-.766-2.12.108-3.07.423a9.882,9.882,0,0,0-2.6,1.358c-.25.179-1.281.08-1.759.23,0-.608,1.681-1.748,2.169-2.013.82-.446,1.367-.109,1.9-1.059a.966.966,0,0,1,1.264-.892,31.028,31.028,0,0,1,3.364-.525c1.758.113,3.136.838,4.663.378a4.115,4.115,0,0,0,1.7-1.477q1.02-.014,2.039-.118c.942-.063,1.693-.891,1.412-1.589-.269-.665.09-2.843-1.647-1.923-.3-.065-.2-1.1-1.362-.9a3.708,3.708,0,0,0,.9-.569c-.34-.646-3.376-.884-4.089-.578-.154-.4.392-1.16-.441-1.8-.417-.319-1.729-.3-1.6-1.122.757.762,1.757-.5.111-1.019-.056-.336,1.165-.1-.059-.848-.277-.17-1.191-.751-1.019-1.072.357-.656-2.384-3.158-3.11-.419-.1.385-3.156,1.464-3.4.95-.383-.817-.584-.379-.985-.25-.283.09-.713-.13-1.178-.377-.136-.461.768-.3.513-1.482-.238-1.1-.345-.7.192-1.523.448-.689-3.073-.13-2.756-1.3-.907-.513-1.822-1.443-2.888-1.052-.879.323-1.55.977-2.486.725-.676-.183-1.563-1.018-2.131-.4-.427.466-.456,1.081.255,1.308a9.288,9.288,0,0,0-.9,1.248,1.033,1.033,0,0,0,.792.111,1.18,1.18,0,0,0,.229,1.02c-.163.264-.216.769-.5.883-.231,1.071-1.765,1.027-.235,1.837,1.141.605,3.068,1.92,2.378,3.329-.509,1.04-3.687,1.779-4.9,2-.132,1.069.577,1.043.6,2.081.011.567.358,1.218.32,1.769-.089,1.3-.609.7-1.226,1.3-.688.676-1.15-.617-1.768-.907a1.736,1.736,0,0,1-1.062-2.022c.1-.89.364-2.418-.615-2.616-1.74-.347-3.889.232-5.434-.881-.767-.554-1.3-1.559-2.369-1.751-.542-.1-1.258.533-1.694.681-.358.119-.914-.133-1.144.225.329-.511-.146-2.555-1.284-2.5-1.111.047-1.3-1.383-1.048-1.906.314-.64,2.351-1.311,2.43-1.933.03-.227,2.152-1.867,1.469-1.817,2.107-.733,1.693-.76-.229-1.245a2.05,2.05,0,0,1,1.373-.568c.956.06,1.933.558,1.457-.46a2.781,2.781,0,0,0,3.281-1.821c-.308-.11-3.135-.131-2.948-.672,1.141.387,2.305.744,3.33-.02.858-.642,1.458-.88.406-1.235a9.082,9.082,0,0,1,3.171-.234,1,1,0,0,0-1.021-.677c.5-.444,1,.141,1.449.2a2.188,2.188,0,0,0,2.053-.825c1.289-1.441-1.528-.818-1.052-2.059.139-.143.731-.111.947-.034.312.108.622.216.706-.321.121-.8-.647-.586-1.271-.743-1.047-.262-4.378.663-2.271,1.061a2.615,2.615,0,0,1-1.019.455,5.023,5.023,0,0,1-.94,1.352c-.76.8-1.441,1.052-2.116.016.109-.2,1.494-2.017-.175-1.425-.663.236-1.056.953-1.637,1.315.3-.432-.369-.994.223-1.246-.283-.284-.676-.155-1.057-.025a1.8,1.8,0,0,1-.643.144c-.067-.655.728-.346.905-.8-.388-.578-1.089-.144-.926-.924.167-.8-1.508-.2-1.762-.092-.764.32-1.216,1.094-1.957,1.593a.465.465,0,0,0,.453.112c-.07.316-1.046.863.025.947a4.785,4.785,0,0,0,1.275-.131,5.741,5.741,0,0,1,1.081-.141c0,.21-1.507.74-1.584.8.028.326.275.246.521.168a.674.674,0,0,1,.387-.057c-.334.636-1.408.865-1.9,1.214-.824.576-.057.571-.47,1.172-.931.115-.349-.642-.229-1.02-.588-.184-2.3-.142-2.15.8-.636.3-3.318,1.592-3.958,1.251-1.412-.754-3.248,1.227-4.09,2.216,0-.017.009-.031.012-.049-1.854-.076-2.819,1.539-4.527,1.824.333-.31.672-.614,1.017-.909-.7-.51-3.708,2.088-4.186,2.616-2.144,2.375-.669-.419-2.947-.672-.305.281.471.517.343.905a8.684,8.684,0,0,0-1.812.684,9.357,9.357,0,0,0-2,.859c-.162.2-.313.382-.47.584-.03.039-.084.106-.084.106a70.443,70.443,0,0,0-7.716,12.06,5.763,5.763,0,0,1,2.143.233c-.382,1.086,2.442.767,2.371,1.432.288-.129-.173,1.317-.16,1.282a9.4,9.4,0,0,0-.388,1.474c.574-.215.133-1.12.679-1.36a12.561,12.561,0,0,1-.1,1.979c.154.854-.679,3.26-.4,3.631.2.268,1.079,1.338.859,1.64-.36.491-.065,2.238-.188,2.907a29.049,29.049,0,0,0-.479,2.873,15.251,15.251,0,0,0-.38,4.641,41.486,41.486,0,0,0,1.414,5.418c.357,1.277,1,.467,1.5,1.552.593,1.289.949,3.081,1.589,4.469.246.535,2.02,2.968.573,2.718-.1,1.513,2.12,1.559,2.274,2.941.181,1.62,1.484,2.1,1.934,3.62,1.242.048-.122-1.724-.117-2.039-.738-.043-1.146-2.079-1.255-2.943-.727-.309-1.083-1.88-1.461-2.535a5.9,5.9,0,0,1-1.158-3.577c1.479.392,1.812,1.764,2.323,3.231a7.985,7.985,0,0,0,.976,2.2,2.355,2.355,0,0,1,1.023,2.037c1.657.93,2.715,3.494,3.5,5.11.46.94-.245,1.516.3,2.4.506.82,1.5,1.191,1.884,2.105a24.3,24.3,0,0,1,4.669,2.469,9.27,9.27,0,0,0,2.589,1.252c.77.163,1.328-.516,2.059-.524,1.432-.016,2.752,2.353,3.841,3.116.486.008,4.282,1.6,4.307,1.01.186.016,1.948,2.765,2.5,3.053.15.645-.474.739.292,1.3a3.3,3.3,0,0,0,.39.258c.757-.335,1.552-.618,2.343-.952a2.479,2.479,0,0,1-.6-1.971"
                  transform="translate(-4197.168 -1633.394)" fill="#84b9bd"/>
            <path d="M4393.175,1967.182c-.353-1.285-2.52-.1-3.391-.708-.747-.519-1.562-1.463-2.564-1.38a11.566,11.566,0,0,1-3.375-.433c-.867-.163-1.165.9-1.92.893.169-1.174-1.119-1.612-2.509-1.385-.442-.628-1.345-.528-2.11-.075a2.332,2.332,0,0,0,.2-.682c-.615-.522-1.251.067-1.958,0a3.623,3.623,0,0,1-2.344,1.26c.463-1.327,1.866-1.672,2.56-2.789.36-.579-.929-1.25-1.118-1.764-.63-1.708-.5-1.48-1.957-2.482a7.158,7.158,0,0,0-3.394-1.145c-1.055-.077-1.152.41-2.123.05a7.592,7.592,0,0,0-2.832-.581c.37-1.995-2-2.405-3.173-2.251a3.875,3.875,0,0,1,.9-.909,1.639,1.639,0,0,0-.908-.564c.529-.111.281-1.028.45-1.361-.967-.153-1.453,1.383-2.038.685.171-.226.73-.015.679-.455a3.471,3.471,0,0,0-3.211.294c-1.042.73-1.995-.579-3.087-.459-.909.1-1.268.323-1.739-.448a1.522,1.522,0,0,0-1.6-.611c-.3-.234-.385-1.333-.99-.929-.351.234-.393.794.2.817-.483.454-1.38.233-1.812.684-.215-.029-.539-.741-.1-.853,1.835-.468-.634-1-1-1.614a2.2,2.2,0,0,0-1.027-.916c-1.434-.634-3.555.079-4.909.227-.426-.586-1.118-1.2-1.625-1.88-.792.335-1.586.618-2.346.953.33.192.715.347.569-.084.433,1.009,1.36.3,1.364,1.583.162.4,1.232.579,1.475.564a1.811,1.811,0,0,1,.748.115,4.725,4.725,0,0,1,1.149.7c.6.445.561.324,1.5.306a5.006,5.006,0,0,0-.456-1.132c.971,0,.963-.566,2.039-.345-.041.424.681,1.406.458,1.7-.914.246-1.963-.046-2.614.715-.276.324-.265,1.536-.694,1.589a1.4,1.4,0,0,0-1.1,1.219,1.126,1.126,0,0,0-.68-.452c-.406.322.584.612.229.906a.947.947,0,0,0-.679.568c-.058.63.736,1.172.8,1.811.067.691.388,2.321.087,2.856-.151.267-1.706,1.173-1.21,1.226-.754.054-.191.83-1.037.873q-.907-.21-.6.8c-.115.516-1.532,2.455-.391,2.87a3.294,3.294,0,0,0,1.131.034c0,1.015-1.159.851-1.582,1.553-.079.683,1.383,1.469.345,1.472.283.547.973.673,1.475.9a8.159,8.159,0,0,0,1.079,1.453,9.486,9.486,0,0,1,2.1,2.958c1.172.843,1.538,2.23,2.54,3.079a10.792,10.792,0,0,0,3.083,1.705,21.852,21.852,0,0,1,3.345,1.652c.189.557.809,2.448.349,2.946a13.253,13.253,0,0,0-.107,3.738c-.11.833-.886-.442-.162.909a.5.5,0,0,1,.132.566c0,.074-.649,1.216-1.209.907a.794.794,0,0,0,.43.487,71.3,71.3,0,0,0,15.351.414c-.416-.181-.455-.57-1.165-.483,1.86-.318,3.467.614,5.222-.29.4-.208,1.022-.963,1.528-1.264-.022.021-.046.041-.069.064,1.02.045,3.386-1.822,3.468-2.655.2-2.068,3.291-2.343,4.208-3.766,2.186-.275,3.241.477,4.74-.833,1.228-1.074,1.572-2.176,2.381-3.339.526-.758-.846-2.527-.385-3.4,1.026-.281,2.67-.448,3.114-1.344C4391.237,1971.322,4393.77,1969.348,4393.175,1967.182Z"
                  transform="translate(-4297.107 -1847.954)" fill="#84b9bd"/>
            <path d="M4245.8,1661.526c1.061.129.981.572,1.694,1.25.131-.277,2.573-3.035,2.827-2.726a1.857,1.857,0,0,0-.565.567.31.31,0,0,1,.34,0,2.178,2.178,0,0,0-.792.908,6.565,6.565,0,0,0,2.3-.714,14.508,14.508,0,0,0,2.9-1.9c.733.122,1.46-.923,2.362-.987a3.956,3.956,0,0,0,2.843-1.4c-.387-.393-.9.491-1.131.229.508-.479,2.371-.614,2.15-1.365-.776-.252-1.541.458-2.267.005.51-.434.258-.925.223-1.473-1.409-.1-1.717.972-2.262,1.931-.418,0-.054-.569-.228-.566-.763.111-1.1.812-1.7,1.251a9.891,9.891,0,0,1-3.528,1.209c-1.044-.122-1.11-.7-2.225-.577-.181.019-.362.042-.543.063q-.711.627-1.41,1.276a.958.958,0,0,1-.195.526c-.582.917-.629.524-.7,1.6C4245.785,1661.008,4244.676,1661.39,4245.8,1661.526Z"
                  transform="translate(-4231.567 -1639.619)" fill="#84b9bd"/>
            <path d="M4233.427,1685.247c-.234.259-.538.582-.786.878a6.133,6.133,0,0,0,1.422-.683C4233.96,1685.276,4233.726,1685.222,4233.427,1685.247Z"
                  transform="translate(-4222.52 -1662.014)" fill="#84b9bd"/>
            <path d="M4653.786,1778.476a3.791,3.791,0,0,0-.345-1.925A1.634,1.634,0,0,0,4653.786,1778.476Z"
                  transform="translate(-4523.129 -1727.27)" fill="#84b9bd"/>
            <path d="M4611.16,1704.944c-.145-.168-.03-.887.226-.567-.856.881,2.027,2.277,1.934,3.395a.8.8,0,0,0-.793,0q.213.46.455.905a1.979,1.979,0,0,1-.565.115c.075.942,1.207.781,1.59,1.469a2.94,2.94,0,0,1-.794-.338c-.565,2.09-.669.484.91,1.584a.467.467,0,0,1,.112-.454,9.624,9.624,0,0,0,2.382.9,7.466,7.466,0,0,0-.118-1.586,20.005,20.005,0,0,0-1.958-2.825c-.627-.946-1.38-1.839-2.021-2.716-.13-1.734-.763-1.11-1.478-2.376a.461.461,0,0,0,.453-.341q-.721-.479-1.475-.9a1.461,1.461,0,0,0,.228.793.882.882,0,0,1-.227-.113C4610.078,1702.448,4610.558,1704.826,4611.16,1704.944Z"
                  transform="translate(-4492.221 -1673.425)" fill="#84b9bd"/>
            <path d="M4615.938,1758.471c-.4-.8-.853-1.469-1.224-1.54-.869-.164.61-4.09-1.092-4.25-.469.411-1.531-.069-2.118-.213a2.231,2.231,0,0,0-2.3.677c.095.28-2.786.793-3.413-.476-.39-.785,1.159-.735,1.469-.713,1.3.087,1.1-1.037,1.666-1.847.374-.534.019-.705-.3-1.268a9.458,9.458,0,0,0,.563-1.588c1.81.211.238-1.792,1.016-2.267a4.553,4.553,0,0,0,1.249.9,2.2,2.2,0,0,1,.676-.908c.884,1.186,1.146,2.686,1.823,3.961.01.02.022.04.033.061a70.675,70.675,0,0,0-5.861-14.567,1.457,1.457,0,0,0-.437,1.265c-.875-.426-.714.666-1.141.955s-.553.058-.711-.18a.557.557,0,0,0-.525-.317,4.209,4.209,0,0,1,.342,1.245c-.777-.612-.935-.495-1.927-.675-.127,1.012,2.028,2.641,2.65,3.546.4.586,1,2.734.54,3.47-1.055-.78-4.328-2-5.216-1.119-.133.552.632,2.649.757,3.3a7.6,7.6,0,0,1-.288,2.708c1.582.9-.425,2.767,2.271,2.259a2.75,2.75,0,0,1-.286,4.163c-1.227.889-.7,1.508-1.4,2.442-.75.995.5,2.074-.5,3.243-.689.8-1.738,1.177-2.046,2.1-.444,1.34-1.714,1.871-1.731,3.476-1.25.59-.944,1.651-1.807,2.5-.665.649-.106,1.658-.221,2.49a.475.475,0,0,1,.455.113,10.226,10.226,0,0,1,.362,3.085c-.069.8-.254,2.781-.755,3.394-.975,1.192.155,1.544-.132,2.644-.226.87.226,2.089,1.346,1.866-.661,1.33,1.943,2.178,1.594,3.961.364,1.076,2.22,2.24,3.162,3.068.995.872,1.721.29,2.469-.294.694-.541,1.41-1.082,2.378-.463.36.231,3.425-2.356,4-2.68.441.442.292,1.266.459,1.812a2.16,2.16,0,0,0,1.244-.8c.39,2.179-1.189,3.939-1.031,5.988.006.073.008.145.011.216a71.1,71.1,0,0,0,3.934-34.745"
                  transform="translate(-4482.274 -1697.171)" fill="#84b9bd"/>
            <path d="M4603.847,1714.7c1.143,1.876,4.48,1.575,2.717-.913.917-.065-1.139-2.387-1.706-2.262a1.8,1.8,0,0,0-.565.568.462.462,0,0,1,.455.34c-.411,0-.682-.312-1.134-.339-.3.546,1.6,2.831.233,2.606"
                  transform="translate(-4487.621 -1680.794)" fill="#84b9bd"/>
            <path d="M4423.8,1604.477a12.059,12.059,0,0,1-1.9.063,6.7,6.7,0,0,0-3.287.477,2.877,2.877,0,0,1,1.475.336,3.013,3.013,0,0,1-.5-.019c-.453-.037-1-.074-1.2.25a1.02,1.02,0,0,0,.564.043c.118-.037,1.029.615.9.984,2.942.387,4.954-1.137,7.492.764-.016.14-1.162.942-.964,1.062a3.3,3.3,0,0,1,1.76-.158,1.241,1.241,0,0,0-.454.226,2.066,2.066,0,0,1,1.134.452c-.029,0-1.166.005-1.019.115a.541.541,0,0,1,.567.113.822.822,0,0,0-.565.34.317.317,0,0,1,.34.112,4.022,4.022,0,0,0-.521.012c-.543.254,1.441.4,2.246.325.044-.117.149-.157.315-.115.047.057-.087.095-.315.115a.368.368,0,0,0-.024.113c.774.265,2.073.19,2.494.786-.275-.05-.207.046-.14.143.1.138.188.277-.709-.013-.756-.243-2.051-.707-2.776-.121a.673.673,0,0,1,.453.34c-.717-.114-1.159,1.546-1.13,1.575.526.521,3.369.233,3.852-.789a8.248,8.248,0,0,0-1.02-.45c.534.087,1.064.2,1.586.336a.314.314,0,0,0-.339.114c.034.236.24.209.419.183.127-.019.24-.037.26.042.388,1.408-1.88,1.024-2.6,1.479.6.113-.394.505-.486.807q-.335.6.284.47c-.118.069-.24.135-.362.2.418.463,1.336.065,1.7.448-2.025,0-.747,1.171.867,1.419,0,.858-.457,1.118.385,1.3-.708-.023-.561.382-.243.788a5.737,5.737,0,0,0,.782.786c.19.572-.021.283.558.695.2.141,1.046.131,1.175.332a5.029,5.029,0,0,0-.033,2.145c.912.292,1.5-.649,1.906.011a1.368,1.368,0,0,0,.587.369l.039-.037c0,.026-.012.035-.039.037-.75.712,1.44.716,1.74.751a.491.491,0,0,0,.5.494q.639.016-.041.411a7.349,7.349,0,0,0,2.379-.233.31.31,0,0,0-.114.454c.729.171.56-.557.68-.568.093.009,1.224.1,1.246.224a1.124,1.124,0,0,0-.678.568c.569.1,1.135.214,1.7.336-.7.8.3.444,1.023.789a2.446,2.446,0,0,1,1.115-.129,2.577,2.577,0,0,0,1.037-.1c.212-.689-.027-.574-.168-.463-.14.145-.091.073,0,0,.085-.089.242-.256.506-.559-.2-.568-.724-.265-.342-1.407.431-1.284-.412-.974-.912-1.989a1.744,1.744,0,0,0,.678-.114.532.532,0,0,0-.341-.566c.58-.092,1.148.064,1.471-.91a5.665,5.665,0,0,1-1.135-.791,1.03,1.03,0,0,0,.793-.116,6.357,6.357,0,0,0-.8-.79,1.238,1.238,0,0,0,.792-.115.871.871,0,0,0-.455-.68c1.48.51,2.494,1.32,3.871,1.286a20.693,20.693,0,0,1-.133-2.2,1.645,1.645,0,0,0,1.021.337c.218-.738-.368-1.468.333-2.039.495.184,1.246.522,1.763.229a7.072,7.072,0,0,0,1.651-.378,70.594,70.594,0,0,0-32.7-10.731"
                  transform="translate(-4355.271 -1604.294)" fill="#84b9bd"/>
            <path d="M4661.283,1797.352c-.048-.055-.1-.069-.205.035a2.549,2.549,0,0,0,.5,1.335Q4661.437,1798.036,4661.283,1797.352Z"
                  transform="translate(-4528.711 -1742.105)" fill="#84b9bd"/>
            <path d="M4654.809,1786.075c-.072-1.237-.219-1.8-.913-2.377a7.037,7.037,0,0,0,.687,2.491Q4654.58,1785.882,4654.809,1786.075Z"
                  transform="translate(-4523.579 -1732.378)" fill="#84b9bd"/>
            <path d="M4351.783,1606.285a7.756,7.756,0,0,1,2.05-.338c-.516.13-1.287.211-2.05.338-.428.112-.857.224-1.293.294a2.528,2.528,0,0,0-.918.478c.144-.1.092.244-.04.351.25-.04.75-.092.34-.317a5.375,5.375,0,0,1,2.491-.006c-.572-.021-3.985.277-4.075,1.143.641-.047,2.351-.522,2.833-.12-.614.208-6.045.555-5.774,2.053a28.374,28.374,0,0,0,3.117-.732,25.929,25.929,0,0,0,3.289-.776c1.184-.355,3.776.244,4.578-1.125-1.188-.042-2.581.562-3.738.235.938-.255,1.934-.129,2.875-.379.7-.187.759-.561,1.456-.628.6-.057,2.4-.531,2.688-1.162-.65-.1-1.419.316-2.039.118,1.163-.4,2.5-.047,3.625-.575a.766.766,0,0,1-.681-.112c.736.054,5.076-.922,7.236-1.159a1.365,1.365,0,0,1-.379-.025q-3.053-.038-6.1.185c-1.852.252-3.691.614-5.508,1.035-1.758.408-4.259.551-5.78,1.576.171-.011.34-.031.507-.058A9.257,9.257,0,0,1,4351.783,1606.285Z"
                  transform="translate(-4303.06 -1603.835)" fill="#84b9bd"/>
            <path d="M4359.016,1613.882a.8.8,0,0,0,.34-.227C4359.2,1613.637,4358.73,1613.833,4359.016,1613.882Z"
                  transform="translate(-4312.772 -1610.852)" fill="#84b9bd"/>
            <path d="M4333.863,1617.648c.1.01.183-.063.25-.063h0a.147.147,0,0,0,.149-.069,14.179,14.179,0,0,1,3.315-.649,12.123,12.123,0,0,1,2.785-1.365.891.891,0,0,1-.636-.209.575.575,0,0,1,.139-.134c-.114.04-.259.087-.425.139a10.007,10.007,0,0,0-1.242.347l.056-.005c.021,0-.118.1-.095.1l.16-.1c.141,0-.426.171-.234.167-.192,0,.375-.168.234-.167-2.156.65-5.415,1.641-5.271,2.372A5.713,5.713,0,0,1,4333.863,1617.648Z"
                  transform="translate(-4294.274 -1611.928)" fill="#84b9bd"/>
            <path d="M4555.611,1656.287c-.05-.425-1.149-1.268-1.52-1.486-.253-.149-.267-.066-.314.016-.058.1-.167.2-.812-.112a10.353,10.353,0,0,0-2.232-.673.317.317,0,0,1,.115.454,6.5,6.5,0,0,0-2.383-1.582c-.138.262.432.371.227.453-.393-.151-1.087-.479-1.133.116.39.814,1.868.1,2.156,1.015a1.2,1.2,0,0,1-.526-.066c-.353-.087-.736-.176-.833.182.581.359,1.5.284,1.928.9q-.506-.152-.565.341c.667.2,7.126,2.668,7.028,1.456-.013,0-.12-.254-.307-.51a.993.993,0,0,0-.829-.507"
                  transform="translate(-4447.583 -1638.903)" fill="#84b9bd"/>
            <path d="M4350.626,1891.9c-.012-1.049-1.171-1.048-1.927-1.016-.043-.269.354-.335.111-.567a10.227,10.227,0,0,0-2.381-.674,1.786,1.786,0,0,0-1.325-.956c-.974-.286-1.833-1.142-2.747-1.123-1.223.026-2.181-.525-3.524-.169-.608.161-2.351,1.1-1.808,2.044.637.143,2.5-1.014,3.168-1.367.185,1.069,1.539.842,2.609,1.353.909.434,1.6-.019,2,.883.347.781,1.059.509,1.739.921-.23.4-.776.293-.677.908C4347.444,1891.885,4349.05,1892.111,4350.626,1891.9Z"
                  transform="translate(-4297.046 -1806.398)" fill="#84b9bd"/>
            <path d="M4366.475,1910.814c.1.059,2.259.5,2.131-.1C4368.042,1909.673,4364.483,1909.687,4366.475,1910.814Z"
                  transform="translate(-4317.738 -1822.608)" fill="#84b9bd"/>
            <path d="M4385.2,1905.815a3.515,3.515,0,0,0,1.434.074,1.3,1.3,0,0,0,1.021.677c.253-2.193,3.916.259,3.962-1.37a5.536,5.536,0,0,0-4.013-1.815c-.634.061-2.93-.548-3.128.246,0,0,1.449,1.505,1.364,1.47-.862.38-1.644-.48-2.493-.107C4383.154,1906.311,4384.619,1905.713,4385.2,1905.815Z"
                  transform="translate(-4330.209 -1817.794)" fill="#84b9bd"/>
            <path d="M4416.981,1910.478c.047,1.116,2.472.515,2.311-.143C4419.008,1910.309,4416.936,1909.375,4416.981,1910.478Z"
                  transform="translate(-4354.262 -1822.6)" fill="#84b9bd"/>
            <path d="M4269.511,1654.368c-.453,0-1.661-.229-1.687.571.83.694,3.757-.288,3.509-1.481a1.5,1.5,0,0,1-.907-.452,3,3,0,0,0-1.7.458C4268.454,1653.486,4269.4,1654.313,4269.511,1654.368Z"
                  transform="translate(-4247.664 -1638.975)" fill="#84b9bd"/>
            <path d="M4333.578,1625.3c2.17-.239,4.157-1.385,6.3-1.411a2.409,2.409,0,0,0,1.971-.761c.488.65,1.484.207,2.073.074a6.382,6.382,0,0,0,1.89-.99c-1.933-.563-4.242.083-6.066.772-.833.315-1.353.224-2.193.555-.532.21-2,.012-2.388.4.261-.461.933-.286,1.246-.683a8.537,8.537,0,0,0-2.945.8c-.029.485.437.1.455.339C4333.664,1624.8,4333.42,1624.733,4333.578,1625.3Z"
                  transform="translate(-4294.572 -1616.816)" fill="#84b9bd"/>
            <path d="M4381.511,1649.337c-1.195-.393-2.721-.072-2.716,1.366C4379.868,1651.134,4381.643,1650.8,4381.511,1649.337Z"
                  transform="translate(-4326.971 -1636.244)" fill="#84b9bd"/>
            <path d="M4358.512,1632a4.642,4.642,0,0,1-1.617.24,5.2,5.2,0,0,0,1.246-.455c-.122-.521-.972-.465-1.777-.409-.722.049-1.872.667-1.973.305.66-.031-.977-1.832-1.578-.563-.088-.7-.585-.559-1.078-.423a1.389,1.389,0,0,1-.735.087,2.288,2.288,0,0,0,1.02-.569c-.791-.56-4.951-1.042-4.985.579a1.006,1.006,0,0,0-1.173-.047.972.972,0,0,1-.979.052,4.277,4.277,0,0,0,.79-1.022c-1.21-1.161-3.37-.153-4.53.578a.545.545,0,0,1,.567.111c-.505.007-1.361,0-1.472.685a.984.984,0,0,1,.455.338.613.613,0,0,0-.68.454c.146.37.82.026.908.452a1.225,1.225,0,0,1-1.246.343.818.818,0,0,0,.681-.341c-.354-.58-1.048-.613-1.137-1.244.535-.609,1.407-.731,1.922-1.365-1.417.177-5.45,1.214-4.864,2.845a.848.848,0,0,0-.792.682,4.466,4.466,0,0,0,.893-.052,2.874,2.874,0,0,1,1.375.047c-.428.363-1.527,0-1.7.684.449.515,1.38.266,1.909.1.628-.2.6-.105.731-.014.1.074.308.15,1.06.061a30.934,30.934,0,0,1,4.684-.281c.1-.655.45-.542.917-.43a1.715,1.715,0,0,0,1.078-.006c1.193-.475-.226-.635-.3-.814.493-.318,3.291,1.017,3.742,1.237a2.668,2.668,0,0,1-1.246.23c-.166,1,1.057.391,1.539.251,1.026-.3.862.309,1.808.512,2.513.539.437,2.506-1.071,2.857-.015.413.985.688.794,1.018-1.323.119-2.278.324-3.547.37-.6.023-1.952.628-1.771,1.57.778.045,3.928-.485,3.974-1.108.024-.352,3.415,1.509,3.846,1.882a.5.5,0,0,0-.453.455c.958.743,2.424.611,3.179,1.7a20.422,20.422,0,0,1,3.965.318c0-1.79-1.267-1.816-3.607-2.334,1.447.32,3.468-.07,3.715.087.663.421.6,1.212,1.364,1.222a3.821,3.821,0,0,0,0-1.246.732.732,0,0,0,.455.112c.209-1.074-.637-1.039-1.137-1.7.211.053.323-.022.338-.228-.58.006-3.723-1.895-3.517-2.144a1.033,1.033,0,0,0,1.021.225c.112-.572-.5-.351-.568-.793a3.493,3.493,0,0,1,3.278.166c.708.551.963,1.891,1.824,1.861.12-.341-.435-.758-.117-1.02a14.915,14.915,0,0,1,1.587-.229c.352-.207-.378-.386,0-.568.832.082,1.512-.56.371-.956-.935-.325-1.048.071-1.507-.513-.548.024-1.3.342-1.812,0a.657.657,0,0,0,.791-.229c-.811-1.271-3.879-.891-5.216-1.687a.542.542,0,0,1,.567-.114c.118-.3-.584-.419-.341-.566a3.88,3.88,0,0,0,1.813.222c.077-.537-.344-.534-.778-.531-.342,0-.693.006-.812-.258,2.229-.006.689-.811-.083-.69"
                  transform="translate(-4296.019 -1621.997)" fill="#84b9bd"/>
            <path d="M4340.043,1669.6c.467-.01,3.555,1.77,3.512-.008a3.661,3.661,0,0,0-1.813-.222c.322-1.057-1.275-.35-2-.644-1.606-.654-.152-.469-1.293-.595a.669.669,0,0,0-.568-.792,10.277,10.277,0,0,0-1.053,1.75c-.333,1.185-.815.817-1.317,1.881.622.089,1.244-.48,1.812-.344a1.276,1.276,0,0,0,0,.68c.98-.039,1.529-.947,2.491-1.026C4340.085,1670.073,4339.639,1669.658,4340.043,1669.6Z"
                  transform="translate(-4296.04 -1649.219)" fill="#84b9bd"/>
            <path d="M4305.685,1657.232c-.4.036-1.392-.51-1.927-.562-.353.334-1.444,1.189-1.583,1.59C4303.445,1658.108,4304.834,1658.467,4305.685,1657.232Z"
                  transform="translate(-4272.213 -1641.595)" fill="#84b9bd"/>
            <path d="M4356.95,1614.918a2.139,2.139,0,0,0,.256-.1A.578.578,0,0,0,4356.95,1614.918Z"
                  transform="translate(-4311.358 -1611.683)" fill="#84b9bd"/>
            <path d="M4312.774,1634.588c-.852-.307-7.463.805-7.565,1.567C4307.031,1635.892,4312.244,1637.643,4312.774,1634.588Z"
                  transform="translate(-4274.382 -1625.776)" fill="#84b9bd"/>
            <path d="M4459.277,1739.081a1.955,1.955,0,0,0-.4.04,2.671,2.671,0,0,0-1.721,1.729,8.434,8.434,0,0,1-1.069,2.089,1.226,1.226,0,0,1-.113.1.611.611,0,0,0-.115.926,1.246,1.246,0,0,0-.958.635.654.654,0,0,0-.051.335c.043.288.372.395.755.43.129.012.265.016.4.015s.255,0,.371-.008.232-.008.322-.009c.044,0,.084,0,.118,0,.064.005.173.007.312.007.252,0,.6-.008.985-.016s.807-.016,1.178-.017c.276,0,.525,0,.717.013.234.013.383.036.393.075-.058.025-.114.051-.169.079a2.6,2.6,0,0,0-.961.83,1.15,1.15,0,0,0,.522.136,1.539,1.539,0,0,0,.957-.478l.082-.068a1.376,1.376,0,0,1,.85-.41.9.9,0,0,1,.195.021c-.1.967-.312.942.811,1.3a1.284,1.284,0,0,0,.386.072c.43,0,.453-.408.6-.909.305-1.07-1.1-.9-1.342-1.147-.031-.316.167-.414.376-.5.254-.106.524-.194.415-.635a.466.466,0,0,0-.244-.074.818.818,0,0,0-.33.1.845.845,0,0,1-.356.1.555.555,0,0,1-.091-.007c.018-.554.879-1.215-.159-1.448a2.072,2.072,0,0,0-.462-.052,3.174,3.174,0,0,0-.545.058,2.859,2.859,0,0,1-.486.059,1.37,1.37,0,0,1-.957-.424c1.3-.382-.329-.462-.863-.46a1.188,1.188,0,0,0-.156.006c.31-.444,1.045-1.284,1.391-1.9a1.329,1.329,0,0,0,.187-.482,2.839,2.839,0,0,0-.768-.114"
                  transform="translate(-4381.325 -1700.492)" fill="#84b9bd"/>
        </g>
        <path d="M4767.5,902.272h-.076v-1.4h.076c2.056,0,4.136-.026,6.184-.077l.035,1.4C4771.655,902.246,4769.563,902.272,4767.5,902.272Zm-6.372-.081c-2.09-.054-4.207-.135-6.29-.241l.071-1.394c2.071.106,4.176.186,6.254.24Zm18.882-.233-.07-1.393c2.074-.1,4.176-.238,6.248-.4l.106,1.391C4784.206,901.718,4782.092,901.852,4780.006,901.957Zm-31.455-.409c-2.087-.16-4.2-.349-6.27-.562l.143-1.388c2.06.211,4.158.4,6.234.558ZM4792.56,901l-.142-1.388c2.069-.211,4.161-.452,6.218-.715l.178,1.384C4796.745,900.549,4794.64,900.79,4792.56,901Zm-56.531-.738c-2.068-.266-4.166-.563-6.233-.883l.213-1.379c2.056.318,4.142.613,6.2.878Zm69.02-.86-.213-1.379c2.052-.316,4.128-.664,6.173-1.033l.248,1.373C4809.2,898.737,4807.111,899.087,4805.048,899.4Zm-81.461-1.066c-2.057-.374-4.136-.778-6.18-1.2l.285-1.366c2.032.423,4.1.825,6.145,1.2Zm93.85-1.173-.284-1.366c2.036-.423,4.092-.878,6.111-1.352l.319,1.359C4821.552,896.283,4819.484,896.74,4817.437,897.165Zm-106.176-1.395c-2.028-.478-4.084-.99-6.109-1.522l.355-1.35c2.013.529,4.056,1.039,6.074,1.514Zm118.433-1.483-.354-1.35c2.008-.527,4.039-1.088,6.032-1.667l.389,1.34C4833.755,893.193,4831.714,893.757,4829.693,894.287Zm-130.608-1.719c-2-.582-4.028-1.2-6.022-1.837l.425-1.329c1.982.633,4,1.248,5.986,1.827Zm142.7-1.791-.424-1.33c1.978-.63,3.976-1.3,5.938-1.978l.458,1.318C4845.783,889.474,4843.773,890.143,4841.785,890.777Zm-154.715-2.047c-1.975-.688-3.973-1.413-5.937-2.155l.493-1.305c1.953.738,3.94,1.459,5.9,2.143Zm166.607-2.086-.492-1.306c1.94-.731,3.9-1.5,5.829-2.283l.525,1.292C4857.6,885.137,4855.629,885.909,4853.677,886.645Zm-178.422-2.378c-1.941-.792-3.9-1.619-5.813-2.459l.56-1.278c1.906.836,3.85,1.658,5.781,2.446Zm190.065-2.358-.56-1.279c1.894-.827,3.805-1.693,5.685-2.573l.592,1.264C4869.148,880.206,4867.224,881.077,4865.321,881.909ZM4663.695,879.2c-1.9-.891-3.807-1.819-5.676-2.757l.625-1.247c1.858.933,3.758,1.855,5.644,2.741Zm212.994-2.613-.625-1.248c1.853-.927,3.719-1.891,5.547-2.864l.657,1.231C4880.429,874.684,4878.551,875.653,4876.688,876.585Zm-224.271-3.046c-1.843-.986-3.7-2.01-5.523-3.045l.689-1.213c1.811,1.029,3.66,2.048,5.491,3.028Zm235.354-2.86-.688-1.214c1.8-1.021,3.62-2.08,5.4-3.148l.719,1.2C4891.412,868.587,4889.586,869.652,4887.772,870.679Zm-246.318-3.372c-1.792-1.08-3.594-2.2-5.357-3.325l.752-1.176c1.753,1.12,3.544,2.232,5.325,3.306Zm257.088-3.1-.749-1.177c1.745-1.111,3.5-2.262,5.229-3.423l.779,1.158C4902.068,861.932,4900.3,863.09,4898.542,864.208Zm-267.713-3.687c-1.733-1.171-3.475-2.38-5.176-3.6l.811-1.136c1.692,1.208,3.423,2.41,5.146,3.574Zm278.143-3.333-.809-1.137c1.693-1.2,3.392-2.444,5.049-3.688l.837,1.116C4912.382,854.731,4910.674,855.979,4908.972,857.188Zm-288.4-3.989c-1.665-1.255-3.342-2.551-4.983-3.854l.867-1.093c1.632,1.3,3.3,2.585,4.955,3.833Zm298.459-3.559-.865-1.094c1.627-1.287,3.26-2.614,4.854-3.943l.894,1.071C4922.31,847.012,4920.668,848.346,4919.031,849.64Zm-308.324-4.277c-1.6-1.34-3.208-2.721-4.777-4.1l.923-1.047c1.56,1.376,3.157,2.749,4.75,4.081Zm317.987-3.78-.92-1.048c1.562-1.371,3.125-2.78,4.648-4.188l.948,1.025C4931.836,838.789,4930.265,840.206,4928.694,841.584Zm-327.434-4.549c-1.527-1.419-3.062-2.879-4.559-4.342l.975-1c1.489,1.454,3.013,2.906,4.533,4.317Zm336.675-3.994-.973-1c1.491-1.451,2.981-2.939,4.429-4.422l1,.975C4940.933,830.086,4939.435,831.582,4937.936,833.042Zm-345.68-4.8c-1.453-1.494-2.911-3.031-4.33-4.568l1.024-.947c1.412,1.528,2.86,3.056,4.3,4.542Zm354.475-4.2-1.023-.949c1.413-1.523,2.826-3.086,4.2-4.645l1.047.923C4949.572,820.93,4948.152,822.5,4946.731,824.034Zm-363.016-5.04c-1.376-1.569-2.752-3.177-4.088-4.781l1.072-.893c1.329,1.6,2.7,3.195,4.065,4.754Zm371.341-4.409-1.07-.9c1.335-1.6,2.667-3.23,3.956-4.855l1.094.868C4957.737,811.336,4956.4,812.979,4955.056,814.584Zm-379.394-5.256c-1.294-1.638-2.585-3.314-3.837-4.983l1.116-.837c1.245,1.659,2.527,3.326,3.815,4.955Zm387.226-4.611-1.114-.839c1.249-1.659,2.5-3.359,3.7-5.053l1.136.81C4965.4,801.339,4964.145,803.049,4962.888,804.718Zm-394.77-5.451c-1.206-1.7-2.409-3.436-3.576-5.171l1.158-.779c1.16,1.725,2.357,3.455,3.556,5.142Zm402.089-4.809-1.156-.781c1.162-1.722,2.319-3.485,3.439-5.239l1.176.751C4972.539,790.953,4971.375,792.726,4970.207,794.458ZM4561.1,788.836c-1.118-1.758-2.229-3.557-3.3-5.346l1.2-.718c1.068,1.779,2.173,3.567,3.284,5.315Zm415.888-5-1.194-.72c1.074-1.783,2.139-3.6,3.166-5.411l1.213.689C4979.142,780.207,4978.071,782.038,4976.989,783.832Zm-422.355-5.769c-1.028-1.815-2.045-3.668-3.023-5.505l1.232-.656c.972,1.827,1.983,3.669,3,5.474Zm428.584-5.2-1.231-.658c.979-1.831,1.95-3.706,2.884-5.57l1.248.625C4985.178,769.138,4984.2,771.023,4983.218,772.865Zm-434.487-5.888c-.931-1.863-1.85-3.764-2.734-5.652l1.264-.591c.879,1.876,1.792,3.767,2.718,5.619Zm440.143-5.391-1.264-.593c.887-1.889,1.759-3.812,2.593-5.715l1.277.56C4990.643,757.752,4989.766,759.686,4988.874,761.586Zm-445.463-5.979c-.832-1.906-1.652-3.851-2.437-5.781l1.293-.526c.78,1.919,1.595,3.853,2.423,5.748Zm450.528-5.584-1.292-.526c.788-1.93,1.559-3.9,2.293-5.844l1.306.493C4995.506,746.1,4994.73,748.082,4993.938,750.024Zm-455.26-6.061c-.735-1.954-1.456-3.946-2.141-5.92l1.319-.458c.68,1.963,1.4,3.943,2.128,5.886Zm459.719-5.755-1.316-.459c.684-1.966,1.352-3.971,1.986-5.958l1.329.424C4999.759,734.214,4999.086,736.23,4998.4,738.208Zm-463.847-6.138c-.634-1.99-1.25-4.016-1.832-6.023l1.34-.389c.579,1.995,1.191,4.01,1.821,5.988Zm467.681-5.878-1.34-.389c.58-2,1.142-4.026,1.668-6.033l1.35.354C5003.38,722.143,5002.815,724.184,5002.232,726.192Zm-471.187-6.215c-.53-2.02-1.041-4.076-1.518-6.11l1.358-.318c.475,2.023.982,4.067,1.509,6.075Zm474.386-5.963-1.358-.319c.476-2.023.931-4.079,1.353-6.111l1.366.284C5006.368,709.912,5005.909,711.98,5005.431,714.014Zm-477.261-6.3c-.424-2.043-.828-4.122-1.2-6.181l1.373-.247c.369,2.046.77,4.114,1.191,6.145Zm479.824-6.031-1.373-.249c.371-2.044.718-4.122,1.035-6.173l1.379.213C5008.717,697.542,5008.367,699.632,5007.995,701.688Zm-482.061-6.358c-.316-2.062-.611-4.159-.876-6.234l1.384-.177c.264,2.062.557,4.148.872,6.2Zm483.982-6.084-1.382-.177c.263-2.06.5-4.152.715-6.218l1.388.142C5010.426,685.07,5010.183,687.174,5009.916,689.246Zm-485.575-6.4c-.21-2.076-.4-4.185-.555-6.271l1.391-.105c.158,2.074.342,4.171.552,6.235Zm486.855-6.12-1.391-.106c.158-2.063.291-4.164.4-6.247l1.393.071C5011.49,672.534,5011.355,674.647,5011.2,676.722Zm-487.806-6.434c-.1-2.085-.183-4.2-.235-6.291l1.4-.034c.051,2.078.13,4.183.234,6.256Zm488.445-6.139-1.395-.035c.053-2.076.079-4.182.079-6.259h1.4C5011.914,659.943,5011.887,662.061,5011.834,664.148Zm-487.36-6.447h-1.395c0-2.091.029-4.208.083-6.295l1.395.036C4524.5,653.517,4524.477,655.623,4524.475,657.7Zm485.972-5.8c-.049-2.079-.127-4.184-.229-6.256l1.393-.069c.1,2.084.182,4.2.231,6.292ZM4524.8,645.187l-1.393-.072c.106-2.089.243-4.2.4-6.282l1.392.107C4525.041,641.009,4524.906,643.11,4524.8,645.187Zm485.03-5.794c-.157-2.077-.341-4.174-.55-6.235l1.389-.14c.209,2.073.395,4.182.551,6.271Zm-484.069-6.687-1.388-.143c.214-2.078.458-4.181.724-6.253l1.385.178C4526.214,628.549,4525.972,630.64,4525.76,632.706Zm482.812-5.767c-.261-2.055-.553-4.14-.869-6.2l1.379-.211c.317,2.071.61,4.168.873,6.234Zm-481.211-6.648-1.379-.214c.32-2.066.672-4.155,1.046-6.208l1.373.25C4528.029,616.16,4527.679,618.237,4527.36,620.291Zm479.314-5.725c-.367-2.043-.767-4.111-1.187-6.146l1.365-.283c.423,2.046.825,4.126,1.195,6.181ZM4529.6,607.975l-1.365-.285c.427-2.047.886-4.114,1.364-6.146l1.359.32C4530.48,603.884,4530.023,605.94,4529.6,607.975Zm474.543-5.667c-.474-2.024-.979-4.069-1.5-6.076l1.351-.353c.528,2.019,1.035,4.075,1.511,6.111Zm-471.67-6.517-1.349-.356c.532-2.02,1.1-4.062,1.682-6.067l1.34.39C4533.563,591.753,4533,593.782,4532.471,595.791Zm468.5-5.594c-.575-1.989-1.186-4-1.817-5.99l1.331-.423c.634,2,1.25,4.024,1.828,6.025Zm-465-6.424-1.329-.425c.638-2,1.312-4.012,2-5.992l1.317.459C4537.277,579.783,4536.607,581.788,4535.973,583.773Zm461.214-5.506c-.679-1.959-1.394-3.94-2.126-5.888l1.307-.491c.735,1.959,1.455,3.952,2.137,5.922Zm-457.079-6.354-1.306-.493c.741-1.961,1.52-3.937,2.311-5.877l1.292.528C4541.617,568,4540.845,569.963,4540.108,571.912Zm452.675-5.364c-.776-1.916-1.591-3.851-2.42-5.75l1.279-.558c.833,1.91,1.652,3.856,2.434,5.783Zm-447.931-6.258-1.278-.561c.841-1.917,1.72-3.85,2.611-5.746l1.263.594C4546.562,556.462,4545.688,558.384,4544.853,560.29Zm442.943-5.178c-.876-1.876-1.789-3.768-2.714-5.62l1.249-.623c.931,1.864,1.849,3.766,2.731,5.653Zm-437.6-6.177-1.246-.626c.939-1.872,1.917-3.757,2.9-5.6l1.23.658C4552.1,545.2,4551.125,547.073,4550.19,548.934Zm432.032-4.994c-.97-1.825-1.98-3.668-3-5.476l1.215-.687c1.028,1.818,2.042,3.671,3.019,5.507Zm-426.115-6.065-1.212-.69c1.035-1.819,2.106-3.649,3.188-5.44l1.195.721C4558.2,534.247,4557.137,536.067,4556.107,537.876Zm419.969-4.809c-1.064-1.776-2.168-3.564-3.28-5.317l1.177-.748c1.12,1.763,2.23,3.562,3.3,5.348Zm-413.49-5.925-1.176-.752c1.127-1.763,2.292-3.535,3.464-5.267l1.155.782C4564.864,523.627,4563.706,525.389,4562.586,527.142Zm406.791-4.624c-1.153-1.717-2.348-3.448-3.551-5.143l1.137-.808c1.21,1.706,2.412,3.446,3.572,5.173Zm-399.771-5.758-1.135-.811c1.215-1.7,2.47-3.412,3.727-5.08l1.114.84C4572.062,513.367,4570.814,515.066,4569.605,516.759Zm392.537-4.437c-1.243-1.66-2.526-3.328-3.812-4.957l1.095-.865c1.294,1.638,2.585,3.316,3.835,4.985Zm-385-5.567-1.091-.868c1.3-1.635,2.64-3.277,3.982-4.88l1.069.9C4579.771,503.5,4578.438,505.129,4577.146,506.755Zm377.247-4.249c-1.329-1.6-2.7-3.2-4.063-4.757l1.049-.92c1.375,1.569,2.75,3.179,4.085,4.784Zm-369.2-5.353-1.046-.923c1.383-1.568,2.805-3.139,4.226-4.668l1.021.949C4587.978,494.032,4586.563,495.594,4585.188,497.153Zm360.958-4.056c-1.407-1.524-2.855-3.053-4.3-4.544l1-.972c1.457,1.5,2.912,3.037,4.327,4.57Zm-352.437-5.117-1-.975c1.462-1.5,2.962-2.991,4.458-4.444l.971,1C4596.653,485.006,4595.162,486.493,4593.709,487.98Zm343.716-3.861c-1.486-1.453-3.01-2.907-4.531-4.32l.95-1.022c1.529,1.421,3.063,2.883,4.557,4.344Zm-334.741-4.862-.946-1.025c1.534-1.417,3.108-2.833,4.677-4.209l.92,1.049C4605.775,476.44,4604.209,477.848,4602.684,479.257Zm325.57-3.661c-1.56-1.376-3.156-2.751-4.747-4.084l.895-1.069c1.6,1.341,3.207,2.723,4.776,4.107Zm-316.163-4.588-.893-1.072c1.606-1.338,3.25-2.671,4.885-3.963l.866,1.095C4615.322,468.352,4613.688,469.678,4612.091,471.008Zm306.564-3.457c-1.625-1.292-3.29-2.583-4.952-3.836l.841-1.114c1.67,1.26,3.347,2.558,4.98,3.858Zm-296.751-4.3-.838-1.116c1.67-1.251,3.379-2.5,5.081-3.706l.808,1.138C4625.263,460.77,4623.563,462.009,4621.9,463.254Zm286.749-3.247c-1.688-1.207-3.419-2.411-5.144-3.578l.781-1.156c1.735,1.174,3.476,2.384,5.174,3.6ZM4632.1,456.016l-.779-1.158c1.731-1.164,3.5-2.321,5.262-3.439l.749,1.178C4635.578,453.708,4633.818,454.859,4632.1,456.016Zm266.177-3.032c-1.75-1.12-3.542-2.233-5.324-3.31l.721-1.194c1.793,1.082,3.594,2.2,5.354,3.328Zm-255.63-3.671-.717-1.2c1.79-1.073,3.615-2.138,5.428-3.163l.687,1.214C4646.239,447.188,4644.423,448.246,4642.644,449.313Zm244.9-2.811c-1.808-1.029-3.655-2.049-5.489-3.032l.659-1.23c1.844.987,3.7,2.013,5.521,3.049Zm-234.024-3.338-.655-1.232c1.839-.978,3.716-1.947,5.581-2.878l.624,1.248C4657.212,441.229,4655.344,442.192,4653.517,443.164Zm222.968-2.582c-1.86-.934-3.758-1.858-5.642-2.744l.594-1.262c1.9.892,3.8,1.82,5.674,2.76Zm-211.8-3-.591-1.264c1.886-.881,3.81-1.751,5.719-2.585l.559,1.279C4668.473,435.846,4666.56,436.711,4664.686,437.587Zm200.445-2.347c-1.905-.837-3.85-1.661-5.78-2.449l.528-1.292c1.941.793,3.9,1.622,5.813,2.463Zm-189.01-2.644-.525-1.293c1.936-.786,3.908-1.557,5.864-2.293l.491,1.306C4680.006,431.047,4678.045,431.815,4676.121,432.6Zm177.389-2.1c-1.947-.737-3.931-1.459-5.9-2.146l.459-1.318c1.982.692,3.979,1.418,5.936,2.159Zm-165.672-2.3-.457-1.318c1.976-.685,3.986-1.353,5.975-1.986l.422,1.33C4691.8,426.843,4689.8,427.507,4687.837,428.189Zm153.813-1.836c-1.978-.633-3.992-1.249-5.986-1.83l.391-1.34c2.005.585,4.031,1.2,6.02,1.841ZM4699.767,424.4l-.388-1.34c2.006-.581,4.049-1.144,6.069-1.673l.354,1.35C4703.792,423.258,4701.762,423.818,4699.767,424.4Zm129.866-1.547c-2.005-.529-4.048-1.039-6.073-1.517l.321-1.358c2.036.481,4.091.994,6.107,1.526Zm-117.756-1.622-.318-1.358c2.034-.476,4.1-.932,6.147-1.356l.284,1.366C4715.956,420.3,4713.9,420.753,4711.877,421.226Zm105.572-1.255c-2.031-.424-4.1-.829-6.143-1.2l.251-1.373c2.056.374,4.134.781,6.178,1.208Zm-93.314-1.282-.248-1.373c2.056-.37,4.146-.719,6.21-1.036l.212,1.379C4728.256,417.975,4726.179,418.321,4724.135,418.69Zm81-.96c-2.051-.319-4.136-.615-6.2-.882l.18-1.384c2.072.268,4.169.566,6.231.887Zm-68.627-.939-.176-1.384c2.071-.264,4.174-.5,6.254-.714l.141,1.388C4740.659,416.289,4738.566,416.528,4736.507,416.79Zm56.213-.665c-2.064-.212-4.162-.4-6.234-.562l.108-1.391c2.084.161,4.194.351,6.27.565Zm-43.76-.6-.1-1.391c2.082-.157,4.195-.289,6.284-.393l.068,1.394C4753.132,415.241,4751.031,415.373,4748.96,415.529Zm31.279-.368c-2.071-.107-4.176-.189-6.254-.243l.036-1.395c2.09.055,4.207.137,6.291.245Zm-18.774-.255-.035-1.395c2.01-.049,4.051-.074,6.065-.074h.231l0,1.4h-.229C4765.493,414.833,4763.464,414.857,4761.466,414.906Z"
              transform="translate(-4422.51 -399.236)" fill="#415f79"/>
        <path d="M4962.85,1813.29H4432.01c-5.9,0-12.12-2.973-12.75-11.63V1793.7l58.106-107.369a18.493,18.493,0,0,1,16.564-10.27h406.226c7.581,0,24.3,14.93,27.686,21.711l47.936,97.722v3.51C4975.894,1809.186,4969.315,1813.29,4962.85,1813.29Z"
              transform="translate(-4348.312 -1301.602)" fill="#54667a"/>
        <path d="M4963.017,1773.9h-530.84c-5.895,0-15.6-5.169-11.953-11.524l57.309-115.429a18.493,18.493,0,0,1,16.564-10.27h406.227a20.01,20.01,0,0,1,17.9,11.065l56.728,113.518C4978.926,1768.492,4969.482,1773.9,4963.017,1773.9Z"
              transform="translate(-4348.431 -1273.449)" fill="#fff"/>
        <rect width="416.224" height="263.009" transform="translate(137.165 100.215)" fill="#11496a"/>
        <rect width="384.115" height="227.9" transform="translate(153.145 114.56)" fill="#55adb7"/>
        <path d="M5265.166,1979.064H5108.75a2.821,2.821,0,0,1-2.786-3.266l6.6-41.2a4.58,4.58,0,0,1,4.523-3.858h141.08a4.027,4.027,0,0,1,3.984,3.445l6.045,41.432A3.054,3.054,0,0,1,5265.166,1979.064Z"
              transform="translate(-4839.055 -1483.611)" fill="#84b9bd"/>
        <g transform="translate(126.706 382.271)">
            <path d="M4712.021,1709.062h-16.97c-2.368,0-4-.7-3.651-1.56l1.035-2.541c.345-.849,2.521-1.534,4.861-1.534h16.774c2.339,0,3.993.685,3.691,1.534l-.9,2.541C4716.554,1708.363,4714.388,1709.062,4712.021,1709.062Z"
                  transform="translate(-4669.475 -1703.428)" fill="#84b9bd"/>
            <path d="M4812.137,1709.062h-16.973c-2.366,0-4.041-.7-3.741-1.56l.884-2.541c.3-.849,2.432-1.534,4.771-1.534h16.775c2.339,0,4.033.685,3.782,1.534l-.751,2.541C4816.629,1708.363,4814.5,1709.062,4812.137,1709.062Z"
                  transform="translate(-4740.968 -1703.428)" fill="#84b9bd"/>
            <path d="M4912.245,1709.062h-16.971c-2.366,0-4.083-.7-3.834-1.56l.735-2.541c.246-.849,2.341-1.534,4.681-1.534h16.774c2.339,0,4.074.685,3.873,1.534l-.6,2.541C4916.7,1708.363,4914.613,1709.062,4912.245,1709.062Z"
                  transform="translate(-4812.455 -1703.428)" fill="#84b9bd"/>
            <path d="M5012.351,1709.062h-16.972c-2.367,0-4.124-.7-3.925-1.56l.585-2.541c.2-.849,2.25-1.534,4.59-1.534H5013.4c2.339,0,4.114.685,3.962,1.534l-.453,2.541C5016.761,1708.363,5014.717,1709.062,5012.351,1709.062Z"
                  transform="translate(-4883.938 -1703.428)" fill="#84b9bd"/>
            <path d="M5112.45,1709.062h-16.972c-2.366,0-4.165-.7-4.017-1.56l.437-2.541c.146-.849,2.161-1.534,4.5-1.534h16.775c2.339,0,4.154.685,4.052,1.534l-.3,2.541C5116.819,1708.363,5114.817,1709.062,5112.45,1709.062Z"
                  transform="translate(-4955.416 -1703.428)" fill="#84b9bd"/>
            <path d="M5212.545,1709.062h-16.972c-2.367,0-4.206-.7-4.109-1.56l.287-2.541c.1-.849,2.069-1.534,4.41-1.534h16.775c2.339,0,4.194.685,4.143,1.534l-.154,2.541C5216.872,1708.363,5214.912,1709.062,5212.545,1709.062Z"
                  transform="translate(-5026.888 -1703.428)" fill="#84b9bd"/>
            <path d="M5312.635,1709.062h-16.971c-2.368,0-4.248-.7-4.2-1.56l.137-2.541c.046-.849,1.98-1.534,4.32-1.534h16.775c2.339,0,4.233.685,4.232,1.534l0,2.541C5316.921,1708.363,5315,1709.062,5312.635,1709.062Z"
                  transform="translate(-5098.357 -1703.428)" fill="#84b9bd"/>
            <path d="M5412.69,1709.062h-16.972c-2.367,0-4.289-.7-4.292-1.56l-.012-2.541c0-.849,1.889-1.534,4.229-1.534h16.775c2.341,0,4.276.685,4.324,1.534l.146,2.541C5416.936,1708.363,5415.058,1709.062,5412.69,1709.062Z"
                  transform="translate(-5169.79 -1703.428)" fill="#84b9bd"/>
            <path d="M5512.4,1709.062h-16.972c-2.368,0-4.33-.7-4.385-1.56l-.161-2.541c-.054-.849,1.8-1.534,4.139-1.534h16.775c2.34,0,4.315.685,4.414,1.534l.294,2.541C5516.6,1708.363,5514.762,1709.062,5512.4,1709.062Z"
                  transform="translate(-5240.873 -1703.428)" fill="#84b9bd"/>
            <path d="M5612.1,1709.062h-16.971c-2.367,0-4.372-.7-4.477-1.56l-.312-2.541c-.1-.849,1.709-1.534,4.048-1.534h16.776c2.339,0,4.356.685,4.5,1.534l.444,2.541C5616.259,1708.363,5614.463,1709.062,5612.1,1709.062Z"
                  transform="translate(-5311.951 -1703.428)" fill="#84b9bd"/>
            <path d="M5711.792,1709.062H5694.82c-2.367,0-4.413-.7-4.568-1.56l-.46-2.541c-.154-.849,1.618-1.534,3.958-1.534h16.775c2.339,0,4.4.685,4.594,1.534l.594,2.541C5715.915,1708.363,5714.159,1709.062,5711.792,1709.062Z"
                  transform="translate(-5383.025 -1703.428)" fill="#84b9bd"/>
            <path d="M5811.482,1709.062H5794.51c-2.367,0-4.453-.7-4.66-1.56l-.609-2.541c-.2-.849,1.528-1.534,3.868-1.534h16.775c2.34,0,4.437.685,4.684,1.534l.744,2.541C5815.563,1708.363,5813.848,1709.062,5811.482,1709.062Z"
                  transform="translate(-5454.094 -1703.428)" fill="#84b9bd"/>
            <path d="M5911.168,1709.062H5894.2c-2.367,0-4.495-.7-4.751-1.56l-.76-2.541c-.253-.849,1.438-1.534,3.777-1.534h16.776c2.34,0,4.476.685,4.775,1.534l.892,2.541C5915.208,1708.363,5913.536,1709.062,5911.168,1709.062Z"
                  transform="translate(-5525.159 -1703.428)" fill="#84b9bd"/>
            <path d="M6010.851,1709.062h-16.972c-2.367,0-4.536-.7-4.843-1.56l-.909-2.541c-.3-.849,1.348-1.534,3.688-1.534h16.775c2.339,0,4.517.685,4.865,1.534l1.042,2.541C6014.849,1708.363,6013.217,1709.062,6010.851,1709.062Z"
                  transform="translate(-5596.218 -1703.428)" fill="#84b9bd"/>
            <path d="M4701.962,1734.814h-21.657c-.539,0-.911-.163-.829-.363l3.211-7.923c.079-.194.572-.351,1.1-.351h21.28c.53,0,.9.157.834.351l-2.834,7.923C4703,1734.652,4702.5,1734.814,4701.962,1734.814Z"
                  transform="translate(-4660.979 -1719.686)" fill="#84b9bd"/>
            <path d="M4840.846,1770.332h-22.111c-.551,0-.943-.17-.876-.379l2.633-8.256c.064-.2.555-.366,1.1-.366h21.719c.541,0,.935.164.879.366l-2.24,8.256C4841.889,1770.162,4841.4,1770.332,4840.846,1770.332Z"
                  transform="translate(-4759.88 -1744.81)" fill="#84b9bd"/>
            <path d="M4852.276,1807.351h-22.585c-.562,0-.964-.177-.9-.4l2.636-8.609c.065-.21.564-.381,1.117-.381h22.174c.553,0,.956.171.9.381l-2.227,8.609C4853.34,1807.174,4852.838,1807.351,4852.276,1807.351Z"
                  transform="translate(-4767.696 -1770.991)" fill="#84b9bd"/>
            <path d="M4895.53,1845.968h-23.078c-.576,0-.99-.185-.927-.413l2.487-8.986c.061-.22.567-.4,1.131-.4h22.65c.563,0,.98.178.929.4l-2.058,8.986C4896.613,1845.783,4896.1,1845.968,4895.53,1845.968Z"
                  transform="translate(-4798.235 -1798.296)" fill="#84b9bd"/>
            <path d="M4639.162,1887.608H4615.64c-.625,0-1.049-.206-.946-.46l4.324-10.668c.1-.243.674-.441,1.287-.441h23.019c.611,0,1.038.2.95.441l-3.816,10.668C4640.368,1887.4,4639.787,1887.608,4639.162,1887.608Z"
                  transform="translate(-4614.679 -1826.788)" fill="#84b9bd"/>
            <path d="M4749.191,1887.608H4725.67c-.626,0-1.061-.206-.973-.46l3.705-10.668c.084-.243.649-.441,1.261-.441h23.019c.612,0,1.049.2.977.441l-3.2,10.668C4750.385,1887.4,4749.815,1887.608,4749.191,1887.608Z"
                  transform="translate(-4693.298 -1826.788)" fill="#84b9bd"/>
            <path d="M4855.9,1887.608h-23.521c-.626,0-1.072-.206-1-.46l3.105-10.668c.07-.243.625-.441,1.236-.441h23.019c.612,0,1.06.2,1,.441l-2.6,10.668C4857.081,1887.4,4856.523,1887.608,4855.9,1887.608Z"
                  transform="translate(-4769.542 -1826.788)" fill="#84b9bd"/>
            <path d="M4971.2,1887.608h-31.037c-.714,0-1.238-.235-1.17-.525l2.472-10.539c.064-.279.684-.5,1.383-.5h30.373c.7,0,1.227.226,1.179.5l-1.816,10.539C4972.535,1887.373,4971.915,1887.608,4971.2,1887.608Z"
                  transform="translate(-4846.454 -1826.788)" fill="#84b9bd"/>
            <path d="M5636.784,1887.608h-31.036c-.713,0-1.32-.235-1.355-.525l-1.245-10.539c-.032-.279.508-.5,1.206-.5h30.374c.7,0,1.307.226,1.356.5l1.9,10.539C5638.035,1887.373,5637.5,1887.608,5636.784,1887.608Z"
                  transform="translate(-5321.109 -1826.788)" fill="#84b9bd"/>
            <path d="M5764.932,1887.608h-23.188c-.622,0-1.164-.2-1.212-.457l-2.038-10.674c-.046-.242.409-.439,1.017-.439H5762.2c.609,0,1.148.2,1.205.439l2.54,10.674C5766.008,1887.4,5765.553,1887.608,5764.932,1887.608Z"
                  transform="translate(-5417.835 -1826.788)" fill="#84b9bd"/>
            <path d="M5220.058,1887.608H5076.849c-1.5,0-2.639-.494-2.54-1.1l1.535-9.4c.1-.587,1.365-1.061,2.835-1.061h140.15c1.469,0,2.714.474,2.778,1.061l1.046,9.4C5222.721,1887.113,5221.559,1887.608,5220.058,1887.608Z"
                  transform="translate(-4943.159 -1826.788)" fill="#84b9bd"/>
            <path d="M5000.515,1845.968h-23.079c-.574,0-1-.185-.95-.413l1.977-8.986c.048-.22.544-.4,1.109-.4h22.651c.564,0,.991.178.953.4l-1.548,8.986C5001.587,1845.783,5001.089,1845.968,5000.515,1845.968Z"
                  transform="translate(-4873.25 -1798.296)" fill="#84b9bd"/>
            <path d="M5105.5,1845.968h-23.079c-.574,0-1.01-.185-.973-.413l1.466-8.986c.036-.22.523-.4,1.086-.4h22.652c.564,0,1,.178.975.4l-1.039,8.986C5106.56,1845.783,5106.072,1845.968,5105.5,1845.968Z"
                  transform="translate(-4948.262 -1798.296)" fill="#84b9bd"/>
            <path d="M5210.478,1845.968H5187.4c-.575,0-1.022-.185-1-.413l.958-8.986c.023-.22.5-.4,1.063-.4h22.651c.564,0,1.011.178,1,.4l-.53,8.986C5211.53,1845.783,5211.052,1845.968,5210.478,1845.968Z"
                  transform="translate(-5023.273 -1798.296)" fill="#84b9bd"/>
            <path d="M5315.458,1845.968h-23.078c-.575,0-1.032-.185-1.021-.413l.448-8.986c.011-.22.478-.4,1.042-.4H5315.5c.563,0,1.021.178,1.021.4l-.021,8.986C5316.5,1845.783,5316.032,1845.968,5315.458,1845.968Z"
                  transform="translate(-5098.282 -1798.296)" fill="#84b9bd"/>
            <path d="M5420.281,1845.968H5397.2c-.575,0-1.041-.185-1.044-.413l-.062-8.986c0-.22.455-.4,1.019-.4h22.65c.564,0,1.031.178,1.043.4l.489,8.986C5421.312,1845.783,5420.856,1845.968,5420.281,1845.968Z"
                  transform="translate(-5173.137 -1798.296)" fill="#84b9bd"/>
            <path d="M5523.982,1845.968H5500.9c-.574,0-1.053-.185-1.066-.413l-.572-8.986c-.014-.22.432-.4,1-.4h22.65c.564,0,1.041.178,1.065.4l1,8.986C5525,1845.783,5524.557,1845.968,5523.982,1845.968Z"
                  transform="translate(-5246.868 -1798.296)" fill="#84b9bd"/>
            <path d="M5627.682,1845.968H5604.6c-.575,0-1.064-.185-1.091-.413l-1.08-8.986c-.027-.22.408-.4.973-.4h22.65c.564,0,1.052.178,1.089.4l1.508,8.986C5628.69,1845.783,5628.256,1845.968,5627.682,1845.968Z"
                  transform="translate(-5320.598 -1798.296)" fill="#84b9bd"/>
            <path d="M5731.379,1845.968H5708.3c-.575,0-1.074-.185-1.113-.413l-1.591-8.986c-.04-.22.386-.4.951-.4H5729.2c.564,0,1.061.178,1.11.4l2.018,8.986C5732.378,1845.783,5731.955,1845.968,5731.379,1845.968Z"
                  transform="translate(-5394.326 -1798.296)" fill="#84b9bd"/>
            <path d="M5870.363,1902.121h-17.987c-2.287,0-4.326-.753-4.555-1.679l-.663-2.7c-.225-.914,1.427-1.652,3.688-1.652h17.786c2.261,0,4.313.738,4.582,1.652l.794,2.7C5874.282,1901.368,5872.65,1902.121,5870.363,1902.121Z"
                  transform="translate(-5495.483 -1841.121)" fill="#84b9bd"/>
            <path d="M5977.731,1902.121h-17.987c-2.287,0-4.369-.753-4.649-1.679l-.817-2.7c-.276-.914,1.334-1.652,3.6-1.652h17.786c2.262,0,4.355.738,4.676,1.652l.948,2.7C5981.609,1901.368,5980.018,1902.121,5977.731,1902.121Z"
                  transform="translate(-5572.031 -1841.121)" fill="#84b9bd"/>
            <path d="M5970.375,1878.846h-17.762c-2.258,0-4.312-.734-4.585-1.637l-.8-2.63c-.271-.891,1.321-1.612,3.556-1.612h17.567c2.234,0,4.3.72,4.611,1.612l.924,2.63C5974.208,1878.112,5972.634,1878.846,5970.375,1878.846Z"
                  transform="translate(-5566.997 -1824.593)" fill="#84b9bd"/>
            <path d="M6085.093,1902.121h-17.986c-2.288,0-4.412-.753-4.746-1.679l-.97-2.7c-.329-.914,1.238-1.652,3.5-1.652h17.786c2.262,0,4.4.738,4.77,1.652l1.1,2.7C6088.927,1901.368,6087.381,1902.121,6085.093,1902.121Z"
                  transform="translate(-5648.573 -1841.121)" fill="#84b9bd"/>
            <path d="M4955.966,1807.351h-22.585c-.562,0-.974-.177-.918-.4l2.143-8.609c.053-.21.543-.381,1.1-.381h22.175c.552,0,.965.171.922.381l-1.734,8.609C4957.021,1807.174,4956.529,1807.351,4955.966,1807.351Z"
                  transform="translate(-4841.787 -1770.991)" fill="#84b9bd"/>
            <path d="M5059.655,1807.351H5037.07c-.562,0-.984-.177-.943-.4l1.652-8.609c.041-.21.521-.381,1.073-.381h22.175c.552,0,.975.171.944.381l-1.242,8.609C5060.7,1807.174,5060.218,1807.351,5059.655,1807.351Z"
                  transform="translate(-4915.874 -1770.991)" fill="#84b9bd"/>
            <path d="M5163.341,1807.351h-22.585c-.562,0-.995-.177-.965-.4l1.159-8.609c.029-.21.5-.381,1.051-.381h22.175c.552,0,.985.171.967.381l-.75,8.609C5164.375,1807.174,5163.9,1807.351,5163.341,1807.351Z"
                  transform="translate(-4989.961 -1770.991)" fill="#84b9bd"/>
            <path d="M5266.393,1807.351h-22.584c-.562,0-1-.177-.989-.4l.668-8.609c.018-.21.478-.381,1.03-.381h22.176c.552,0,.994.171.987.381l-.259,8.609C5267.417,1807.174,5266.955,1807.351,5266.393,1807.351Z"
                  transform="translate(-5063.594 -1770.991)" fill="#84b9bd"/>
            <path d="M5370.078,1807.351h-22.586c-.56,0-1.014-.177-1.01-.4l.178-8.609c0-.21.455-.381,1.007-.381h22.174c.552,0,1,.171,1.011.381l.233,8.609C5371.091,1807.174,5370.639,1807.351,5370.078,1807.351Z"
                  transform="translate(-5137.678 -1770.991)" fill="#84b9bd"/>
            <path d="M5468.583,1807.351H5446c-.562,0-1.024-.177-1.031-.4l-.3-8.609c-.007-.21.435-.381.987-.381h22.175c.552,0,1.013.171,1.031.381l.706,8.609C5469.587,1807.174,5469.146,1807.351,5468.583,1807.351Z"
                  transform="translate(-5207.851 -1770.991)" fill="#84b9bd"/>
            <path d="M5570.091,1807.351h-22.585c-.562,0-1.034-.177-1.054-.4l-.784-8.609c-.019-.21.413-.381.965-.381h22.175c.552,0,1.024.171,1.053.381l1.194,8.609C5571.084,1807.174,5570.653,1807.351,5570.091,1807.351Z"
                  transform="translate(-5280.03 -1770.991)" fill="#84b9bd"/>
            <path d="M5671.6,1807.351h-22.586c-.562,0-1.043-.177-1.076-.4l-1.272-8.609c-.03-.21.391-.381.944-.381h22.174c.553,0,1.034.171,1.075.381l1.682,8.609C5672.58,1807.174,5672.159,1807.351,5671.6,1807.351Z"
                  transform="translate(-5352.208 -1770.991)" fill="#84b9bd"/>
            <path d="M5772.476,1807.351h-22.584c-.562,0-1.054-.177-1.1-.4l-1.757-8.609c-.043-.21.37-.381.922-.381h22.174c.553,0,1.043.171,1.1.381l2.166,8.609C5773.45,1807.174,5773.039,1807.351,5772.476,1807.351Z"
                  transform="translate(-5423.94 -1770.991)" fill="#84b9bd"/>
            <path d="M5873.355,1807.351H5850.77c-.562,0-1.064-.177-1.122-.4l-2.241-8.609c-.055-.21.348-.381.9-.381h22.175c.553,0,1.052.171,1.117.381l2.652,8.609C5874.318,1807.174,5873.917,1807.351,5873.355,1807.351Z"
                  transform="translate(-5495.672 -1770.991)" fill="#84b9bd"/>
            <path d="M5834.064,1845.968h-23.079c-.574,0-1.083-.185-1.137-.413l-2.094-8.986c-.052-.22.364-.4.928-.4h22.65c.564,0,1.072.178,1.134.4l2.523,8.986C5835.053,1845.783,5834.638,1845.968,5834.064,1845.968Z"
                  transform="translate(-5467.333 -1798.296)" fill="#84b9bd"/>
            <path d="M5999.5,1807.351h-43.61c-.772,0-1.476-.243-1.571-.542l-2.652-8.32c-.093-.29.448-.524,1.205-.524h42.818c.759,0,1.47.234,1.588.524l3.4,8.32C6000.8,1807.108,6000.274,1807.351,5999.5,1807.351Z"
                  transform="translate(-5570.181 -1770.991)" fill="#84b9bd"/>
            <path d="M5974.19,1845.968h-59.758c-.911,0-1.732-.293-1.837-.653l-2.463-8.514c-.1-.348.541-.63,1.435-.63h58.651c.893,0,1.732.282,1.874.63l3.479,8.514C5975.719,1845.676,5975.1,1845.968,5974.19,1845.968Z"
                  transform="translate(-5540.496 -1798.296)" fill="#84b9bd"/>
            <path d="M4694.821,1807.351h-44.078c-.777,0-1.307-.244-1.185-.545l3.369-8.315c.119-.291.832-.526,1.593-.526H4697.8c.762,0,1.305.235,1.214.526l-2.618,8.315C4696.3,1807.107,4695.6,1807.351,4694.821,1807.351Z"
                  transform="translate(-4639.593 -1770.991)" fill="#84b9bd"/>
            <path d="M4693.931,1845.968H4633.3c-.917,0-1.54-.295-1.392-.658l3.455-8.5c.144-.351.988-.635,1.887-.635h59.506c.9,0,1.547.284,1.448.635l-2.427,8.5C4695.674,1845.674,4694.847,1845.968,4693.931,1845.968Z"
                  transform="translate(-4626.977 -1798.296)" fill="#84b9bd"/>
            <path d="M4941.846,1770.332h-22.111c-.552,0-.954-.17-.9-.379L4921,1761.7c.053-.2.535-.366,1.075-.366h21.718c.541,0,.944.164.9.366l-1.77,8.256C4942.879,1770.162,4942.4,1770.332,4941.846,1770.332Z"
                  transform="translate(-4832.048 -1744.81)" fill="#84b9bd"/>
            <path d="M5042.224,1770.332h-22.112c-.551,0-.961-.17-.918-.379l1.7-8.256c.041-.2.513-.366,1.055-.366h21.717c.542,0,.955.164.923.366l-1.3,8.256C5043.248,1770.162,5042.775,1770.332,5042.224,1770.332Z"
                  transform="translate(-4903.771 -1744.81)" fill="#84b9bd"/>
            <path d="M5143.221,1770.332H5121.11c-.551,0-.972-.17-.942-.379l1.228-8.256c.029-.2.493-.366,1.033-.366h21.719c.541,0,.962.164.942.366l-.832,8.256C5144.235,1770.162,5143.772,1770.332,5143.221,1770.332Z"
                  transform="translate(-4975.937 -1744.81)" fill="#84b9bd"/>
            <path d="M5244.218,1770.332h-22.111c-.551,0-.981-.17-.962-.379l.756-8.256c.019-.2.471-.366,1.013-.366h21.718c.541,0,.972.164.963.366l-.364,8.256C5245.223,1770.162,5244.769,1770.332,5244.218,1770.332Z"
                  transform="translate(-5048.103 -1744.81)" fill="#84b9bd"/>
            <path d="M5344.593,1770.332h-22.111c-.55,0-.991-.17-.984-.379l.29-8.256c.007-.2.451-.366.992-.366H5344.5c.542,0,.982.164.985.366l.1,8.256C5345.589,1770.162,5345.144,1770.332,5344.593,1770.332Z"
                  transform="translate(-5119.823 -1744.81)" fill="#84b9bd"/>
            <path d="M5442.272,1770.332H5420.16c-.55,0-1-.17-1-.379l-.168-8.256c0-.2.432-.366.973-.366h21.718c.541,0,.991.164,1,.366l.561,8.256C5443.258,1770.162,5442.823,1770.332,5442.272,1770.332Z"
                  transform="translate(-5189.496 -1744.81)" fill="#84b9bd"/>
            <path d="M5542.906,1770.332h-22.111c-.551,0-1.009-.17-1.025-.379l-.642-8.256c-.017-.2.409-.366.95-.366H5541.8c.541,0,1,.164,1.025.366l1.034,8.256C5543.883,1770.162,5543.457,1770.332,5542.906,1770.332Z"
                  transform="translate(-5261.063 -1744.81)" fill="#84b9bd"/>
            <path d="M5642.312,1770.332H5620.2c-.551,0-1.019-.17-1.047-.379l-1.109-8.256c-.028-.2.389-.366.93-.366h21.718c.542,0,1.009.164,1.046.366l1.5,8.256C5643.279,1770.162,5642.863,1770.332,5642.312,1770.332Z"
                  transform="translate(-5331.755 -1744.81)" fill="#84b9bd"/>
            <path d="M5740.08,1770.332h-22.112c-.55,0-1.029-.17-1.069-.379l-1.57-8.256c-.038-.2.369-.366.91-.366h21.719c.54,0,1.018.164,1.066.366l1.963,8.256C5741.037,1770.162,5740.63,1770.332,5740.08,1770.332Z"
                  transform="translate(-5401.28 -1744.81)" fill="#84b9bd"/>
            <path d="M5841.938,1770.332h-22.111c-.551,0-1.039-.17-1.091-.379l-2.05-8.256c-.05-.2.348-.366.888-.366h21.718c.542,0,1.028.164,1.088.366l2.442,8.256C5842.885,1770.162,5842.488,1770.332,5841.938,1770.332Z"
                  transform="translate(-5473.717 -1744.81)" fill="#84b9bd"/>
            <path d="M5939.295,1770.332h-22.111c-.55,0-1.048-.17-1.112-.379l-2.508-8.256c-.061-.2.328-.366.868-.366h21.719c.54,0,1.037.164,1.107.366l2.9,8.256C5940.232,1770.162,5939.846,1770.332,5939.295,1770.332Z"
                  transform="translate(-5542.951 -1744.81)" fill="#84b9bd"/>
            <path d="M6039.516,1770.332H6017.4c-.551,0-1.06-.17-1.134-.379l-2.98-8.256c-.074-.2.306-.366.846-.366h21.719c.541,0,1.046.164,1.129.366l3.373,8.256C6040.444,1770.162,6040.066,1770.332,6039.516,1770.332Z"
                  transform="translate(-5614.221 -1744.81)" fill="#84b9bd"/>
            <path d="M4802.312,1734.814h-21.657c-.54,0-.921-.163-.851-.363l2.754-7.923c.066-.194.551-.351,1.082-.351h21.279c.531,0,.913.157.854.351l-2.376,7.923C4803.337,1734.652,4802.851,1734.814,4802.312,1734.814Z"
                  transform="translate(-4732.683 -1719.686)" fill="#84b9bd"/>
            <path d="M4899.62,1734.814h-21.659c-.54,0-.929-.163-.87-.363l2.31-7.923c.056-.194.532-.351,1.063-.351h21.281c.528,0,.92.157.873.351l-1.933,7.923C4900.635,1734.652,4900.158,1734.814,4899.62,1734.814Z"
                  transform="translate(-4802.213 -1719.686)" fill="#84b9bd"/>
            <path d="M4999.357,1734.814H4977.7c-.539,0-.938-.163-.892-.363l1.855-7.923c.046-.194.513-.351,1.042-.351h21.281c.529,0,.93.157.893.351l-1.478,7.923C5000.365,1734.652,4999.9,1734.814,4999.357,1734.814Z"
                  transform="translate(-4873.48 -1719.686)" fill="#84b9bd"/>
            <path d="M5096.61,1734.814h-21.657c-.539,0-.947-.163-.912-.363l1.412-7.923c.035-.194.492-.351,1.022-.351h21.28c.53,0,.94.157.915.351l-1.036,7.923C5097.609,1734.652,5097.15,1734.814,5096.61,1734.814Z"
                  transform="translate(-4942.971 -1719.686)" fill="#84b9bd"/>
            <path d="M5196.906,1734.814h-21.657c-.54,0-.958-.163-.933-.363l.955-7.923c.023-.194.471-.351,1-.351h21.281c.53,0,.948.157.933.351l-.577,7.923C5197.894,1734.652,5197.444,1734.814,5196.906,1734.814Z"
                  transform="translate(-5014.635 -1719.686)" fill="#84b9bd"/>
            <path d="M5293.3,1734.814h-21.658c-.539,0-.967-.163-.952-.363l.515-7.923c.012-.194.452-.351.982-.351h21.28c.531,0,.957.157.953.351l-.138,7.923C5294.275,1734.652,5293.836,1734.814,5293.3,1734.814Z"
                  transform="translate(-5083.509 -1719.686)" fill="#84b9bd"/>
            <path d="M5393.436,1734.814h-21.657c-.539,0-.976-.163-.974-.363l.059-7.923c0-.194.432-.351.962-.351h21.28c.53,0,.965.157.973.351l.319,7.923C5394.407,1734.652,5393.976,1734.814,5393.436,1734.814Z"
                  transform="translate(-5155.061 -1719.686)" fill="#84b9bd"/>
            <path d="M5489.771,1734.814h-21.659c-.54,0-.984-.163-.994-.363l-.386-7.923c-.009-.194.413-.351.943-.351h21.281c.53,0,.974.157.993.351l.762,7.923C5490.731,1734.652,5490.31,1734.814,5489.771,1734.814Z"
                  transform="translate(-5223.618 -1719.686)" fill="#84b9bd"/>
            <path d="M5588.565,1734.814h-21.658c-.54,0-.993-.163-1.015-.363l-.841-7.923c-.02-.194.392-.351.922-.351h21.28c.53,0,.984.157,1.014.351l1.219,7.923C5589.516,1734.652,5589.1,1734.814,5588.565,1734.814Z"
                  transform="translate(-5293.884 -1719.686)" fill="#84b9bd"/>
            <path d="M5687.157,1734.814H5665.5c-.54,0-1-.163-1.037-.363l-1.3-7.923c-.031-.194.373-.351.9-.351h21.281c.53,0,.993.157,1.033.351l1.673,7.923C5688.1,1734.652,5687.7,1734.814,5687.157,1734.814Z"
                  transform="translate(-5364.002 -1719.686)" fill="#84b9bd"/>
            <path d="M5784.745,1734.814h-21.657c-.539,0-1.013-.163-1.057-.363l-1.746-7.923c-.042-.194.352-.351.882-.351h21.28c.53,0,1,.157,1.054.351l2.123,7.923C5785.678,1734.652,5785.285,1734.814,5784.745,1734.814Z"
                  transform="translate(-5433.41 -1719.686)" fill="#84b9bd"/>
            <path d="M5878.526,1734.814h-21.657c-.539,0-1.022-.163-1.077-.363l-2.179-7.923c-.054-.194.333-.351.863-.351h21.281c.53,0,1.01.157,1.072.351l2.556,7.923C5879.451,1734.652,5879.066,1734.814,5878.526,1734.814Z"
                  transform="translate(-5500.107 -1719.686)" fill="#84b9bd"/>
            <path d="M5988.871,1734.814h-32.392c-1.5,0-2.863-.452-3.047-1.008l-2.207-6.653c-.179-.54.869-.977,2.342-.977h31.828c1.473,0,2.844.437,3.064.977l2.713,6.653C5991.4,1734.362,5990.369,1734.814,5988.871,1734.814Z"
                  transform="translate(-5569.857 -1719.686)" fill="#84b9bd"/>
            <path d="M4701.047,1770.332h-33.071c-1.529,0-2.578-.471-2.343-1.051l2.81-6.932c.228-.563,1.63-1.018,3.133-1.018h32.483c1.5,0,2.57.455,2.386,1.018l-2.283,6.932C4703.972,1769.861,4702.576,1770.332,4701.047,1770.332Z"
                  transform="translate(-4651.07 -1744.81)" fill="#84b9bd"/>
        </g>
        <g transform="translate(182.513 0.025)">
            <path d="M56.058,0H193.35a33.687,33.687,0,0,1,33.687,33.687V233.754a56.058,56.058,0,0,1-56.058,56.058H56.057A56.057,56.057,0,0,1,0,233.755V56.058A56.058,56.058,0,0,1,56.058,0Z"
                  transform="translate(0 0)" fill="#fff"/>
            <rect width="94.096" height="14.113" transform="translate(12.858 29.484)" fill="#afdcdf"/>
            <rect width="94.096" height="14.113" transform="translate(121.122 29.484)" fill="#afdcdf"/>
            <rect width="63.827" height="41.093" transform="translate(12.371 53.846)" fill="#afdcdf"/>
            <rect width="202.224" height="71.132" transform="translate(12.371 158.957)" fill="#afdcdf"/>
            <rect width="63.827" height="41.093" transform="translate(81.881 53.846)" fill="#afdcdf"/>
            <rect width="63.827" height="41.093" transform="translate(151.39 53.846)" fill="#afdcdf"/>
            <circle cx="4.121" cy="4.121" r="4.121" transform="translate(9.846 9.671)" fill="#afdcdf"/>
            <path d="M4891.975,401.769a4.121,4.121,0,1,1-4.121-4.121A4.121,4.121,0,0,1,4891.975,401.769Z"
                  transform="translate(-4862.771 -387.977)" fill="#afdcdf"/>
            <circle cx="4.121" cy="4.121" r="4.121" transform="translate(32.078 9.671)" fill="#afdcdf"/>
            <rect width="202.846" height="1.849" transform="translate(12.371 102.889)" fill="#afdcdf"/>
            <rect width="202.846" height="1.849" transform="translate(12.371 108.677)" fill="#afdcdf"/>
            <rect width="202.846" height="1.849" transform="translate(12.371 114.729)" fill="#afdcdf"/>
            <rect width="202.846" height="1.849" transform="translate(12.371 242.465)" fill="#afdcdf"/>
            <rect width="202.846" height="1.849" transform="translate(12.371 248.253)" fill="#afdcdf"/>
            <rect width="202.846" height="1.849" transform="translate(12.371 254.305)" fill="#afdcdf"/>
            <rect width="37.328" height="14.434" transform="translate(26.875 124.743)" fill="#afdcdf"/>
            <rect width="37.328" height="14.434" transform="translate(71.577 124.777)" fill="#afdcdf"/>
            <rect width="37.328" height="14.434" transform="translate(115.96 124.777)" fill="#afdcdf"/>
            <rect width="37.328" height="14.434" transform="translate(160.344 124.777)" fill="#afdcdf"/>
            <path d="M5142.18,408.272H4981.686c-1.672,0-3.028-1.632-3.028-3.646h0c0-2.013,1.355-3.646,3.028-3.646H5142.18c1.672,0,3.028,1.632,3.028,3.646h0C5145.208,406.64,5143.852,408.272,5142.18,408.272Z"
                  transform="translate(-4930.611 -390.359)" fill="#afdcdf"/>
        </g>
        <g transform="translate(182.558)">
            <path d="M4924.221,363.667v289.81h-97.8a15.992,15.992,0,0,1-15.994-15.993V379.66a15.992,15.992,0,0,1,15.994-15.993Z"
                  transform="translate(-4810.426 -363.667)" fill="#d2f1f3"/>
            <rect width="94.096" height="14.113" transform="translate(12.857 29.483)" fill="#99d5dd"/>
            <rect width="63.827" height="41.093" transform="translate(12.371 53.845)" fill="#99d5dd"/>
            <rect width="101.422" height="71.131" transform="translate(12.372 158.956)" fill="#99d5dd"/>
            <rect width="31.912" height="41.094" transform="translate(81.882 53.846)" fill="#99d5dd"/>
            <circle cx="4.121" cy="4.121" r="4.121" transform="translate(8.139 13.791) rotate(-45)" fill="#99d5dd"/>
            <circle cx="4.121" cy="4.121" r="4.121" transform="translate(20.125 16.855) rotate(-76.718)"
                    fill="#99d5dd"/>
            <path d="M4931.092,401.68a4.121,4.121,0,1,1-4.121-4.121A4.121,4.121,0,0,1,4931.092,401.68Z"
                  transform="translate(-4890.772 -387.889)" fill="#99d5dd"/>
            <rect width="101.422" height="1.851" transform="translate(12.372 102.887)" fill="#99d5dd"/>
            <rect width="101.422" height="1.851" transform="translate(12.372 108.675)" fill="#99d5dd"/>
            <rect width="101.422" height="1.848" transform="translate(12.372 114.729)" fill="#99d5dd"/>
            <rect width="101.422" height="1.848" transform="translate(12.372 242.464)" fill="#99d5dd"/>
            <rect width="101.422" height="1.848" transform="translate(12.372 248.252)" fill="#99d5dd"/>
            <rect width="101.422" height="1.851" transform="translate(12.372 254.303)" fill="#99d5dd"/>
            <rect width="37.328" height="14.434" transform="translate(26.875 124.742)" fill="#99d5dd"/>
            <rect width="37.328" height="14.434" transform="translate(71.577 124.776)" fill="#99d5dd"/>
            <path d="M5044.564,400.9v7.292h-62.722c-1.671,0-3.026-1.633-3.026-3.646a4.03,4.03,0,0,1,.888-2.576,2.773,2.773,0,0,1,2.139-1.07Z"
                  transform="translate(-4930.769 -390.273)" fill="#99d5dd"/>
        </g>
        <path d="M5488.648,707.4c-.1-2.628-1.125-3.433-3.294-3.926-36-8.179-100.691-47.086-101.518-47.05h0v-.109a5.666,5.666,0,0,0-2.676,1.146c-10.516,6.826-20.911,13.95-31.82,20.034-21.93,12.23-44.974,21.6-69.432,26.86-1.735.373-2.967.863-3.033,3.339-.54,20.089.615,39.911,4.744,59.587a214.281,214.281,0,0,0,6.889,25.31h.151l-.151.217a234.288,234.288,0,0,0,42.932,76.328,237.84,237.84,0,0,0,50.737,46.07V915.1q48.294-32.28,77.17-83.482a212.48,212.48,0,0,0,17.376-38.808h.072C5485.947,765.68,5489.725,737.153,5488.648,707.4Z"
              transform="translate(-4961.137 -572.814)" fill="#28348e" opacity="0.12"/>
        <path d="M5502.052,735.014c-.087-2.407-1.031-3.145-3.018-3.6-32.979-7.493-92.242-43.135-93-43.1h0v-.1a5.2,5.2,0,0,0-2.45,1.05c-9.633,6.253-19.157,12.78-29.15,18.353-20.09,11.2-41.2,19.789-63.605,24.606-1.59.341-2.718.791-2.779,3.059-.5,18.4.564,36.562,4.346,54.588a196.368,196.368,0,0,0,6.311,23.186h.138l-.138.2a214.629,214.629,0,0,0,39.329,69.923,217.888,217.888,0,0,0,46.48,42.2v-.1q44.241-29.571,70.695-76.477a194.627,194.627,0,0,0,15.918-35.551h.066C5499.578,788.406,5503.04,762.273,5502.052,735.014Z"
              transform="translate(-4983.424 -595.614)" fill="#45d"/>
        <g transform="translate(324.511 92.83)">
            <path d="M5403.584,689.834c-9.633,6.253-19.157,12.78-29.15,18.353-20.09,11.2-41.2,19.788-63.605,24.606-1.59.342-2.718.791-2.779,3.059-.5,18.4.564,36.562,4.346,54.587a196.365,196.365,0,0,0,6.311,23.186h.138l-.138.2a214.626,214.626,0,0,0,39.329,69.923,217.884,217.884,0,0,0,46.48,42.2v-.1c.188-.126.372-.254.56-.38V689.011A8.953,8.953,0,0,0,5403.584,689.834Z"
                  transform="translate(-5307.935 -689.011)" fill="#4454cf"/>
        </g>
    </g>
</svg>
