<svg xmlns="http://www.w3.org/2000/svg" width="255.658" height="177" viewBox="0 0 255.658 177">
    <g transform="translate(-91.92 -59.6)">
        <g transform="translate(103.786 59.6)">
            <path d="M524.533,244.343a1.819,1.819,0,1,1-1.818-1.819A1.82,1.82,0,0,1,524.533,244.343Zm-.9,0a.918.918,0,1,0-.917.918A.919.919,0,0,0,523.631,244.343Z"
                  transform="translate(-339.046 -156.256)" fill="#91a8f6"/>
            <g transform="translate(197.267 21.479)">
                <path d="M581.4,105.148H571.1a.451.451,0,1,0,0,.9h10.3a.451.451,0,1,0,0-.9Z"
                      transform="translate(-565.357 -105.147)"
                      fill="#91a8f6"/>
                <path d="M561.892,105.145h-2.013a.451.451,0,1,0,0,.9h2.013a.451.451,0,1,0,0-.9Z"
                      transform="translate(-559.428 -105.145)"
                      fill="#91a8f6"/>
                <path d="M570.634,112.255a.451.451,0,0,1-.451.451H568.9a.451.451,0,1,1,0-.9h1.288A.451.451,0,0,1,570.634,112.255Zm-3.542,0a.451.451,0,0,1-.451.451h-2.254a.451.451,0,0,1,0-.9h2.254A.451.451,0,0,1,567.092,112.255Zm-4.508,0a.451.451,0,0,1-.45.451H559.88a.451.451,0,0,1,0-.9h2.254A.451.451,0,0,1,562.585,112.255Z"
                      transform="translate(-559.429 -108.664)" fill="#91a8f6"/>
            </g>
            <g transform="translate(52.332 48.398)">
                <path d="M238.5,169.041a.451.451,0,0,0-.451.45v1.046a.451.451,0,0,0,.9,0v-1.046A.45.45,0,0,0,238.5,169.041Z"
                      transform="translate(-235.82 -165.826)" fill="#91a8f6"/>
                <path d="M234.823,166.816h-1.046a.451.451,0,0,0,0,.9h1.046a.451.451,0,0,0,0-.9Z"
                      transform="translate(-233.327 -164.65)"
                      fill="#91a8f6"/>
                <path d="M238.5,162.224a.451.451,0,0,0-.451.45v1.045a.451.451,0,0,0,.9,0v-1.045A.45.45,0,0,0,238.5,162.224Z"
                      transform="translate(-235.82 -162.224)" fill="#91a8f6"/>
                <path d="M242.043,166.664H241a.451.451,0,0,0,0,.9h1.046a.451.451,0,1,0,0-.9Z"
                      transform="translate(-237.142 -164.57)"
                      fill="#91a8f6"/>
            </g>
            <g transform="translate(160.556 19.175)">
                <path d="M478.9,107.076a.451.451,0,0,0-.451.451v1.045a.451.451,0,1,0,.9,0v-1.045A.45.45,0,0,0,478.9,107.076Z"
                      transform="translate(-476.221 -103.861)" fill="#91a8f6"/>
                <path d="M475.224,104.852h-1.045a.451.451,0,1,0,0,.9h1.045a.451.451,0,1,0,0-.9Z"
                      transform="translate(-473.728 -102.686)"
                      fill="#91a8f6"/>
                <path d="M478.9,100.259a.451.451,0,0,0-.451.451v1.045a.451.451,0,0,0,.9,0V100.71A.45.45,0,0,0,478.9,100.259Z"
                      transform="translate(-476.221 -100.259)" fill="#91a8f6"/>
                <path d="M482.444,104.7H481.4a.451.451,0,1,0,0,.9h1.046a.451.451,0,0,0,0-.9Z"
                      transform="translate(-477.542 -102.606)"
                      fill="#91a8f6"/>
            </g>
            <g transform="translate(107.44)">
                <path d="M378.247,59.6h-10.3a.451.451,0,0,0,0,.9h10.3a.451.451,0,1,0,0-.9Z"
                      transform="translate(-362.202 -59.602)"
                      fill="#91a8f6"/>
                <path d="M358.736,59.6h-2.013a.451.451,0,1,0,0,.9h2.013a.451.451,0,1,0,0-.9Z"
                      transform="translate(-356.272 -59.6)"
                      fill="#91a8f6"/>
                <path d="M367.478,66.711a.45.45,0,0,1-.451.45h-1.288a.451.451,0,1,1,0-.9h1.288A.451.451,0,0,1,367.478,66.711Zm-3.542,0a.45.45,0,0,1-.451.45h-2.254a.451.451,0,1,1,0-.9h2.254A.451.451,0,0,1,363.936,66.711Zm-4.508,0a.45.45,0,0,1-.45.45h-2.254a.451.451,0,1,1,0-.9h2.254A.451.451,0,0,1,359.428,66.711Z"
                      transform="translate(-356.273 -63.119)" fill="#91a8f6"/>
            </g>
            <path d="M625.127,157.951a1.592,1.592,0,1,0,1.592-1.592A1.592,1.592,0,0,0,625.127,157.951Z"
                  transform="translate(-396.876 -110.727)" fill="#91a8f6"/>
            <g transform="translate(25.203 124.306)">
                <path d="M182.2,324.083h10.3a.451.451,0,1,0,0-.9H182.2a.451.451,0,1,0,0,.9Z"
                      transform="translate(-176.454 -323.182)"
                      fill="#91a8f6"/>
                <path d="M170.974,324.087h2.014a.451.451,0,0,0,0-.9h-2.014a.451.451,0,0,0,0,.9Z"
                      transform="translate(-170.524 -323.184)"
                      fill="#91a8f6"/>
            </g>
            <path d="M590.452,340.636s.615,4.39-4.513,4.289c0,0,4.4.045,4.289,4.166,0,0,.4-3.241,4.438-3.966C594.667,345.125,591.251,345.909,590.452,340.636Z"
                  transform="translate(-376.17 -208.098)" fill="#91a8f6"/>
            <path d="M642.37,209.323s.615,4.391-4.514,4.289c0,0,4.406.045,4.29,4.165,0,0,.4-3.241,4.439-3.965C646.584,213.812,643.169,214.6,642.37,209.323Z"
                  transform="translate(-403.602 -138.713)" fill="#91a8f6"/>
            <path d="M297.465,83.28s.615,4.39-4.513,4.289c0,0,4.405.045,4.29,4.165,0,0,.4-3.241,4.439-3.965C301.68,87.769,298.264,88.553,297.465,83.28Z"
                  transform="translate(-213.83 -72.112)" fill="#91a8f6"/>
            <path d="M203.853,108.991s.615,4.39-4.513,4.289c0,0,4.405.045,4.289,4.165,0,0,.4-3.241,4.439-3.965C208.068,113.48,204.652,114.264,203.853,108.991Z"
                  transform="translate(-160.547 -85.698)" fill="#91a8f6"/>
            <path d="M263.887,69.2s.215,1.53-1.572,1.495c0,0,1.535.016,1.494,1.452a1.743,1.743,0,0,1,1.547-1.383S264.166,71.037,263.887,69.2Z"
                  transform="translate(-196.905 -64.673)" fill="#91a8f6"/>
            <path d="M434.178,181.07s.215,1.53-1.573,1.495c0,0,1.535.016,1.495,1.452a1.743,1.743,0,0,1,1.547-1.382S434.456,182.907,434.178,181.07Z"
                  transform="translate(-290.5 -123.784)" fill="#91a8f6"/>
            <path d="M118.655,236.533s.214,1.53-1.573,1.495c0,0,1.536.016,1.495,1.452a1.742,1.742,0,0,1,1.547-1.382S118.933,238.37,118.655,236.533Z"
                  transform="translate(-117.082 -153.091)" fill="#91a8f6"/>
            <path d="M401.8,324.014s.214,1.53-1.573,1.495c0,0,1.536.016,1.5,1.452a1.742,1.742,0,0,1,1.547-1.382S402.078,325.851,401.8,324.014Z"
                  transform="translate(-272.704 -199.315)" fill="#91a8f6"/>
            <g transform="translate(59.091 91.862)">
                <path d="M260.909,262.558h-10a2.321,2.321,0,0,1-.074-4.641,3.592,3.592,0,0,1,6.6-1.9,2.605,2.605,0,0,1,2.893,1.9h.585a2.321,2.321,0,1,1,0,4.642Zm-10-3.955a1.634,1.634,0,1,0,0,3.268h10a1.634,1.634,0,0,0,0-3.268h-1.155l-.046-.29a1.92,1.92,0,0,0-2.368-1.581l-.253.061-.126-.227a2.905,2.905,0,0,0-5.444,1.412c0,.085.006.168.013.251l.032.373Z"
                      transform="translate(-248.584 -254.387)" fill="#91a8f6"/>
            </g>
            <g transform="translate(229.145 7.197)">
                <path d="M639.348,83.033h-10a2.321,2.321,0,0,1-.074-4.641,3.592,3.592,0,0,1,6.6-1.9,2.606,2.606,0,0,1,2.893,1.9h.585a2.321,2.321,0,1,1,0,4.642Zm-10-3.955a1.634,1.634,0,0,0,0,3.268h10a1.634,1.634,0,1,0,0-3.268h-1.154l-.046-.289a1.921,1.921,0,0,0-2.368-1.581l-.253.06-.127-.227a2.905,2.905,0,0,0-5.444,1.413c0,.085.006.168.013.251l.032.373Z"
                      transform="translate(-627.023 -74.861)" fill="#91a8f6"/>
            </g>
            <g transform="translate(81.547 32.74)">
                <path d="M310.883,137.194h-10a2.321,2.321,0,0,1-.074-4.641,3.592,3.592,0,0,1,6.6-1.9,2.607,2.607,0,0,1,2.893,1.9h.585a2.321,2.321,0,1,1,0,4.642Zm-10-3.955a1.634,1.634,0,0,0,0,3.268h10a1.634,1.634,0,0,0,0-3.268h-1.154l-.046-.29a1.921,1.921,0,0,0-2.368-1.581l-.253.06-.127-.227a2.905,2.905,0,0,0-5.444,1.412c0,.085.006.169.013.251l.032.373Z"
                      transform="translate(-298.558 -129.023)" fill="#91a8f6"/>
            </g>
        </g>
        <g transform="translate(170.555 141.616)">
            <g transform="translate(40.527 46.536)">
                <path d="M372.415,375.11h0a8.086,8.086,0,0,1-9.982-5.579l-6.415-22.673a8.085,8.085,0,0,1,5.579-9.981h0a8.085,8.085,0,0,1,9.981,5.579l6.416,22.673A8.086,8.086,0,0,1,372.415,375.11Z"
                      transform="translate(-355.711 -334.502)" fill="#93c7ea"/>
                <path d="M369,383.511h0a8.086,8.086,0,0,1-.111-11.434l16.5-16.823a8.086,8.086,0,0,1,11.434-.111h0a8.086,8.086,0,0,1,.111,11.434l-16.5,16.823A8.086,8.086,0,0,1,369,383.511Z"
                      transform="translate(-361.452 -343.094)" fill="#93c7ea"/>
                <g transform="translate(26.804)">
                    <path d="M426.791,345.842a7.084,7.084,0,1,1-9.824-1.97A7.084,7.084,0,0,1,426.791,345.842Z"
                          transform="translate(-413.214 -337.732)" fill="#ff8383"/>
                    <path d="M415.483,348.736h0a1.847,1.847,0,0,1-2.249-1.327l-.628-2.438a1.846,1.846,0,0,1,1.327-2.248h0a1.846,1.846,0,0,1,2.249,1.327l.628,2.438A1.846,1.846,0,0,1,415.483,348.736Z"
                          transform="translate(-412.547 -337.722)" fill="#ff8383"/>
                    <path d="M426.882,334.806l-2.51,6.355a1.916,1.916,0,0,1-2.486,1.079h0a1.917,1.917,0,0,1-1.079-2.487l2.51-6.355a1.917,1.917,0,0,1,2.487-1.078h0A1.916,1.916,0,0,1,426.882,334.806Z"
                          transform="translate(-416.84 -332.185)" fill="#ff8383"/>
                    <path d="M435.751,337.466l-3.031,6.123a1.917,1.917,0,0,1-2.567.868h0a1.917,1.917,0,0,1-.867-2.568l3.031-6.123a1.917,1.917,0,0,1,2.568-.867h0A1.916,1.916,0,0,1,435.751,337.466Z"
                          transform="translate(-421.286 -333.513)" fill="#ff8383"/>
                    <path d="M441.621,344.318l-4.233,5.363A1.916,1.916,0,0,1,434.7,350h0a1.916,1.916,0,0,1-.317-2.691l4.233-5.363a1.916,1.916,0,0,1,2.691-.317h0A1.916,1.916,0,0,1,441.621,344.318Z"
                          transform="translate(-423.866 -336.956)" fill="#ff8383"/>
                </g>
            </g>
            <g transform="translate(26.206)">
                <g transform="translate(7.557 22.255)">
                    <path d="M347.334,299.982l-2.749-.108a3.348,3.348,0,0,1-3.214-3.476l.575-14.609,9.438.371-.574,14.609A3.347,3.347,0,0,1,347.334,299.982Z"
                          transform="translate(-341.368 -281.275)" fill="#ff8383"/>
                    <path d="M351.862,281.071l-9.438-.371-.146,3.707a6.212,6.212,0,0,0,6.441,6.558,6.425,6.425,0,0,0,.678-.085,6.621,6.621,0,0,0,2.111-.772Z"
                          transform="translate(-341.846 -280.7)" fill="#d15e79"/>
                </g>
                <path d="M347.656,245.662c2.438,4.433-.383,10.123-6.3,12.71s-12.694,1.09-15.132-3.343.384-10.123,6.3-12.71S345.218,241.229,347.656,245.662Z"
                      transform="translate(-325.344 -237.494)" fill="#1b2a67"/>
                <path d="M363.756,249.142c1.618,3.48-1.526,7.6-7.021,9.2s-11.261.08-12.879-3.4,1.526-7.6,7.022-9.2S362.139,245.662,363.756,249.142Z"
                      transform="translate(-334.901 -239.636)" fill="#1b2a67"/>
                <path d="M349.814,234.329c3.255,2.031,2.872,7.2-.856,11.542s-9.391,6.217-12.646,4.186-2.872-7.2.856-11.542S346.558,232.3,349.814,234.329Z"
                      transform="translate(-329.971 -233.509)" fill="#1b2a67"/>
                <path d="M355.772,262.808c.929,5.207-1.8,10.048-6.086,10.814h0c-4.289.765-8.52-2.835-9.449-8.042l-.731-4.1c-.93-5.206,1.795-10.048,6.084-10.814h0c4.29-.765,8.522,2.835,9.45,8.042Z"
                      transform="translate(-332.731 -242.522)" fill="#ff8383"/>
                <path d="M341.926,248.22c-2.373-2.148-6.5-1.109-9.223,2.32s-3,7.948-.631,10.1,6.5,1.109,9.223-2.32S344.3,250.367,341.926,248.22Z"
                      transform="translate(-328.048 -240.692)" fill="#1b2a67"/>
                <g transform="translate(11.171 15.776)">
                    <g transform="translate(3.839 2.091)">
                        <g transform="translate(0 0.002)">
                            <path d="M357.605,272.66a.43.43,0,0,1-.247-.783,2.792,2.792,0,0,1,2.876-.123.432.432,0,0,1-.435.746,1.915,1.915,0,0,0-1.952.086A.425.425,0,0,1,357.605,272.66Z"
                                  transform="translate(-357.174 -271.4)" fill="#86294e"/>
                        </g>
                        <g transform="translate(5.03)">
                            <path d="M370.684,272.659a.426.426,0,0,1-.243-.076h0a1.915,1.915,0,0,0-1.952-.086.431.431,0,0,1-.434-.746,2.776,2.776,0,0,1,2.876.123.431.431,0,0,1-.247.785Z"
                                  transform="translate(-367.84 -271.395)" fill="#86294e"/>
                        </g>
                        <g transform="translate(1.479 1.955)">
                            <path d="M361.208,276.009a.45.45,0,1,1-.432-.467A.45.45,0,0,1,361.208,276.009Z"
                                  transform="translate(-360.309 -275.541)" fill="#86294e"/>
                        </g>
                        <path d="M370.359,276.368a.45.45,0,1,1-.432-.468A.45.45,0,0,1,370.359,276.368Z"
                              transform="translate(-363.666 -273.776)" fill="#86294e"/>
                    </g>
                    <g transform="translate(8.039 0.735)">
                        <path d="M369.623,275.6c-.048,0-.1,0-.144,0a3.482,3.482,0,1,1,.144,0Zm-.008-6.481A2.942,2.942,0,0,0,369.5,275a2.987,2.987,0,0,0,2.113-.78,2.941,2.941,0,0,0-1.881-5.1Z"
                              transform="translate(-366.079 -268.519)" fill="#ffd2d4"/>
                    </g>
                    <path d="M353.011,274.912c-.054,0-.107,0-.16,0a3.974,3.974,0,0,1-2.542-6.889,3.975,3.975,0,0,1,5.616.22,3.975,3.975,0,0,1-2.914,6.673ZM353,267.635a3.3,3.3,0,0,0-3.3,3.172h0a3.307,3.307,0,0,0,3.171,3.43,3.3,3.3,0,1,0,.259-6.6C353.092,267.635,353.047,267.635,353,267.635Z"
                          transform="translate(-349.032 -266.962)" fill="#ffd2d4"/>
                    <g transform="translate(6.968 3.98)">
                        <path d="M364.1,276.017l1.461.058a.307.307,0,0,0,.32-.3h0a.308.308,0,0,0-.3-.32l-1.462-.057a.307.307,0,0,0-.319.3h0A.307.307,0,0,0,364.1,276.017Z"
                              transform="translate(-363.806 -275.402)" fill="#ffd2d4"/>
                    </g>
                    <g transform="translate(7.676 5.847)">
                        <path d="M367.823,280.181a1.394,1.394,0,0,1-1.332,1.045c-.694.064-1.222-.3-1.18-.814a1.393,1.393,0,0,1,1.332-1.046C367.336,279.3,367.865,279.667,367.823,280.181Z"
                              transform="translate(-365.308 -279.359)" fill="#86294e"/>
                    </g>
                    <g transform="translate(5.482 8.925)">
                        <path d="M365.071,286.394a2.255,2.255,0,0,1-2.423,2.066,2.286,2.286,0,0,1-1.99-2.522A11.184,11.184,0,0,1,365.071,286.394Z"
                              transform="translate(-360.657 -285.888)" fill="#86294e"/>
                        <path d="M363.359,287.139c-1.021-.118-1.65-.468-1.71-1.235a11.1,11.1,0,0,1,3.724.414C365.2,287.008,364.36,287.254,363.359,287.139Z"
                              transform="translate(-361.181 -285.886)" fill="#ffd2d4"/>
                    </g>
                </g>
            </g>
            <g transform="translate(14.379 32.444)">
                <path d="M332.107,367.019l-24.679.7a7.455,7.455,0,0,1-7.157-7.742l1.559-41.3a5.133,5.133,0,0,1,3.571-4.689l18.4-5.858,14.707,7.049a5.133,5.133,0,0,1,2.91,4.831l-1.568,39.859A7.455,7.455,0,0,1,332.107,367.019Z"
                      transform="translate(-300.266 -305.38)" fill="#93c7ea"/>
                <path d="M377.093,333.313c.085,4.306.035,8.608-.035,12.908s-.21,8.6-.363,12.895c-.183,4.3-.368,8.592-.648,12.884a11.492,11.492,0,0,1-.51,3.287,7.484,7.484,0,0,1-7.753,5.042,7.486,7.486,0,0,0,5.549-2.6,7,7,0,0,0,1.463-2.677,10.657,10.657,0,0,0,.3-3.085c.058-4.3.21-8.6.366-12.9.184-4.3.37-8.591.651-12.884S376.67,337.6,377.093,333.313Z"
                      transform="translate(-335.941 -318.689)" fill="#6eacce"/>
                <path d="M3.787,0H9.561a3.787,3.787,0,0,1,3.787,3.787V9.719a0,0,0,0,1,0,0H0a0,0,0,0,1,0,0V3.787A3.787,3.787,0,0,1,3.787,0Z"
                      transform="translate(17.595 0) rotate(3.69)" fill="#93c7ea"/>
            </g>
            <g transform="translate(0 44.662)">
                <path d="M274.764,365.527h0a8.085,8.085,0,0,1-4.366-10.568l9.037-21.761A8.086,8.086,0,0,1,290,328.832h0a8.086,8.086,0,0,1,4.366,10.568l-9.038,21.761A8.085,8.085,0,0,1,274.764,365.527Z"
                      transform="translate(-269.777 -328.212)" fill="#93c7ea"/>
                <path d="M307.431,329.527a7.951,7.951,0,0,1,3.735,2.624,8.357,8.357,0,0,1,1.7,4.367,9.157,9.157,0,0,1-.878,4.632l-1.707,4.2c-1.172,2.785-2.346,5.57-3.608,8.317l-1.9,4.12c-.674,1.356-1.309,2.728-2.017,4.07.45-1.448.974-2.867,1.459-4.3L305.8,353.3c1.056-2.833,2.2-5.63,3.347-8.426l1.769-4.173a11.81,11.81,0,0,0,.765-2.031,7.887,7.887,0,0,0,.244-2.1A8.214,8.214,0,0,0,307.431,329.527Z"
                      transform="translate(-287.205 -328.907)" fill="#6eacce"/>
                <g transform="translate(0.505 15.321)">
                    <g transform="translate(35.372)">
                        <g transform="translate(0 2.864)">
                            <path d="M352.592,374.5l-4.117-.265a2.808,2.808,0,0,1-2.618-2.98l.12-1.856a2.808,2.808,0,0,1,2.98-2.619l4.117.266Zm-3.755-5.875a.958.958,0,0,0-1.016.893l-.12,1.856a.959.959,0,0,0,.893,1.017l2.273.146.243-3.765Z"
                                  transform="translate(-345.85 -366.773)" fill="#86294e"/>
                        </g>
                        <g transform="translate(3.513)">
                            <path d="M360.532,377.21l-3.561-.23a3.924,3.924,0,0,1-3.663-4.168l.739-11.448c.083-1.277,11.474-.542,11.392.735l-.738,11.448A3.924,3.924,0,0,1,360.532,377.21Z"
                                  transform="translate(-353.299 -360.699)" fill="#d15e79"/>
                            <path d="M366.166,363c-.03.46-2.145.7-4.724.532s-4.646-.674-4.617-1.134,2.145-.7,4.724-.531S366.2,362.537,366.166,363Z"
                                  transform="translate(-355.163 -361.286)" fill="#86294e"/>
                        </g>
                    </g>
                    <path d="M270.849,383.006h0a8.085,8.085,0,0,1,8.212-7.957l23.56.372a8.085,8.085,0,0,1,7.956,8.212h0a8.085,8.085,0,0,1-8.212,7.957l-23.56-.372A8.085,8.085,0,0,1,270.849,383.006Z"
                          transform="translate(-270.848 -368.281)" fill="#93c7ea"/>
                    <path d="M288.263,374.64c3.025-.207,6.048-.278,9.071-.329s6.045-.033,9.067,0l4.531.1a9.18,9.18,0,0,1,4.6,1.039,8.371,8.371,0,0,1,3.33,3.3,7.953,7.953,0,0,1,.918,4.472,8.215,8.215,0,0,0-4.674-6.925,7.918,7.918,0,0,0-2.025-.613,11.807,11.807,0,0,0-2.168-.106l-4.533-.039c-3.021-.063-6.042-.127-9.061-.287S291.28,374.941,288.263,374.64Z"
                          transform="translate(-280.05 -367.872)" fill="#6eacce"/>
                    <g transform="translate(33.723 4.711)">
                        <path d="M356.493,380.91a7.084,7.084,0,1,1-7.71-6.4A7.084,7.084,0,0,1,356.493,380.91Z"
                              transform="translate(-342.354 -372.693)" fill="#ff8383"/>
                        <path d="M348.331,376.167h0a1.694,1.694,0,0,1-1.046-2.155l.755-2.183a1.694,1.694,0,0,1,2.155-1.047h0a1.693,1.693,0,0,1,1.047,2.155l-.755,2.183A1.694,1.694,0,0,1,348.331,376.167Z"
                              transform="translate(-344.91 -370.688)" fill="#ff8383"/>
                        <path d="M369.159,380.31l-6.287.585a1.772,1.772,0,0,1-1.927-1.6h0a1.771,1.771,0,0,1,1.6-1.927l6.287-.585a1.772,1.772,0,0,1,1.928,1.6h0A1.772,1.772,0,0,1,369.159,380.31Z"
                              transform="translate(-352.173 -373.905)" fill="#ff8383"/>
                        <path d="M366.631,392.109l-6.3-.406a1.77,1.77,0,0,1-1.653-1.881h0a1.771,1.771,0,0,1,1.881-1.653l6.3.406a1.77,1.77,0,0,1,1.653,1.881h0A1.771,1.771,0,0,1,366.631,392.109Z"
                              transform="translate(-350.977 -379.922)" fill="#ff8383"/>
                    </g>
                </g>
            </g>
        </g>
        <g transform="translate(202.576 181.231)">
            <g transform="translate(73.631)">
                <g transform="translate(5.024 7.25)">
                    <path d="M510.589,341.416a.739.739,0,0,1-.522-1.261l7.054-7.056a.738.738,0,0,1,1.044,1.045l-7.054,7.056A.735.735,0,0,1,510.589,341.416Z"
                          transform="translate(-509.85 -332.883)" fill="#445eea"/>
                </g>
                <path d="M499.938,328.964a.739.739,0,0,1-.739-.739v-9.976a.739.739,0,0,1,1.478,0v9.976A.739.739,0,0,1,499.938,328.964Z"
                      transform="translate(-499.198 -317.51)" fill="#445eea"/>
                <g transform="translate(9.351 19.329)">
                    <path d="M529.744,359.973h-9.978a.739.739,0,1,1,0-1.478h9.978a.739.739,0,0,1,0,1.478Z"
                          transform="translate(-519.027 -358.495)" fill="#445eea"/>
                </g>
            </g>
            <g transform="translate(0 18.888)">
                <path d="M350.394,423.978h61.044c1.7,0,2.227-1.38,2.227-3.083H347.31A3.083,3.083,0,0,0,350.394,423.978Z"
                      transform="translate(-345.31 -391.026)" fill="#6eacce"/>
                <path d="M344.613,420.895h21.638a3.312,3.312,0,0,1-3.5,3.083H344.521C342.526,423.949,342.618,420.895,344.613,420.895Z"
                      transform="translate(-343.07 -391.026)" fill="#6eacce"/>
                <g transform="translate(21.821)">
                    <path d="M392.05,388.326h43.824a2.709,2.709,0,0,0,2.661-2.2l5.907-25.346a2.71,2.71,0,0,0-2.662-3.216H397.958a2.71,2.71,0,0,0-2.663,2.2l-5.906,25.345A2.711,2.711,0,0,0,392.05,388.326Z"
                          transform="translate(-389.34 -357.56)" fill="#e0eef7"/>
                    <path d="M395.294,360.338a1.469,1.469,0,1,1,2.162,1.011L391.55,386.7a1.468,1.468,0,1,1-2.162-1.012Z"
                          transform="translate(-389.34 -358.133)" fill="#6eacce"/>
                    <path d="M449.366,391.053h-7.187a2.669,2.669,0,0,1-2.669-2.669h0a2.669,2.669,0,0,1,2.669-2.669h7.187a2.669,2.669,0,0,1,2.669,2.669h0A2.669,2.669,0,0,1,449.366,391.053Z"
                          transform="translate(-415.85 -372.436)" fill="#fff"/>
                </g>
                <g transform="translate(5.15 29.179)">
                    <path d="M356.916,420.971H354.76a.77.77,0,0,1-.77-.77h0a.77.77,0,0,1,.77-.77h2.156a.77.77,0,0,1,.77.77h0A.77.77,0,0,1,356.916,420.971Z"
                          transform="translate(-353.99 -419.431)" fill="#6eacce"/>
                    <path d="M365.842,420.971h-2.156a.77.77,0,0,1-.77-.77h0a.77.77,0,0,1,.77-.77h2.156a.77.77,0,0,1,.77.77h0A.77.77,0,0,1,365.842,420.971Z"
                          transform="translate(-358.706 -419.431)" fill="#6eacce"/>
                    <path d="M374.769,420.971h-2.156a.769.769,0,0,1-.77-.77h0a.77.77,0,0,1,.77-.77h2.156a.77.77,0,0,1,.77.77h0A.77.77,0,0,1,374.769,420.971Z"
                          transform="translate(-363.423 -419.431)" fill="#6eacce"/>
                    <path d="M383.695,420.971h-2.156a.769.769,0,0,1-.77-.77h0a.77.77,0,0,1,.77-.77h2.156a.77.77,0,0,1,.77.77h0A.769.769,0,0,1,383.695,420.971Z"
                          transform="translate(-368.14 -419.431)" fill="#6eacce"/>
                </g>
            </g>
        </g>
        <path d="M348.615,430.774h-184.4a1.848,1.848,0,0,1-1.848-1.848h0a1.848,1.848,0,0,1,1.848-1.848h184.4a1.848,1.848,0,0,1,1.848,1.848h0A1.848,1.848,0,0,1,348.615,430.774Z"
              transform="translate(-37.225 -194.174)" fill="#1b2a67"/>
        <g transform="translate(91.92 75.065)">
            <g transform="translate(0 9.277)">
                <g transform="translate(81.405 28.103)">
                    <path d="M285.44,196.525l4.835,5.186,36.857-15.373Z" transform="translate(-275.58 -179.413)"
                          fill="#445eea"/>
                    <path d="M276.112,171.655l-3.64,5.492,2.461,5.382-5.522.939-4.879,10.712,52.735-15.958Z"
                          transform="translate(-264.532 -171.655)" fill="#91a8f6"/>
                    <path d="M283.828,188.682l-2.461-5.382,28.564,1.336Z" transform="translate(-273.428 -177.808)"
                          fill="#445eea"/>
                </g>
                <g transform="translate(41.742 47.433)">
                    <path d="M227.718,257.41c-.405,0-.812,0-1.217-.007a.739.739,0,0,1-.731-.747.722.722,0,0,1,.747-.73c1.915.021,3.814-.009,5.9-.1h.032a.739.739,0,0,1,.031,1.478C230.809,257.377,229.251,257.41,227.718,257.41Zm-7.14-.291a.6.6,0,0,1-.066,0c-2.035-.174-4.039-.436-5.953-.776a.74.74,0,0,1-.6-.858.752.752,0,0,1,.858-.6c1.87.333,3.828.588,5.821.759a.739.739,0,0,1-.062,1.475Zm-11.666-2.133a.713.713,0,0,1-.216-.034,42.779,42.779,0,0,1-5.634-2.165.739.739,0,1,1,.628-1.338,41.494,41.494,0,0,0,5.439,2.091.74.74,0,0,1-.217,1.446Zm-10.705-5.043a.736.736,0,0,1-.409-.124,39.206,39.206,0,0,1-4.756-3.736.739.739,0,1,1,1-1.088,37.787,37.787,0,0,0,4.576,3.594.739.739,0,0,1-.411,1.354Zm-8.711-8a.742.742,0,0,1-.579-.278,39.527,39.527,0,0,1-3.393-5.009.74.74,0,0,1,1.286-.731,37.969,37.969,0,0,0,3.265,4.819.738.738,0,0,1-.579,1.2Zm-5.854-10.282a.74.74,0,0,1-.691-.479,36.234,36.234,0,0,1-1.662-5.825.739.739,0,0,1,1.451-.284,34.74,34.74,0,0,0,1.594,5.588.74.74,0,0,1-.692,1Zm-2.358-11.6a.738.738,0,0,1-.736-.692c-.077-1.208-.116-2.48-.116-3.778v-.3q0-.964.035-1.931a.738.738,0,0,1,.739-.714h.024a.74.74,0,0,1,.715.763c-.021.631-.033,1.26-.035,1.885v.3c0,1.268.038,2.508.113,3.684a.738.738,0,0,1-.69.785Z"
                          transform="translate(-180.431 -212.643)" fill="#445eea"/>
                </g>
                <path d="M140.729,155.192q-1.693,0-3.331-.041a.739.739,0,0,1,.019-1.478h.019q2.862.072,5.9.016a.7.7,0,0,1,.754.724.738.738,0,0,1-.724.753Q142.033,155.192,140.729,155.192Zm8.561-.248a.739.739,0,0,1-.04-1.476c1.912-.108,3.9-.251,5.9-.428a.739.739,0,1,1,.13,1.472c-2.02.178-4.02.324-5.949.431Zm-17.8-.094h-.059c-2.057-.16-4.059-.379-5.951-.65a.739.739,0,0,1-.627-.836.75.75,0,0,1,.837-.627c1.86.266,3.831.481,5.857.638a.739.739,0,0,1-.057,1.476Zm29.637-.944a.739.739,0,0,1-.084-1.473q2.881-.337,5.872-.763a.739.739,0,0,1,.209,1.463q-3.013.43-5.91.768A.673.673,0,0,1,161.123,153.906Zm-41.386-.758a.739.739,0,0,1-.163-.018c-1.429-.321-2.823-.682-4.14-1.074q-.84-.251-1.654-.521a.739.739,0,1,1,.465-1.4q.792.262,1.611.507c1.286.383,2.646.735,4.041,1.048a.74.74,0,0,1-.16,1.462Zm-11.228-3.8a.731.731,0,0,1-.323-.075,35.962,35.962,0,0,1-5.218-3.075.739.739,0,1,1,.859-1.2,34.537,34.537,0,0,0,5,2.948.74.74,0,0,1-.322,1.406Zm25.447-.661a.739.739,0,0,1-.739-.739v-.263c0-1.864-.075-3.757-.222-5.63a.74.74,0,0,1,1.475-.116c.149,1.91.225,3.843.225,5.745v.263A.739.739,0,0,1,133.957,148.69Zm-35-6.269a.736.736,0,0,1-.546-.241,25.722,25.722,0,0,1-3.553-4.956.74.74,0,0,1,1.3-.712,24.187,24.187,0,0,0,3.348,4.672.738.738,0,0,1-.546,1.237ZM133,136.836a.739.739,0,0,1-.728-.614,50.36,50.36,0,0,0-1.305-5.713.739.739,0,1,1,1.417-.416,51.932,51.932,0,0,1,1.346,5.879.741.741,0,0,1-.6.855A.773.773,0,0,1,133,136.836Zm-39.72-4.723a.739.739,0,0,1-.713-.542q-.137-.5-.257-1a14.307,14.307,0,0,1-.395-3.276,12.6,12.6,0,0,1,.142-1.9.739.739,0,0,1,1.461.221,11.269,11.269,0,0,0-.125,1.675,12.834,12.834,0,0,0,.357,2.936c.075.32.156.638.242.95a.738.738,0,0,1-.515.91A.752.752,0,0,1,93.285,132.113Zm36.294-6.629a.74.74,0,0,1-.667-.42,25.1,25.1,0,0,0-3.033-4.892.739.739,0,1,1,1.153-.926,26.629,26.629,0,0,1,3.214,5.178.741.741,0,0,1-.666,1.06Zm-34.459-4.634a.731.731,0,0,1-.448-.15.74.74,0,0,1-.141-1.036,16.753,16.753,0,0,1,4.629-4.09.739.739,0,1,1,.772,1.261,15.263,15.263,0,0,0-4.225,3.724A.737.737,0,0,1,95.119,120.851Zm26.982-4.4a.737.737,0,0,1-.4-.12,16.684,16.684,0,0,0-5.181-2.242.74.74,0,0,1,.354-1.437,18.207,18.207,0,0,1,5.638,2.443.739.739,0,0,1-.407,1.357Zm-17.126-1.884a.739.739,0,0,1-.209-1.448,27.865,27.865,0,0,1,5.811-1.051l.223-.007a.787.787,0,0,1,.753.724.738.738,0,0,1-.724.753l-.161.006a26.342,26.342,0,0,0-5.483.992A.759.759,0,0,1,104.975,114.571Z"
                      transform="translate(-91.92 -112.065)" fill="#445eea"/>
            </g>
            <g transform="translate(137.7 16.816)">
                <g transform="translate(32.932)">
                    <path d="M486.731,128.051h39.512a8.944,8.944,0,0,1,8.944,8.943v20.38a8.943,8.943,0,0,1-8.944,8.943H500.406l-9.293,8.2v-8.2h-4.381a8.943,8.943,0,0,1-8.944-8.943v-20.38A8.944,8.944,0,0,1,486.731,128.051Z"
                          transform="translate(-477.788 -128.051)" fill="#445eea"/>
                    <g transform="translate(13.571 10.371)">
                        <path d="M507.685,152.283H535.7a1.121,1.121,0,0,0,0-2.242H507.685a1.121,1.121,0,0,0,0,2.242Z"
                              transform="translate(-506.564 -150.041)" fill="#91a8f6"/>
                        <g transform="translate(0 7.471)">
                            <path d="M507.685,168.125H535.7a1.121,1.121,0,0,0,0-2.242H507.685a1.121,1.121,0,0,0,0,2.242Z"
                                  transform="translate(-506.564 -165.883)" fill="#91a8f6"/>
                        </g>
                        <g transform="translate(23.907 14.942)">
                            <path d="M558.379,183.966h4.109a1.121,1.121,0,0,0,0-2.242h-4.109a1.121,1.121,0,0,0,0,2.242Z"
                                  transform="translate(-557.258 -181.724)" fill="#91a8f6"/>
                        </g>
                        <g transform="translate(14.568 14.942)">
                            <path d="M538.576,183.966h4.109a1.121,1.121,0,0,0,0-2.242h-4.109a1.121,1.121,0,0,0,0,2.242Z"
                                  transform="translate(-537.455 -181.724)" fill="#91a8f6"/>
                        </g>
                        <g transform="translate(0 14.942)">
                            <path d="M507.685,183.966h9.339a1.121,1.121,0,0,0,0-2.242h-9.339a1.121,1.121,0,0,0,0,2.242Z"
                                  transform="translate(-506.564 -181.724)" fill="#91a8f6"/>
                        </g>
                    </g>
                </g>
                <g transform="translate(0 40.699)">
                    <path d="M444.836,214.35H414.59a5.385,5.385,0,0,0-5.386,5.386v17.441a5.382,5.382,0,0,0,4.991,5.366l-6.237,10.22,16.437-10.2h20.44a5.386,5.386,0,0,0,5.386-5.386V219.736A5.386,5.386,0,0,0,444.836,214.35Z"
                          transform="translate(-407.959 -214.35)" fill="#91a8f6"/>
                    <g transform="translate(13.29 6.294)">
                        <path d="M453.656,231.276a3.581,3.581,0,1,1-3.581-3.581A3.581,3.581,0,0,1,453.656,231.276Z"
                              transform="translate(-441.611 -227.695)" fill="#445eea" stroke="#445eea"
                              stroke-linecap="round"
                              stroke-linejoin="round" stroke-width="2.761"/>
                        <path d="M453.068,254.749H436.14a5.425,5.425,0,0,1,5.426-5.425h6.076a5.426,5.426,0,0,1,5.426,5.425Z"
                              transform="translate(-436.14 -239.124)" fill="#445eea" stroke="#445eea"
                              stroke-linecap="round"
                              stroke-linejoin="round" stroke-width="2.761"/>
                    </g>
                </g>
            </g>
            <g transform="translate(123.463 0)">
                <path d="M392.375,121.543a14.808,14.808,0,0,1-2.98-.3.74.74,0,0,1-.575-.873.751.751,0,0,1,.874-.575,13.362,13.362,0,0,0,4.641.129.74.74,0,1,1,.218,1.463A14.909,14.909,0,0,1,392.375,121.543Zm6.71-1.727a.74.74,0,0,1-.36-1.387,13.132,13.132,0,0,0,3.6-2.928.739.739,0,0,1,1.119.965,14.652,14.652,0,0,1-4,3.258A.745.745,0,0,1,399.086,119.817Zm-14.09-.4a.733.733,0,0,1-.392-.113,14.645,14.645,0,0,1-3.817-3.475.739.739,0,0,1,1.172-.9,13.2,13.2,0,0,0,3.431,3.126A.739.739,0,0,1,385,119.42ZM405.38,112.5a.742.742,0,0,1-.693-1,13.088,13.088,0,0,0,.817-4.567.739.739,0,0,1,1.478,0,14.557,14.557,0,0,1-.909,5.082A.741.741,0,0,1,405.38,112.5Zm-26.258-.734a.738.738,0,0,1-.706-.522,14.623,14.623,0,0,1-.646-4.307c0-.275.007-.548.023-.818a.756.756,0,0,1,.78-.7.738.738,0,0,1,.7.78c-.013.241-.02.487-.02.732a13.207,13.207,0,0,0,.581,3.873.739.739,0,0,1-.489.924A.716.716,0,0,1,379.122,111.769Zm26.713-7.435a.738.738,0,0,1-.717-.562,13.026,13.026,0,0,0-1.9-4.233.739.739,0,0,1,1.22-.835,14.487,14.487,0,0,1,2.113,4.712.743.743,0,0,1-.717.918Zm-26.174-2.2a.74.74,0,0,1-.677-1.036,14.493,14.493,0,0,1,2.871-4.291.738.738,0,1,1,1.063,1.025,13.062,13.062,0,0,0-2.579,3.858A.74.74,0,0,1,379.661,102.134Zm20.731-5.771a.73.73,0,0,1-.427-.136,13.018,13.018,0,0,0-4.2-1.973.739.739,0,1,1,.38-1.429,14.473,14.473,0,0,1,4.673,2.2.739.739,0,0,1-.429,1.342Zm-14.039-1.178a.74.74,0,0,1-.321-1.405,14.494,14.494,0,0,1,4.974-1.382.749.749,0,0,1,.805.668.741.741,0,0,1-.668.805,13.061,13.061,0,0,0-4.469,1.24A.73.73,0,0,1,386.353,95.184Z"
                      transform="translate(-377.77 -92.393)" fill="#445eea"/>
                <g transform="translate(4.915 7.524)">
                    <path d="M397.882,108.347c-5.351,0-9.69,2.868-9.69,6.406v.018c0,.923.733,1.557,1.414,1.266l2.543-1.085a1.529,1.529,0,0,0,.634-1.9l-.313-.853a38.377,38.377,0,0,0,10.786,0l-.315,1.1a1.543,1.543,0,0,0,.589,1.754l2.516,1.373c.612.334,1.326-.114,1.466-.949a4.293,4.293,0,0,0,.06-.715C407.572,111.215,403.234,108.347,397.882,108.347Z"
                          transform="translate(-388.192 -108.347)" fill="#445eea"/>
                    <path d="M407.923,128.938h-13.43l1.99-6.236a2.82,2.82,0,0,1,2.686-1.962h4.077a2.821,2.821,0,0,1,2.687,1.962Z"
                          transform="translate(-391.521 -114.895)" fill="#91a8f6"/>
                </g>
                <g transform="translate(86.559 75.95)">
                    <path d="M575.918,282.589a14.706,14.706,0,0,1-2.984-.3.741.741,0,0,1-.574-.874.749.749,0,0,1,.875-.574,13.279,13.279,0,0,0,4.64.129.74.74,0,0,1,.219,1.463A14.972,14.972,0,0,1,575.918,282.589Zm6.709-1.725a.74.74,0,0,1-.36-1.387,13.179,13.179,0,0,0,3.6-2.929.738.738,0,1,1,1.119.964,14.639,14.639,0,0,1-4,3.257A.74.74,0,0,1,582.627,280.863Zm-14.088-.4a.735.735,0,0,1-.392-.113,14.673,14.673,0,0,1-3.815-3.475.739.739,0,1,1,1.172-.9,13.165,13.165,0,0,0,3.43,3.126.739.739,0,0,1-.395,1.364Zm20.381-6.916a.741.741,0,0,1-.692-1,13.092,13.092,0,0,0,.816-4.568.739.739,0,0,1,1.478,0,14.545,14.545,0,0,1-.909,5.082A.739.739,0,0,1,588.92,273.549Zm-26.258-.736a.74.74,0,0,1-.706-.522,14.607,14.607,0,0,1-.645-4.306c0-.274.007-.546.023-.817a.775.775,0,0,1,.779-.7.738.738,0,0,1,.7.779c-.013.244-.02.49-.02.735a13.1,13.1,0,0,0,.58,3.87.739.739,0,0,1-.488.924A.719.719,0,0,1,562.663,272.813Zm26.716-7.433a.739.739,0,0,1-.717-.562,13.057,13.057,0,0,0-1.9-4.232.739.739,0,0,1,1.22-.835,14.483,14.483,0,0,1,2.113,4.71.739.739,0,0,1-.54.9A.709.709,0,0,1,589.379,265.38Zm-26.175-2.2a.74.74,0,0,1-.677-1.036,14.55,14.55,0,0,1,2.872-4.291.738.738,0,0,1,1.063,1.025,13.114,13.114,0,0,0-2.581,3.857A.74.74,0,0,1,563.2,263.179Zm20.732-5.768a.731.731,0,0,1-.427-.136,12.967,12.967,0,0,0-4.2-1.974.74.74,0,0,1,.381-1.43,14.514,14.514,0,0,1,4.673,2.2.739.739,0,0,1-.429,1.341ZM569.9,256.228a.739.739,0,0,1-.322-1.4,14.5,14.5,0,0,1,4.975-1.381.739.739,0,1,1,.137,1.472,13.035,13.035,0,0,0-4.47,1.239A.722.722,0,0,1,569.9,256.228Z"
                          transform="translate(-561.311 -253.438)" fill="#445eea"/>
                    <g transform="translate(5.895 8.337)">
                        <rect width="17.191" height="9.748" transform="translate(0 3.579)" fill="#91a8f6"/>
                        <g transform="translate(3.145)">
                            <path d="M605.264,273.947v-1.193a1.59,1.59,0,0,1,1.59-1.59h0a1.59,1.59,0,0,1,1.59,1.59v1.977h-3.18"
                                  transform="translate(-593.575 -271.141)" fill="#445eea"/>
                            <path d="M592.2,272.706v10.132h-11.72V272.706a1.59,1.59,0,0,1,1.59-1.59h11.588l-.322.067A1.59,1.59,0,0,0,592.2,272.706Z"
                                  transform="translate(-580.479 -271.116)" fill="#e0eef7"/>
                            <g transform="translate(0.729 1.635)">
                                <rect width="2.598" height="2.668" transform="translate(0 0.015)" fill="#445eea"/>
                                <g transform="translate(3.395)">
                                    <line x2="6.607" fill="none" stroke="#445eea" stroke-linecap="round"
                                          stroke-linejoin="round"
                                          stroke-width="0.658"/>
                                    <line x2="6.607" transform="translate(0 0.899)" fill="none" stroke="#445eea"
                                          stroke-linecap="round"
                                          stroke-linejoin="round" stroke-width="0.658"/>
                                    <line x2="6.607" transform="translate(0 1.797)" fill="none" stroke="#445eea"
                                          stroke-linecap="round"
                                          stroke-linejoin="round" stroke-width="0.658"/>
                                    <line x2="6.607" transform="translate(0.062 2.696)" fill="none" stroke="#445eea"
                                          stroke-linecap="round"
                                          stroke-linejoin="round" stroke-width="0.658"/>
                                </g>
                                <line x2="10.001" transform="translate(0 3.582)" fill="none" stroke="#445eea"
                                      stroke-linecap="round"
                                      stroke-linejoin="round" stroke-width="0.658"/>
                                <line x2="10.001" transform="translate(0 4.48)" fill="none" stroke="#445eea"
                                      stroke-linecap="round"
                                      stroke-linejoin="round" stroke-width="0.658"/>
                                <line x2="10.001" transform="translate(0 5.359)" fill="none" stroke="#445eea"
                                      stroke-linecap="round"
                                      stroke-linejoin="round" stroke-width="0.658"/>
                                <line x2="4.861" transform="translate(0 6.257)" fill="none" stroke="#445eea"
                                      stroke-linecap="round"
                                      stroke-linejoin="round" stroke-width="0.658"/>
                            </g>
                        </g>
                        <path d="M586.778,288.452H573.81V278.7Z" transform="translate(-573.81 -275.126)"
                              fill="#445eea"/>
                        <path d="M582.766,288.452h12.967V278.7Z" transform="translate(-578.542 -275.126)"
                              fill="#445eea"/>
                        <path d="M591,294.447H573.81l7.721-4.123a1.534,1.534,0,0,1,1.749,0Z"
                              transform="translate(-573.81 -281.121)"
                              fill="#445eea"/>
                    </g>
                </g>
            </g>
        </g>
    </g>
</svg>
