<svg xmlns="http://www.w3.org/2000/svg" width="373.041" height="370" viewBox="0 0 373.041 370">
    <defs>
        <clipPath id="a">
            <rect width="39.336" height="35.27" transform="translate(0 1.794) rotate(-2.614)" fill="none"/>
        </clipPath>
    </defs>
    <g transform="translate(-859 -31.032)">
        <g transform="translate(861.074 352.999)">
            <path d="M903.179,660.723H886.385a2.322,2.322,0,0,0,.315-1.137,2.467,2.467,0,1,0-4.616,1.137H865.3a2.278,2.278,0,0,0-2.267,2.267v24.982a2.272,2.272,0,0,0,2.267,2.267h13.732l-2.675,9.41a1.1,1.1,0,0,0,.879,1.405l1.054.2a1.38,1.38,0,0,0,1.557-.953l2.849-10.066h3.088l2.852,10.066a1.384,1.384,0,0,0,1.554.953l1.054-.2a1.1,1.1,0,0,0,.869-1.405l-2.665-9.41h13.731a2.276,2.276,0,0,0,2.266-2.267V662.99a2.276,2.276,0,0,0-2.266-2.267Zm-2.044,25.1H867.344V664.674h33.791Zm0,0"
                  transform="translate(-863.033 -657.125)" fill="#45d"/>
            <path d="M877.494,694.447a1.756,1.756,0,0,0,1.757-1.758,1.653,1.653,0,0,0-.1-.49c2.241-1.814,6.208-5,8.013-6.395a1.716,1.716,0,0,0,.99.344,1.7,1.7,0,0,0,.84-.242c1.168.99,3.138,2.665,4.543,3.858a1.874,1.874,0,0,0-.064.3,1.762,1.762,0,0,0,3.525,0,1.664,1.664,0,0,0-.1-.48l4.543-4.1a1.706,1.706,0,0,0,.8.22,1.757,1.757,0,1,0-1.748-1.758,1.715,1.715,0,0,0,.131.656c-1.268,1.14-3.231,2.906-4.442,4.009a1.754,1.754,0,0,0-.935-.305,1.73,1.73,0,0,0-1.082.407c-1.156-.99-3.035-2.582-4.369-3.711a1.619,1.619,0,0,0,.121-.6,1.753,1.753,0,1,0-3.506,0,1.626,1.626,0,0,0,.119.6l-8.058,6.265a1.744,1.744,0,1,0-.971,3.184Zm0,0"
                  transform="translate(-869.203 -669.299)" fill="#45d"/>
        </g>
        <g transform="translate(1023.173 359.953)">
            <path d="M1216.323,676.725a4.518,4.518,0,1,1-4.724-4.3,4.525,4.525,0,0,1,4.724,4.3Zm0,0"
                  transform="translate(-1192.356 -671.506)" fill="#45d"/>
            <path d="M1215.753,698.607l-4.24-.683a3.444,3.444,0,0,0-3.525,1.687,15.588,15.588,0,0,0-2.384-.857l-.114-2.494a3.451,3.451,0,0,0-3.592-3.283l-4.3.2a3.451,3.451,0,0,0-3.284,3.6l.115,2.511a14.925,14.925,0,0,0-2.28,1.061,3.451,3.451,0,0,0-3.664-1.368l-4.171,1.068a3.467,3.467,0,0,0-2.477,4.194l1.291,5a3.446,3.446,0,0,0,4.186,2.471l1.314-.336a9.982,9.982,0,0,0,2.89,2.537,16.883,16.883,0,0,0,9.271,2.075c5.279-.241,9.725-2.569,11.673-5.709l1.366.222a3.444,3.444,0,0,0,3.944-2.841l.828-5.1a3.458,3.458,0,0,0-2.849-3.95Zm-15.04,15.662a15.1,15.1,0,0,1-8.311-1.843,8.983,8.983,0,0,1-1.935-1.526l1.009-.265a3.438,3.438,0,0,0,2.478-4.186l-1.153-4.49a13.033,13.033,0,0,1,1.712-.865l.039.833a3.45,3.45,0,0,0,3.6,3.275l4.3-.2a3.449,3.449,0,0,0,3.277-3.589l-.04-.875a14.569,14.569,0,0,1,1.8.689l-.754,4.634a3.467,3.467,0,0,0,2.851,3.951l1.045.164c-1.823,2.362-5.549,4.09-9.913,4.289Zm0,0"
                  transform="translate(-1179.942 -681.492)" fill="#45d"/>
            <g transform="translate(0 0)">
                <g clip-path="url(#a)">
                    <path d="M1245.779,686.944a4.514,4.514,0,1,1-4.715-4.3,4.511,4.511,0,0,1,4.715,4.3Zm0,0"
                          transform="translate(-1206.668 -676.47)" fill="#45d"/>
                    <path d="M1184.814,694.141a4.518,4.518,0,1,0-5.5-3.244,4.512,4.512,0,0,0,5.5,3.244Zm0,0"
                          transform="translate(-1178.695 -677.74)" fill="#45d"/>
                </g>
            </g>
        </g>
        <g transform="translate(1103.292 31.032)">
            <path d="M1389.277,67.181h-1.694a1.4,1.4,0,0,1-1.167-.906,13.346,13.346,0,0,0-.564-1.347,1.386,1.386,0,0,1,.181-1.459l1.206-1.206a2.168,2.168,0,0,0,0-3.064l-1.957-1.957a2.169,2.169,0,0,0-3.064,0l-1.2,1.206a1.233,1.233,0,0,1-.864.31,1.363,1.363,0,0,1-.6-.128,13.472,13.472,0,0,0-1.348-.564,1.4,1.4,0,0,1-.906-1.168V55.2a2.168,2.168,0,0,0-2.167-2.166h-2.768A2.169,2.169,0,0,0,1370.2,55.2V56.9a1.4,1.4,0,0,1-.906,1.168,13.523,13.523,0,0,0-1.348.563,1.41,1.41,0,0,1-.594.128,1.239,1.239,0,0,1-.865-.311l-1.2-1.2a2.166,2.166,0,0,0-3.065,0l-1.958,1.959a2.164,2.164,0,0,0,0,3.063l1.206,1.206a1.386,1.386,0,0,1,.184,1.459,13.263,13.263,0,0,0-.564,1.347,1.4,1.4,0,0,1-1.168.906h-1.694a2.168,2.168,0,0,0-2.166,2.166v2.77a2.169,2.169,0,0,0,2.166,2.167h1.694a1.4,1.4,0,0,1,1.168.905,13.387,13.387,0,0,0,.564,1.346,1.386,1.386,0,0,1-.184,1.459l-1.206,1.206a2.171,2.171,0,0,0,0,3.064l1.96,1.96a2.165,2.165,0,0,0,3.065,0l1.206-1.206a1.244,1.244,0,0,1,.865-.31,1.354,1.354,0,0,1,.594.128,13.527,13.527,0,0,0,1.347.563,1.4,1.4,0,0,1,.906,1.168v1.694a2.169,2.169,0,0,0,2.167,2.167h2.768a2.17,2.17,0,0,0,2.168-2.167V84.568a1.4,1.4,0,0,1,.905-1.168,13.46,13.46,0,0,0,1.348-.563,1.379,1.379,0,0,1,.593-.128,1.245,1.245,0,0,1,.866.31l1.205,1.206a2.164,2.164,0,0,0,3.064,0l1.958-1.96a2.17,2.17,0,0,0,0-3.064l-1.2-1.2a1.383,1.383,0,0,1-.182-1.459,13.013,13.013,0,0,0,.562-1.348,1.4,1.4,0,0,1,1.168-.905h1.694a2.169,2.169,0,0,0,2.167-2.167V69.349a2.171,2.171,0,0,0-2.167-2.168Zm-9.179,3.55a6.35,6.35,0,1,1-6.349-6.349,6.358,6.358,0,0,1,6.349,6.349Zm0,0"
                  transform="translate(-1344.736 -41.721)" fill="#45d"/>
            <path d="M1349.929,42.591a.351.351,0,0,1,.242-.213h.849a1.445,1.445,0,0,0,1.443-1.445V39.547a1.444,1.444,0,0,0-1.443-1.442h-.849a.355.355,0,0,1-.242-.213,7.194,7.194,0,0,0-.3-.711.345.345,0,0,1,.022-.316l.6-.6a1.447,1.447,0,0,0,0-2.043l-.979-.98a1.444,1.444,0,0,0-2.044,0l-.6.6a.286.286,0,0,1-.177.048.34.34,0,0,1-.141-.028,6.972,6.972,0,0,0-.71-.3.356.356,0,0,1-.213-.241v-.849a1.446,1.446,0,0,0-1.443-1.446h-1.386a1.446,1.446,0,0,0-1.445,1.446v.849a.356.356,0,0,1-.212.241,6.866,6.866,0,0,0-.71.3.332.332,0,0,1-.14.028.282.282,0,0,1-.176-.048l-.6-.6a1.441,1.441,0,0,0-2.043,0l-.978.978a1.447,1.447,0,0,0,0,2.043l.6.6a.343.343,0,0,1,.02.316,6.979,6.979,0,0,0-.3.711.357.357,0,0,1-.243.213h-.849a1.446,1.446,0,0,0-1.445,1.444v1.384a1.446,1.446,0,0,0,1.445,1.445h.848a.357.357,0,0,1,.243.213,7.128,7.128,0,0,0,.3.711.343.343,0,0,1-.02.316l-.6.6a1.445,1.445,0,0,0,0,2.043l.978.979a1.446,1.446,0,0,0,2.043,0l.6-.6a.288.288,0,0,1,.176-.046.3.3,0,0,1,.14.028,6.655,6.655,0,0,0,.71.295.358.358,0,0,1,.212.243V48a1.447,1.447,0,0,0,1.445,1.446h1.386A1.447,1.447,0,0,0,1345.392,48v-.849a.358.358,0,0,1,.213-.243,6.626,6.626,0,0,0,.71-.295.335.335,0,0,1,.141-.028.289.289,0,0,1,.177.048l.6.6a1.448,1.448,0,0,0,2.042,0l.979-.98a1.447,1.447,0,0,0,0-2.043l-.6-.6a.345.345,0,0,1-.022-.316,7.519,7.519,0,0,0,.3-.711Zm-3.86-2.35a2.814,2.814,0,1,1-2.813-2.815,2.816,2.816,0,0,1,2.813,2.815Zm0,0"
                  transform="translate(-1334.046 -31.032)" fill="#45d"/>
        </g>
        <g transform="translate(1021.118 33.027)">
            <path d="M1187.481,47.831h8.357v8.613h-9.309a45.285,45.285,0,0,1,.952-8.613Zm0,19.068h8.357V58.287h-9.309a45.319,45.319,0,0,0,.952,8.613Zm8.357-20.917V34.912c-3.383.664-6.285,4.943-7.923,11.071ZM1207.963,66.9h9.219a22.311,22.311,0,0,0,2.085-8.613h-10.435a48.41,48.41,0,0,1-.87,8.613Zm0-19.068a48.873,48.873,0,0,1,.875,8.613h10.43a22.388,22.388,0,0,0-2.085-8.613Zm-.417-1.848h8.667a22.572,22.572,0,0,0-13.906-10.457c2.274,2.252,4.1,5.894,5.239,10.457Zm-11.708,33.832V68.744h-7.923c1.638,6.128,4.54,10.406,7.923,11.071Zm9.766-33.832c-1.633-6.123-4.535-10.407-7.923-11.071V45.983Zm1.386,12.3h-9.309V66.9h8.363a45.361,45.361,0,0,0,.946-8.613Zm-32.738,0a22.4,22.4,0,0,0,2.09,8.613h9.214a48.384,48.384,0,0,1-.871-8.613Zm11.726,10.457h-8.667a22.541,22.541,0,0,0,13.905,10.46c-2.274-2.257-4.1-5.9-5.239-10.46Zm21.568,0c-1.14,4.562-2.965,8.2-5.239,10.46a22.571,22.571,0,0,0,13.906-10.46Zm-21.568-22.761c1.14-4.562,2.96-8.2,5.235-10.457a22.558,22.558,0,0,0-13.9,10.457Zm20.065,1.848h-8.363v8.613h9.309a45.328,45.328,0,0,0-.946-8.613Zm-29.7,0a22.306,22.306,0,0,0-2.09,8.613h10.434a48.394,48.394,0,0,1,.871-8.613Zm21.339,20.913V79.819c3.388-.663,6.29-4.947,7.923-11.075Zm0,0"
                  transform="translate(-1174.252 -34.912)" fill="#45d"/>
        </g>
        <g transform="translate(1177.86 201.981)">
            <path d="M1516.177,408.627a19.878,19.878,0,0,0-6.916,3.865,3.2,3.2,0,0,0,4.293,4.742,11.933,11.933,0,0,1,6.753-2.92v-6.4A15.577,15.577,0,0,0,1516.177,408.627Z"
                  transform="translate(-1493.219 -385.05)" fill="#45d"/>
            <path d="M1506.564,385.918a34.034,34.034,0,0,0-11.66,6.5,3.2,3.2,0,0,0,4.3,4.731c.386-.352,6.391-5.7,14.124-6.049v-6.386A26.327,26.327,0,0,0,1506.564,385.918Z"
                  transform="translate(-1486.243 -373.783)" fill="#45d"/>
            <path d="M1496.648,365.2a48.285,48.285,0,0,0-16.553,9.223,3.2,3.2,0,0,0,4.3,4.735c.6-.539,9.848-8.712,21.744-9.259v-6.387A37.068,37.068,0,0,0,1496.648,365.2Z"
                  transform="translate(-1479.05 -363.484)" fill="#45d"/>
            <path d="M1538.361,417.112a3.2,3.2,0,0,0,4.522-4.523,14.882,14.882,0,0,0-11.158-4.686v6.4A8.568,8.568,0,0,1,1538.361,417.112Z"
                  transform="translate(-1504.637 -385.042)" fill="#45d"/>
            <path d="M1545.743,397.027a3.2,3.2,0,1,0,4.522-4.522c-6.338-6.338-12.928-8.038-18.54-7.808v6.386C1536.081,390.884,1540.986,392.27,1545.743,397.027Z"
                  transform="translate(-1504.637 -373.764)" fill="#45d"/>
            <path d="M1553.359,379.024a3.2,3.2,0,0,0,4.522-4.523c-8.951-8.952-18.248-11.344-26.157-11.016v6.387C1538.453,369.563,1546.027,371.691,1553.359,379.024Z"
                  transform="translate(-1504.637 -363.457)" fill="#45d"/>
        </g>
        <path d="M1534.552,542.687a5.177,5.177,0,0,1-.672,2.514l-13.2-14.768,13.054-11.422a5.18,5.18,0,0,1,.816,2.777Zm-20.9-9.572,18.167-15.893a5.154,5.154,0,0,0-2.49-.659h-31.35a5.127,5.127,0,0,0-2.489.659Zm5.065-.961-4.2,3.681a1.311,1.311,0,0,1-1.72,0l-4.206-3.681-13.363,14.955a5.154,5.154,0,0,0,2.755.8h31.35a5.147,5.147,0,0,0,2.753-.8Zm-25.15-13.143a5.191,5.191,0,0,0-.814,2.777v20.9a5.159,5.159,0,0,0,.672,2.514l13.194-14.77Z"
              transform="translate(-307.846 -235.847)" fill="#45d"/>
        <path d="M1049.487,54.873c.023-.321.036-.646.036-.974,0-7.845-4.534-15.279-14.1-15.279-7.887,0-10.7,4.545-12.893,9.525a6.985,6.985,0,0,0-4.565-1.689,7.11,7.11,0,0,0-6.959,8.33,11.239,11.239,0,0,0,1.751,22.326h34.495a11.241,11.241,0,0,0,2.237-22.238m-31.593,13.043a3.66,3.66,0,1,1,3.659-3.659,3.659,3.659,0,0,1-3.659,3.659m12.109,0a3.66,3.66,0,1,1,3.66-3.659,3.659,3.659,0,0,1-3.66,3.659m12.109,0a3.66,3.66,0,1,1,3.661-3.659,3.659,3.659,0,0,1-3.661,3.659"
              transform="translate(-69.272 -3.686)" fill="#45d"/>
        <g transform="translate(1182.651 360.253)">
            <path d="M1521.772,695.027a9.52,9.52,0,0,0-9.421,8.158h2.758a6.8,6.8,0,0,1,12.635-1.894l-1.893,1.894h5.439v-5.439l-1.565,1.564a9.517,9.517,0,0,0-7.954-4.284"
                  transform="translate(-1500.017 -682.789)" fill="#45d"/>
            <path d="M1521.681,721.619a6.8,6.8,0,0,1-5.972-3.546l1.893-1.893h-5.439v5.439l1.564-1.565a9.52,9.52,0,0,0,17.373-3.874h-2.755a6.8,6.8,0,0,1-6.664,5.439"
                  transform="translate(-1499.926 -693.065)" fill="#45d"/>
            <path d="M1525.876,682.4a8.851,8.851,0,0,0-10.785-5.365,12.237,12.237,0,0,0-22.642,6.17,8.157,8.157,0,0,0,4.076,15.223h1.36v-2.719h-1.365a5.44,5.44,0,0,1-1.237-10.736,9.519,9.519,0,0,1,18.512-4.254,6.12,6.12,0,0,1,9.886,4.112h.041a5.439,5.439,0,0,1,0,10.878h-1.666a12.218,12.218,0,0,1-.969,2.719h2.631a8.159,8.159,0,0,0,2.157-16.028"
                  transform="translate(-1488.367 -671.23)" fill="#45d"/>
        </g>
        <g transform="translate(966.363 125.269)">
            <g transform="translate(98.616 119.705)">
                <path d="M1269.268,396.119h92.167a3.607,3.607,0,0,1,0,7.215H1342.92a3.6,3.6,0,0,0-3.6,3.6v20.8h1.559v-20.8a2.041,2.041,0,0,1,2.038-2.036h18.516a5.168,5.168,0,0,0,0-10.335l-92.167,0"
                      transform="translate(-1269.268 -394.558)" fill="#fff"/>
                <g transform="translate(61.665 31.781)">
                    <path d="M1408.686,456.359a7.151,7.151,0,0,1,7.15,7.149v17.152a7.149,7.149,0,0,1-7.15,7.143h-1.9V456.359Z"
                          transform="translate(-1397.732 -456.359)" fill="#e5e5e6"/>
                    <path d="M1396.326,456.359h1.907V487.8h-1.907a7.148,7.148,0,0,1-7.146-7.143V463.508A7.15,7.15,0,0,1,1396.326,456.359Z"
                          transform="translate(-1389.18 -456.359)" fill="#e5e5e6"/>
                </g>
                <g transform="translate(68.335 36.986)">
                    <path d="M1409.167,468.86V470.4a2.39,2.39,0,0,1-2.381,2.385v-6.3A2.385,2.385,0,0,1,1409.167,468.86Z"
                          transform="translate(-1404.403 -466.48)" fill="#253a54"/>
                    <path d="M1404.535,466.48h0v6.3h0a2.383,2.383,0,0,1-2.383-2.385V468.86A2.381,2.381,0,0,1,1404.535,466.48Z"
                          transform="translate(-1402.152 -466.48)" fill="#223341"/>
                </g>
            </g>
            <path d="M1182.084,354.923q-2.316,9.466-4.63,18.932h43.21q-2.316-9.467-4.63-18.932Z"
                  transform="translate(-1126.053 -255.6)"
                  fill="#aeadb3"/>
            <path d="M1218.975,373.855h21.858q-2.316-9.467-4.63-18.932h-17.229Z" transform="translate(-1146.222 -255.6)"
                  fill="#c2c3c9"/>
            <path d="M1218.7,391.087h-48.552a2.449,2.449,0,0,0-2.231,2.621v.984h53.015v-.984A2.45,2.45,0,0,0,1218.7,391.087Z"
                  transform="translate(-1121.422 -273.167)" fill="#e5e5e6"/>
            <path d="M1077.5,340.6v10.433a3.631,3.631,0,0,0,3.636,3.633h138.737a3.635,3.635,0,0,0,3.637-3.633V340.6Z"
                  transform="translate(-1077.5 -248.644)" fill="#e5e5e6"/>
            <path d="M1223.51,253.74V165.415a3.635,3.635,0,0,0-3.637-3.634H1081.136a3.631,3.631,0,0,0-3.636,3.634V253.74Z"
                  transform="translate(-1077.5 -161.781)" fill="#264860"/>
            <rect width="134.049" height="80.25" transform="translate(5.982 5.68)" fill="#45d"/>
            <g transform="translate(4.35 133.978)">
                <path d="M1223.27,423.976a1.729,1.729,0,0,0-1.775-1.663H1087.729a1.725,1.725,0,0,0-1.771,1.663v49.152a1.726,1.726,0,0,0,1.771,1.664h133.765a1.729,1.729,0,0,0,1.775-1.664Z"
                      transform="translate(-1085.959 -422.313)" fill="#aeadb3"/>
                <path d="M1260.45,473.128V423.976a1.729,1.729,0,0,0-1.775-1.663H1162.5l69.346,52.479h26.828A1.729,1.729,0,0,0,1260.45,473.128Z"
                      transform="translate(-1123.139 -422.313)" fill="#c2c3c9"/>
                <g transform="translate(3.429 4.303)">
                    <path d="M.842,0H6.633a.841.841,0,0,1,.841.841v5.79a.842.842,0,0,1-.842.842H.84A.84.84,0,0,1,0,6.633V.842A.842.842,0,0,1,.842,0Z"
                          fill="#fff"/>
                    <path d="M1126.74,455.416a.432.432,0,0,1-.433.435H1119.7a.431.431,0,0,1-.43-.435v-6.61a.431.431,0,0,1,.43-.429h6.609a.431.431,0,0,1,.433.429Z"
                          transform="translate(-1105.568 -439.276)" fill="#fff"/>
                    <path d="M.836,0h5.8a.84.84,0,0,1,.84.84V6.63a.84.84,0,0,1-.84.84H.84A.84.84,0,0,1,0,6.63V.836A.836.836,0,0,1,.836,0Z"
                          transform="translate(15.853 18.202)" fill="#fff"/>
                    <path d="M1122.266,490.809a.432.432,0,0,1-.43.431h-6.61a.433.433,0,0,1-.43-.431V484.2a.435.435,0,0,1,.43-.434h6.61a.434.434,0,0,1,.43.434Z"
                          transform="translate(-1103.396 -456.466)" fill="#fff"/>
                    <path d="M1100.1,509.654a.432.432,0,0,1-.432.431h-6.609a.432.432,0,0,1-.432-.431v-7.759a.436.436,0,0,1,.432-.432h6.609a.436.436,0,0,1,.432.432Z"
                          transform="translate(-1092.627 -465.063)" fill="#fff"/>
                    <path d="M1117.749,509.654a.432.432,0,0,1-.433.431h-6.607a.432.432,0,0,1-.431-.431v-7.759a.437.437,0,0,1,.431-.432h6.607a.436.436,0,0,1,.433.432Z"
                          transform="translate(-1101.201 -465.063)" fill="#fff"/>
                    <path d="M.84,0h5.8a.838.838,0,0,1,.838.838V7.783a.84.84,0,0,1-.84.84H.84A.84.84,0,0,1,0,7.783V.84A.84.84,0,0,1,.84,0Z"
                          transform="translate(18.153 36.4)" fill="#fff"/>
                    <path d="M1286.151,509.654a.435.435,0,0,1-.435.431h-6.61a.431.431,0,0,1-.43-.431v-7.759a.435.435,0,0,1,.43-.432h6.61a.439.439,0,0,1,.435.432Z"
                          transform="translate(-1183.001 -465.063)" fill="#fff"/>
                    <path d="M1303.841,513.726a.432.432,0,0,1-.432.432h-6.6a.434.434,0,0,1-.437-.432v-3.449a.436.436,0,0,1,.437-.431h6.6a.434.434,0,0,1,.432.431Z"
                          transform="translate(-1191.594 -469.135)" fill="#fff"/>
                    <path d="M1339.235,513.726a.433.433,0,0,1-.433.432h-6.607a.435.435,0,0,1-.434-.432v-3.449a.437.437,0,0,1,.434-.431h6.607a.435.435,0,0,1,.433.431Z"
                          transform="translate(-1208.786 -469.135)" fill="#fff"/>
                    <path d="M1155.419,509.654a.431.431,0,0,1-.428.431h-8.984a.43.43,0,0,1-.429-.431v-7.759a.434.434,0,0,1,.429-.432h8.984a.435.435,0,0,1,.428.432Z"
                          transform="translate(-1118.348 -465.063)" fill="#fff"/>
                    <path d="M1266.21,509.654a.431.431,0,0,1-.433.431H1256.8a.435.435,0,0,1-.433-.431v-7.759a.439.439,0,0,1,.433-.432h8.979a.436.436,0,0,1,.433.432Z"
                          transform="translate(-1172.163 -465.063)" fill="#fff"/>
                    <path d="M1211.757,509.654a.434.434,0,0,1-.436.431h-43.01a.435.435,0,0,1-.433-.431v-7.759a.439.439,0,0,1,.433-.432h43.01a.438.438,0,0,1,.436.432Z"
                          transform="translate(-1129.181 -465.063)" fill="#fff"/>
                    <path d="M1139.963,490.809a.431.431,0,0,1-.43.431h-6.61a.434.434,0,0,1-.43-.431V484.2a.436.436,0,0,1,.43-.434h6.61a.433.433,0,0,1,.43.434Z"
                          transform="translate(-1111.991 -456.466)" fill="#fff"/>
                    <path d="M1157.659,490.809a.432.432,0,0,1-.428.431h-6.61a.432.432,0,0,1-.431-.431V484.2a.434.434,0,0,1,.431-.434h6.61a.434.434,0,0,1,.428.434Z"
                          transform="translate(-1120.588 -456.466)" fill="#fff"/>
                    <path d="M.838,0h5.8a.838.838,0,0,1,.838.838V6.632a.842.842,0,0,1-.842.842H.844A.844.844,0,0,1,0,6.63V.838A.838.838,0,0,1,.838,0Z"
                          transform="translate(38.698 27.299)" fill="#fff"/>
                    <path d="M1193.052,490.809a.434.434,0,0,1-.43.431h-6.608a.435.435,0,0,1-.433-.431V484.2a.437.437,0,0,1,.433-.434h6.608a.435.435,0,0,1,.43.434Z"
                          transform="translate(-1137.779 -456.466)" fill="#fff"/>
                    <path d="M1210.751,490.809a.433.433,0,0,1-.43.431h-6.61a.433.433,0,0,1-.43-.431V484.2a.434.434,0,0,1,.43-.434h6.61a.434.434,0,0,1,.43.434Z"
                          transform="translate(-1146.377 -456.466)" fill="#fff"/>
                    <path d="M1228.446,490.809a.432.432,0,0,1-.43.431h-6.61a.433.433,0,0,1-.433-.431V484.2a.435.435,0,0,1,.433-.434h6.61a.434.434,0,0,1,.43.434Z"
                          transform="translate(-1154.971 -456.466)" fill="#fff"/>
                    <path d="M1246.145,490.809a.435.435,0,0,1-.436.431H1239.1a.432.432,0,0,1-.43-.431V484.2a.434.434,0,0,1,.43-.434h6.607a.437.437,0,0,1,.436.434Z"
                          transform="translate(-1163.569 -456.466)" fill="#fff"/>
                    <path d="M1263.838,490.809a.433.433,0,0,1-.432.431H1256.8a.436.436,0,0,1-.433-.431V484.2a.438.438,0,0,1,.433-.434h6.608a.434.434,0,0,1,.432.434Z"
                          transform="translate(-1172.163 -456.466)" fill="#fff"/>
                    <path d="M1281.536,490.809a.431.431,0,0,1-.431.431H1274.5a.432.432,0,0,1-.432-.431V484.2a.434.434,0,0,1,.432-.434h6.609a.432.432,0,0,1,.431.434Z"
                          transform="translate(-1180.761 -456.466)" fill="#fff"/>
                    <path d="M.838,0H6.631a.842.842,0,0,1,.842.842V6.63a.844.844,0,0,1-.844.844H.844A.844.844,0,0,1,0,6.63V.838A.838.838,0,0,1,.838,0Z"
                          transform="translate(102.404 27.299)" fill="#fff"/>
                    <path d="M1328.327,490.809a.433.433,0,0,1-.432.431h-18.007a.433.433,0,0,1-.432-.431V484.2a.434.434,0,0,1,.432-.434H1327.9a.434.434,0,0,1,.432.434Z"
                          transform="translate(-1197.953 -456.466)" fill="#fff"/>
                    <path d="M.836,0h5.8A.833.833,0,0,1,7.47.833v5.8a.834.834,0,0,1-.834.834H.832A.832.832,0,0,1,0,6.638V.836A.836.836,0,0,1,.836,0Z"
                          transform="translate(24.955 18.202)" fill="#fff"/>
                    <path d="M1166.324,473.114a.431.431,0,0,1-.432.43h-6.61a.429.429,0,0,1-.428-.43V466.5a.431.431,0,0,1,.428-.429h6.61a.433.433,0,0,1,.432.429Z"
                          transform="translate(-1124.797 -447.873)" fill="#fff"/>
                    <path d="M.836,0h5.8A.837.837,0,0,1,7.47.837v5.8a.834.834,0,0,1-.834.834H.834A.834.834,0,0,1,0,6.636V.836A.836.836,0,0,1,.836,0Z"
                          transform="translate(43.156 18.202)" fill="#fff"/>
                    <path d="M.836,0h5.8a.833.833,0,0,1,.833.833v5.8a.834.834,0,0,1-.834.834H.837A.837.837,0,0,1,0,6.633V.836A.836.836,0,0,1,.836,0Z"
                          transform="translate(52.257 18.202)" fill="#fff"/>
                    <path d="M1219.411,473.114a.432.432,0,0,1-.432.43h-6.609a.434.434,0,0,1-.433-.43V466.5a.437.437,0,0,1,.433-.429h6.609a.434.434,0,0,1,.432.429Z"
                          transform="translate(-1150.582 -447.873)" fill="#fff"/>
                    <path d="M1237.109,473.114a.43.43,0,0,1-.431.43h-6.608a.431.431,0,0,1-.432-.43V466.5a.433.433,0,0,1,.432-.429h6.608a.432.432,0,0,1,.431.429Z"
                          transform="translate(-1159.18 -447.873)" fill="#fff"/>
                    <path d="M.836,0h5.8A.836.836,0,0,1,7.47.836v5.8a.834.834,0,0,1-.834.834H.834A.834.834,0,0,1,0,6.636V.836A.836.836,0,0,1,.836,0Z"
                          transform="translate(79.558 18.202)" fill="#fff"/>
                    <path d="M.838,0h5.8a.837.837,0,0,1,.837.837v5.8a.834.834,0,0,1-.834.834H.838A.838.838,0,0,1,0,6.632V.838A.838.838,0,0,1,.838,0Z"
                          transform="translate(88.659 18.202)" fill="#fff"/>
                    <path d="M.836,0h5.8a.836.836,0,0,1,.836.836v5.8a.834.834,0,0,1-.834.834H.838A.838.838,0,0,1,0,6.632V.836A.836.836,0,0,1,.836,0Z"
                          transform="translate(97.758 18.202)" fill="#fff"/>
                    <path d="M1307.893,473.114a.429.429,0,0,1-.43.43h-6.607a.431.431,0,0,1-.434-.43V466.5a.433.433,0,0,1,.434-.429h6.607a.432.432,0,0,1,.43.429Z"
                          transform="translate(-1193.564 -447.873)" fill="#fff"/>
                    <path d="M.836,0h5.8A.832.832,0,0,1,7.47.832v5.8a.834.834,0,0,1-.834.834H.836A.836.836,0,0,1,0,6.634V.836A.836.836,0,0,1,.836,0Z"
                          transform="translate(115.96 18.202)" fill="#fff"/>
                    <path d="M1144.433,455.416a.434.434,0,0,1-.432.435h-6.609a.434.434,0,0,1-.432-.435v-6.61a.434.434,0,0,1,.432-.429H1144a.433.433,0,0,1,.432.429Z"
                          transform="translate(-1114.161 -439.276)" fill="#fff"/>
                    <path d="M1162.132,455.416a.434.434,0,0,1-.432.435h-6.61a.432.432,0,0,1-.43-.435v-6.61a.432.432,0,0,1,.43-.429h6.61a.433.433,0,0,1,.432.429Z"
                          transform="translate(-1122.759 -439.276)" fill="#fff"/>
                    <path d="M1179.829,455.416a.433.433,0,0,1-.432.435h-6.61a.432.432,0,0,1-.428-.435v-6.61a.432.432,0,0,1,.428-.429h6.61a.432.432,0,0,1,.432.429Z"
                          transform="translate(-1131.357 -439.276)" fill="#fff"/>
                    <path d="M1197.521,455.416a.433.433,0,0,1-.429.435h-6.609a.433.433,0,0,1-.432-.435v-6.61a.433.433,0,0,1,.432-.429h6.609a.432.432,0,0,1,.429.429Z"
                          transform="translate(-1139.951 -439.276)" fill="#fff"/>
                    <path d="M1215.22,455.416a.433.433,0,0,1-.433.435h-6.608a.432.432,0,0,1-.429-.435v-6.61a.432.432,0,0,1,.429-.429h6.608a.432.432,0,0,1,.433.429Z"
                          transform="translate(-1148.548 -439.276)" fill="#fff"/>
                    <path d="M1232.913,455.416a.431.431,0,0,1-.429.435h-6.61a.433.433,0,0,1-.432-.435v-6.61a.433.433,0,0,1,.432-.429h6.61a.43.43,0,0,1,.429.429Z"
                          transform="translate(-1157.142 -439.276)" fill="#fff"/>
                    <path d="M1250.613,455.416a.431.431,0,0,1-.43.435h-6.611a.432.432,0,0,1-.428-.435v-6.61a.432.432,0,0,1,.428-.429h6.611a.43.43,0,0,1,.43.429Z"
                          transform="translate(-1165.74 -439.276)" fill="#fff"/>
                    <path d="M1268.31,455.416a.434.434,0,0,1-.434.435h-6.609a.432.432,0,0,1-.43-.435v-6.61a.432.432,0,0,1,.43-.429h6.609a.433.433,0,0,1,.434.429Z"
                          transform="translate(-1174.335 -439.276)" fill="#fff"/>
                    <path d="M1286.005,455.416a.432.432,0,0,1-.427.435h-6.61a.432.432,0,0,1-.431-.435v-6.61a.431.431,0,0,1,.431-.429h6.61a.431.431,0,0,1,.427.429Z"
                          transform="translate(-1182.933 -439.276)" fill="#fff"/>
                    <path d="M1303.7,455.416a.434.434,0,0,1-.434.435h-6.609a.434.434,0,0,1-.43-.435v-6.61a.433.433,0,0,1,.43-.429h6.609a.433.433,0,0,1,.434.429Z"
                          transform="translate(-1191.527 -439.276)" fill="#fff"/>
                    <path d="M1321.4,455.416a.433.433,0,0,1-.43.435h-6.61a.432.432,0,0,1-.431-.435v-6.61a.432.432,0,0,1,.431-.429h6.61a.432.432,0,0,1,.43.429Z"
                          transform="translate(-1200.124 -439.276)" fill="#fff"/>
                    <path d="M1104.7,455.416a.433.433,0,0,1-.432.435h-11.207a.433.433,0,0,1-.432-.435v-6.61a.433.433,0,0,1,.432-.429h11.207a.433.433,0,0,1,.432.429Z"
                          transform="translate(-1092.627 -439.276)" fill="#fff"/>
                    <path d="M1334.751,437.72a.433.433,0,0,1-.432.433h-11.207a.435.435,0,0,1-.431-.433v-6.607a.434.434,0,0,1,.431-.433h11.207a.432.432,0,0,1,.432.433Z"
                          transform="translate(-1204.376 -430.68)" fill="#fff"/>
                    <path d="M1106.851,473.114a.429.429,0,0,1-.432.43h-13.36a.431.431,0,0,1-.432-.43V466.5a.433.433,0,0,1,.432-.429h13.36a.431.431,0,0,1,.432.429Z"
                          transform="translate(-1092.627 -447.873)" fill="#fff"/>
                    <path d="M.838,0H8.932a.841.841,0,0,1,.841.841V6.63a.844.844,0,0,1-.844.844H.841A.841.841,0,0,1,0,6.633V.838A.838.838,0,0,1,.838,0Z"
                          transform="translate(0 27.299)" fill="#fff"/>
                    <path d="M.842,0H6.63a.841.841,0,0,1,.841.841v5.79a.842.842,0,0,1-.842.842H.843A.843.843,0,0,1,0,6.63V.842A.842.842,0,0,1,.842,0Z"
                          transform="translate(9.102)" fill="#fff"/>
                    <path d="M1135.5,437.72a.433.433,0,0,1-.432.433h-6.611a.432.432,0,0,1-.428-.433v-6.607a.431.431,0,0,1,.428-.433h6.611a.432.432,0,0,1,.432.433Z"
                          transform="translate(-1109.822 -430.68)" fill="#fff"/>
                    <path d="M1153.193,437.72a.437.437,0,0,1-.436.433h-6.609a.433.433,0,0,1-.431-.433v-6.607a.432.432,0,0,1,.431-.433h6.609a.436.436,0,0,1,.436.433Z"
                          transform="translate(-1118.416 -430.68)" fill="#fff"/>
                    <path d="M.842,0H6.634a.84.84,0,0,1,.84.84V6.631a.842.842,0,0,1-.842.842H.842A.842.842,0,0,1,0,6.631V.842A.842.842,0,0,1,.842,0Z"
                          transform="translate(36.401)" fill="#fff"/>
                    <path d="M1188.579,437.72a.431.431,0,0,1-.429.433h-6.61a.433.433,0,0,1-.43-.433v-6.607a.432.432,0,0,1,.43-.433h6.61a.429.429,0,0,1,.429.433Z"
                          transform="translate(-1135.608 -430.68)" fill="#fff"/>
                    <path d="M.841,0H6.629a.842.842,0,0,1,.842.842V6.631a.842.842,0,0,1-.842.842H.841A.841.841,0,0,1,0,6.632V.841A.841.841,0,0,1,.841,0Z"
                          transform="translate(54.605)" fill="#fff"/>
                    <path d="M1223.973,437.72a.43.43,0,0,1-.429.433h-6.608a.433.433,0,0,1-.433-.433v-6.607a.432.432,0,0,1,.433-.433h6.608a.429.429,0,0,1,.429.433Z"
                          transform="translate(-1152.8 -430.68)" fill="#fff"/>
                    <path d="M.842,0H6.635a.838.838,0,0,1,.838.838V6.631a.842.842,0,0,1-.842.842H.843A.843.843,0,0,1,0,6.63V.842A.842.842,0,0,1,.842,0Z"
                          transform="translate(72.802)" fill="#fff"/>
                    <path d="M1259.365,437.72a.431.431,0,0,1-.428.433h-6.609a.433.433,0,0,1-.432-.433v-6.607a.432.432,0,0,1,.432-.433h6.609a.429.429,0,0,1,.428.433Z"
                          transform="translate(-1169.992 -430.68)" fill="#fff"/>
                    <path d="M1277.066,437.72a.434.434,0,0,1-.43.433h-6.612a.432.432,0,0,1-.429-.433v-6.607a.431.431,0,0,1,.429-.433h6.612a.432.432,0,0,1,.43.433Z"
                          transform="translate(-1178.59 -430.68)" fill="#fff"/>
                    <path d="M.842,0H6.631a.844.844,0,0,1,.844.844V6.631a.842.842,0,0,1-.842.842H.84A.84.84,0,0,1,0,6.633V.842A.842.842,0,0,1,.842,0Z"
                          transform="translate(100.103)" fill="#fff"/>
                    <path d="M1312.456,437.72a.431.431,0,0,1-.428.433h-6.614a.432.432,0,0,1-.428-.433v-6.607a.431.431,0,0,1,.428-.433h6.614a.43.43,0,0,1,.428.433Z"
                          transform="translate(-1195.781 -430.68)" fill="#fff"/>
                    <g transform="translate(113.876 36.4)">
                        <path d="M1314.068,510.322v3.635a.428.428,0,0,0,.125.3.435.435,0,0,0,.306.127h6.61a.43.43,0,0,0,.3-.127.423.423,0,0,0,.127-.3v-3.635Z"
                              transform="translate(-1314.068 -505.766)" fill="#fff"/>
                        <path d="M1321.541,505.531v-3.636a.427.427,0,0,0-.127-.3.437.437,0,0,0-.3-.13h-6.61a.443.443,0,0,0-.306.13.432.432,0,0,0-.125.3v3.636Z"
                              transform="translate(-1314.068 -501.463)" fill="#fff"/>
                    </g>
                    <path d="M1332.055,448.377a.428.428,0,0,0-.428.429v6.61a.435.435,0,0,0,.125.307.439.439,0,0,0,.3.128h1.726v8.667a.429.429,0,0,0,.128.3.423.423,0,0,0,.3.125h4.453a.426.426,0,0,0,.306-.125.422.422,0,0,0,.128-.3V448.806a.434.434,0,0,0-.433-.429Z"
                          transform="translate(-1208.722 -439.276)" fill="#fff"/>
                </g>
            </g>
        </g>
        <path d="M1530.232,175.07h-39.679a3.63,3.63,0,0,0-3.629,3.63v60.485a3.629,3.629,0,0,0,3.629,3.63h39.679a3.63,3.63,0,0,0,3.63-3.63V178.7a3.63,3.63,0,0,0-3.63-3.63m-14.869,2.951a.768.768,0,1,1-.77.767.77.77,0,0,1,.77-.767m-10.712.293h8.04v.878h-8.04Zm5.741,63.054a2.359,2.359,0,1,1,2.359-2.359,2.358,2.358,0,0,1-2.359,2.359m21.171-6.175h-42.341v-52.5h42.341Z"
              transform="translate(-305.015 -69.967)" fill="#45d"/>
        <path d="M1530.13,32.758h-19.3a3.339,3.339,0,0,0-3.335,3.34V75.283a3.337,3.337,0,0,0,3.335,3.338h19.3a3.338,3.338,0,0,0,3.337-3.338V36.1a3.337,3.337,0,0,0-3.337-3.34m-2.2,2.094a.854.854,0,1,1-.855.853.856.856,0,0,1,.855-.853m-11.919.326h8.946v.978h-8.946Zm4.471,41.431a2.237,2.237,0,1,1,2.237-2.237,2.238,2.238,0,0,1-2.237,2.237m10.488-6.69H1510V38.4h20.971Z"
              transform="translate(-315.008 -0.838)" fill="#45d"/>
        <g transform="translate(859 35.204)">
            <path d="M881.479,39.145c12.414,0,22.478,8.683,22.478,19.393,0,6.43-3.628,12.129-9.214,15.658l3.166,8.006-7.758-5.768a25.505,25.505,0,0,1-8.671,1.5C869.064,77.932,859,69.249,859,58.538S869.064,39.145,881.479,39.145Z"
                  transform="translate(-859 -39.145)" fill="#45d" fill-rule="evenodd"/>
            <text transform="translate(10.587 24.147)" fill="#fff" font-size="21" font-family="ArialMT, Arial">
                <tspan x="0" y="0">@</tspan>
            </text>
        </g>
        <g transform="translate(869.468 100.885)">
            <g transform="translate(0 21.016)">
                <g transform="translate(0 16.755)">
                    <path d="M879.356,240.315v7.538a11.474,11.474,0,1,0,22.948,0v-7.371C899.374,241.955,891.365,244.794,879.356,240.315Z"
                          transform="translate(-879.356 -240.315)" fill="#45d"/>
                </g>
                <path d="M892.43,207.915c-6.638-1.4-13.073,5.577-13.074,11.907v3.2c3.694,1.5,13.7,4.675,22.948,0v-3.2C902.3,214.449,897.772,209.044,892.43,207.915Zm.384,11.449a1.984,1.984,0,1,1-3.969,0v-5.433a1.984,1.984,0,1,1,3.969,0Z"
                      transform="translate(-879.356 -207.734)" fill="#45d"/>
            </g>
            <g transform="translate(10.593 0)">
                <path d="M900.11,189.751a10.837,10.837,0,0,1,1.495-7.6,10.334,10.334,0,0,1,7.121-4.135c7.665-1.339,7.429-3.824,7-8.331-.081-.863-.168-1.783-.207-2.755l1.48-.06c.037.945.123,1.836.2,2.675.444,4.668.794,8.354-8.219,9.933a8.918,8.918,0,0,0-6.144,3.5,9.471,9.471,0,0,0-1.275,6.488Z"
                      transform="translate(-899.954 -166.867)" fill="#45d"/>
            </g>
        </g>
        <g transform="translate(1153.846 54.638)">
            <path d="M1433.381,76.936a1.025,1.025,0,0,1,1.028,1.029h0a1.028,1.028,0,0,1-1.028,1.028h0a1.027,1.027,0,0,1-1.028-1.028h0A1.024,1.024,0,0,1,1433.381,76.936Z"
                  transform="translate(-1432.353 -76.936)" fill="#45d"/>
            <path d="M1442.382,76.936a1.028,1.028,0,0,1,1.028,1.029h0a1.032,1.032,0,0,1-1.028,1.028h0a1.028,1.028,0,0,1-1.029-1.028h0A1.024,1.024,0,0,1,1442.382,76.936Z"
                  transform="translate(-1436.725 -76.936)" fill="#45d"/>
            <path d="M1451.381,76.936a1.025,1.025,0,0,1,1.029,1.029h0a1.029,1.029,0,0,1-1.029,1.028h0a1.032,1.032,0,0,1-1.028-1.028h0A1.028,1.028,0,0,1,1451.381,76.936Z"
                  transform="translate(-1441.097 -76.936)" fill="#45d"/>
            <path d="M1460.381,76.936a1.028,1.028,0,0,1,1.028,1.029h0a1.032,1.032,0,0,1-1.028,1.028h0a1.028,1.028,0,0,1-1.028-1.028h0A1.024,1.024,0,0,1,1460.381,76.936Z"
                  transform="translate(-1445.468 -76.936)" fill="#45d"/>
            <path d="M1469.382,76.936a1.028,1.028,0,0,1,1.028,1.029h0a1.032,1.032,0,0,1-1.028,1.028h0a1.028,1.028,0,0,1-1.029-1.028h0A1.025,1.025,0,0,1,1469.382,76.936Z"
                  transform="translate(-1449.84 -76.936)" fill="#45d"/>
            <path d="M1478.381,76.936a1.028,1.028,0,0,1,1.029,1.029h0a1.032,1.032,0,0,1-1.029,1.028h0a1.028,1.028,0,0,1-1.028-1.028h0A1.024,1.024,0,0,1,1478.381,76.936Z"
                  transform="translate(-1454.212 -76.936)" fill="#45d"/>
            <path d="M1487.382,76.936a1.028,1.028,0,0,1,1.028,1.029h0a1.032,1.032,0,0,1-1.028,1.028h0a1.028,1.028,0,0,1-1.029-1.028h0A1.025,1.025,0,0,1,1487.382,76.936Z"
                  transform="translate(-1458.584 -76.936)" fill="#45d"/>
            <path d="M1496.381,76.936a1.028,1.028,0,0,1,1.029,1.029h0a1.032,1.032,0,0,1-1.029,1.028h0a1.028,1.028,0,0,1-1.028-1.028h0A1.025,1.025,0,0,1,1496.381,76.936Z"
                  transform="translate(-1462.955 -76.936)" fill="#45d"/>
        </g>
        <g transform="translate(1073.28 54.467)">
            <path d="M1276.715,76.6a1.024,1.024,0,0,1,1.028,1.029h0a1.029,1.029,0,0,1-1.028,1.028h0a1.028,1.028,0,0,1-1.029-1.028h0A1.024,1.024,0,0,1,1276.715,76.6Z"
                  transform="translate(-1275.686 -76.604)" fill="#45d"/>
            <path d="M1285.714,76.6a1.028,1.028,0,0,1,1.029,1.029h0a1.032,1.032,0,0,1-1.029,1.028h0a1.028,1.028,0,0,1-1.028-1.028h0A1.024,1.024,0,0,1,1285.714,76.6Z"
                  transform="translate(-1280.058 -76.604)" fill="#45d"/>
            <path d="M1294.714,76.6a1.024,1.024,0,0,1,1.028,1.029h0a1.029,1.029,0,0,1-1.028,1.028h0a1.032,1.032,0,0,1-1.028-1.028h0A1.028,1.028,0,0,1,1294.714,76.6Z"
                  transform="translate(-1284.43 -76.604)" fill="#45d"/>
            <path d="M1303.715,76.6a1.028,1.028,0,0,1,1.028,1.029h0a1.032,1.032,0,0,1-1.028,1.028h0a1.028,1.028,0,0,1-1.029-1.028h0A1.024,1.024,0,0,1,1303.715,76.6Z"
                  transform="translate(-1288.801 -76.604)" fill="#45d"/>
            <path d="M1312.714,76.6a1.028,1.028,0,0,1,1.029,1.029h0a1.032,1.032,0,0,1-1.029,1.028h0a1.029,1.029,0,0,1-1.028-1.028h0A1.025,1.025,0,0,1,1312.714,76.6Z"
                  transform="translate(-1293.173 -76.604)" fill="#45d"/>
            <path d="M1321.714,76.6a1.028,1.028,0,0,1,1.028,1.029h0a1.032,1.032,0,0,1-1.028,1.028h0a1.029,1.029,0,0,1-1.028-1.028h0A1.024,1.024,0,0,1,1321.714,76.6Z"
                  transform="translate(-1297.545 -76.604)" fill="#45d"/>
            <path d="M1330.715,76.6a1.028,1.028,0,0,1,1.028,1.029h0a1.032,1.032,0,0,1-1.028,1.028h0a1.029,1.029,0,0,1-1.029-1.028h0A1.025,1.025,0,0,1,1330.715,76.6Z"
                  transform="translate(-1301.917 -76.604)" fill="#45d"/>
            <path d="M1339.714,76.6a1.028,1.028,0,0,1,1.029,1.029h0a1.032,1.032,0,0,1-1.029,1.028h0a1.029,1.029,0,0,1-1.028-1.028h0A1.025,1.025,0,0,1,1339.714,76.6Z"
                  transform="translate(-1306.288 -76.604)" fill="#45d"/>
        </g>
        <g transform="translate(991.686 54.638)">
            <path d="M1118.048,76.936a1.028,1.028,0,0,1,1.029,1.029h0a1.032,1.032,0,0,1-1.029,1.028h0a1.027,1.027,0,0,1-1.028-1.028h0A1.024,1.024,0,0,1,1118.048,76.936Z"
                  transform="translate(-1117.02 -76.936)" fill="#45d"/>
            <path d="M1127.048,76.936a1.025,1.025,0,0,1,1.029,1.029h0a1.029,1.029,0,0,1-1.029,1.028h0a1.032,1.032,0,0,1-1.028-1.028h0A1.028,1.028,0,0,1,1127.048,76.936Z"
                  transform="translate(-1121.392 -76.936)" fill="#45d"/>
            <path d="M1136.049,76.936a1.028,1.028,0,0,1,1.028,1.029h0a1.032,1.032,0,0,1-1.028,1.028h0a1.028,1.028,0,0,1-1.029-1.028h0A1.024,1.024,0,0,1,1136.049,76.936Z"
                  transform="translate(-1125.764 -76.936)" fill="#45d"/>
            <path d="M1145.049,76.936a1.028,1.028,0,0,1,1.028,1.029h0a1.032,1.032,0,0,1-1.028,1.028h0a1.028,1.028,0,0,1-1.029-1.028h0A1.025,1.025,0,0,1,1145.049,76.936Z"
                  transform="translate(-1130.135 -76.936)" fill="#45d"/>
            <path d="M1154.048,76.936a1.028,1.028,0,0,1,1.029,1.029h0a1.032,1.032,0,0,1-1.029,1.028h0a1.028,1.028,0,0,1-1.028-1.028h0A1.025,1.025,0,0,1,1154.048,76.936Z"
                  transform="translate(-1134.507 -76.936)" fill="#45d"/>
            <path d="M1163.049,76.936a1.028,1.028,0,0,1,1.028,1.029h0a1.032,1.032,0,0,1-1.028,1.028h0a1.028,1.028,0,0,1-1.029-1.028h0A1.025,1.025,0,0,1,1163.049,76.936Z"
                  transform="translate(-1138.879 -76.936)" fill="#45d"/>
        </g>
        <g transform="translate(908.035 54.467)">
            <path d="M955.38,76.6a1.028,1.028,0,0,1,1.029,1.029h0a1.032,1.032,0,0,1-1.029,1.028h0a1.028,1.028,0,0,1-1.028-1.028h0A1.024,1.024,0,0,1,955.38,76.6Z"
                  transform="translate(-954.352 -76.604)" fill="#45d"/>
            <path d="M964.38,76.6a1.024,1.024,0,0,1,1.029,1.029h0a1.029,1.029,0,0,1-1.029,1.028h0a1.032,1.032,0,0,1-1.029-1.028h0A1.028,1.028,0,0,1,964.38,76.6Z"
                  transform="translate(-958.724 -76.604)" fill="#45d"/>
            <path d="M973.38,76.6a1.028,1.028,0,0,1,1.029,1.029h0a1.032,1.032,0,0,1-1.029,1.028h0a1.028,1.028,0,0,1-1.029-1.028h0A1.024,1.024,0,0,1,973.38,76.6Z"
                  transform="translate(-963.096 -76.604)" fill="#45d"/>
            <path d="M982.38,76.6a1.028,1.028,0,0,1,1.029,1.029h0a1.032,1.032,0,0,1-1.029,1.028h0a1.029,1.029,0,0,1-1.029-1.028h0A1.025,1.025,0,0,1,982.38,76.6Z"
                  transform="translate(-967.467 -76.604)" fill="#45d"/>
            <path d="M991.38,76.6a1.028,1.028,0,0,1,1.029,1.029h0a1.032,1.032,0,0,1-1.029,1.028h0a1.029,1.029,0,0,1-1.028-1.028h0A1.025,1.025,0,0,1,991.38,76.6Z"
                  transform="translate(-971.839 -76.604)" fill="#45d"/>
            <path d="M1001.353,80.6" transform="translate(-977.183 -78.547)" fill="#45d"/>
        </g>
        <g transform="translate(1204.585 77.779)">
            <path d="M1531.02,165.963a1.028,1.028,0,0,1,1.028-1.028h0a1.032,1.032,0,0,1,1.029,1.028h0a1.028,1.028,0,0,1-1.029,1.029h0A1.024,1.024,0,0,1,1531.02,165.963Z"
                  transform="translate(-1531.02 -142.822)" fill="#45d"/>
            <path d="M1531.02,156.963a1.025,1.025,0,0,1,1.028-1.028h0a1.029,1.029,0,0,1,1.029,1.028h0a1.032,1.032,0,0,1-1.029,1.029h0A1.027,1.027,0,0,1,1531.02,156.963Z"
                  transform="translate(-1531.02 -138.451)" fill="#45d"/>
            <path d="M1531.02,147.963a1.028,1.028,0,0,1,1.028-1.028h0a1.032,1.032,0,0,1,1.029,1.028h0a1.028,1.028,0,0,1-1.029,1.029h0A1.024,1.024,0,0,1,1531.02,147.963Z"
                  transform="translate(-1531.02 -134.079)" fill="#45d"/>
            <path d="M1531.02,138.963a1.028,1.028,0,0,1,1.028-1.028h0a1.032,1.032,0,0,1,1.029,1.028h0a1.029,1.029,0,0,1-1.029,1.029h0A1.024,1.024,0,0,1,1531.02,138.963Z"
                  transform="translate(-1531.02 -129.707)" fill="#45d"/>
            <path d="M1531.02,129.964a1.028,1.028,0,0,1,1.028-1.029h0a1.032,1.032,0,0,1,1.029,1.029h0a1.029,1.029,0,0,1-1.029,1.028h0A1.024,1.024,0,0,1,1531.02,129.964Z"
                  transform="translate(-1531.02 -125.335)" fill="#45d"/>
            <path d="M1535.02,121.935" transform="translate(-1532.963 -121.935)" fill="#45d"/>
        </g>
        <g transform="translate(1204.585 174.286)">
            <path d="M1531.02,353.63a1.028,1.028,0,0,1,1.028-1.029h0a1.032,1.032,0,0,1,1.029,1.029h0a1.028,1.028,0,0,1-1.029,1.029h0A1.024,1.024,0,0,1,1531.02,353.63Z"
                  transform="translate(-1531.02 -330.489)" fill="#45d"/>
            <path d="M1531.02,344.63a1.025,1.025,0,0,1,1.028-1.028h0a1.029,1.029,0,0,1,1.029,1.028h0a1.032,1.032,0,0,1-1.029,1.029h0A1.027,1.027,0,0,1,1531.02,344.63Z"
                  transform="translate(-1531.02 -326.118)" fill="#45d"/>
            <path d="M1531.02,335.631a1.028,1.028,0,0,1,1.028-1.029h0a1.032,1.032,0,0,1,1.029,1.029h0a1.028,1.028,0,0,1-1.029,1.028h0A1.024,1.024,0,0,1,1531.02,335.631Z"
                  transform="translate(-1531.02 -321.746)" fill="#45d"/>
            <path d="M1531.02,326.63a1.028,1.028,0,0,1,1.028-1.029h0a1.032,1.032,0,0,1,1.029,1.029h0a1.029,1.029,0,0,1-1.029,1.029h0A1.024,1.024,0,0,1,1531.02,326.63Z"
                  transform="translate(-1531.02 -317.374)" fill="#45d"/>
            <path d="M1531.02,317.63a1.028,1.028,0,0,1,1.028-1.028h0a1.032,1.032,0,0,1,1.029,1.028h0a1.028,1.028,0,0,1-1.029,1.029h0A1.024,1.024,0,0,1,1531.02,317.63Z"
                  transform="translate(-1531.02 -313.002)" fill="#45d"/>
            <path d="M1535.02,309.6" transform="translate(-1532.963 -309.602)" fill="#45d"/>
        </g>
        <g transform="translate(1204.585 241.824)">
            <path d="M1533.077,441.964a1.025,1.025,0,0,1-1.029,1.029h0a1.028,1.028,0,0,1-1.028-1.029h0a1.028,1.028,0,0,1,1.028-1.029h0A1.024,1.024,0,0,1,1533.077,441.964Z"
                  transform="translate(-1531.02 -440.935)" fill="#45d"/>
            <path d="M1533.077,450.963a1.028,1.028,0,0,1-1.029,1.029h0a1.032,1.032,0,0,1-1.028-1.029h0a1.028,1.028,0,0,1,1.028-1.028h0A1.024,1.024,0,0,1,1533.077,450.963Z"
                  transform="translate(-1531.02 -445.307)" fill="#45d"/>
            <path d="M1533.077,459.963a1.025,1.025,0,0,1-1.029,1.029h0a1.028,1.028,0,0,1-1.028-1.029h0a1.032,1.032,0,0,1,1.028-1.028h0A1.028,1.028,0,0,1,1533.077,459.963Z"
                  transform="translate(-1531.02 -449.678)" fill="#45d"/>
            <path d="M1533.077,468.964a1.028,1.028,0,0,1-1.029,1.029h0a1.032,1.032,0,0,1-1.028-1.029h0a1.028,1.028,0,0,1,1.028-1.029h0A1.024,1.024,0,0,1,1533.077,468.964Z"
                  transform="translate(-1531.02 -454.05)" fill="#45d"/>
            <path d="M1533.077,477.963a1.028,1.028,0,0,1-1.029,1.029h0a1.032,1.032,0,0,1-1.028-1.029h0a1.029,1.029,0,0,1,1.028-1.028h0A1.025,1.025,0,0,1,1533.077,477.963Z"
                  transform="translate(-1531.02 -458.422)" fill="#45d"/>
            <path d="M1533.077,486.963a1.028,1.028,0,0,1-1.029,1.029h0a1.032,1.032,0,0,1-1.028-1.029h0a1.029,1.029,0,0,1,1.028-1.028h0A1.025,1.025,0,0,1,1533.077,486.963Z"
                  transform="translate(-1531.02 -462.794)" fill="#45d"/>
            <path d="M1533.077,495.963a1.028,1.028,0,0,1-1.029,1.029h0a1.032,1.032,0,0,1-1.028-1.029h0a1.029,1.029,0,0,1,1.028-1.029h0A1.025,1.025,0,0,1,1533.077,495.963Z"
                  transform="translate(-1531.02 -467.166)" fill="#45d"/>
            <path d="M1533.077,504.963a1.028,1.028,0,0,1-1.029,1.029h0a1.032,1.032,0,0,1-1.028-1.029h0a1.029,1.029,0,0,1,1.028-1.028h0A1.025,1.025,0,0,1,1533.077,504.963Z"
                  transform="translate(-1531.02 -471.537)" fill="#45d"/>
        </g>
        <g transform="translate(1204.585 317.676)">
            <path d="M1533.077,589.464a1.025,1.025,0,0,1-1.029,1.029h0a1.028,1.028,0,0,1-1.028-1.029h0a1.028,1.028,0,0,1,1.028-1.029h0A1.024,1.024,0,0,1,1533.077,589.464Z"
                  transform="translate(-1531.02 -588.435)" fill="#45d"/>
            <path d="M1533.077,598.463a1.028,1.028,0,0,1-1.029,1.029h0a1.032,1.032,0,0,1-1.028-1.029h0a1.028,1.028,0,0,1,1.028-1.028h0A1.024,1.024,0,0,1,1533.077,598.463Z"
                  transform="translate(-1531.02 -592.807)" fill="#45d"/>
            <path d="M1533.077,607.463a1.025,1.025,0,0,1-1.029,1.029h0a1.028,1.028,0,0,1-1.028-1.029h0a1.032,1.032,0,0,1,1.028-1.028h0A1.028,1.028,0,0,1,1533.077,607.463Z"
                  transform="translate(-1531.02 -597.179)" fill="#45d"/>
            <path d="M1533.077,616.464a1.028,1.028,0,0,1-1.029,1.028h0a1.032,1.032,0,0,1-1.028-1.028h0a1.028,1.028,0,0,1,1.028-1.029h0A1.024,1.024,0,0,1,1533.077,616.464Z"
                  transform="translate(-1531.02 -601.55)" fill="#45d"/>
            <path d="M1533.077,625.464a1.028,1.028,0,0,1-1.029,1.029h0a1.032,1.032,0,0,1-1.028-1.029h0a1.029,1.029,0,0,1,1.028-1.029h0A1.025,1.025,0,0,1,1533.077,625.464Z"
                  transform="translate(-1531.02 -605.922)" fill="#45d"/>
            <path d="M1533.077,634.463a1.028,1.028,0,0,1-1.029,1.029h0a1.032,1.032,0,0,1-1.028-1.029h0a1.029,1.029,0,0,1,1.028-1.028h0A1.025,1.025,0,0,1,1533.077,634.463Z"
                  transform="translate(-1531.02 -610.294)" fill="#45d"/>
            <path d="M1533.077,643.464a1.028,1.028,0,0,1-1.029,1.029h0a1.032,1.032,0,0,1-1.028-1.029h0a1.029,1.029,0,0,1,1.028-1.029h0A1.025,1.025,0,0,1,1533.077,643.464Z"
                  transform="translate(-1531.02 -614.666)" fill="#45d"/>
            <path d="M1533.077,652.464a1.028,1.028,0,0,1-1.029,1.029h0a1.032,1.032,0,0,1-1.028-1.029h0a1.029,1.029,0,0,1,1.028-1.029h0A1.025,1.025,0,0,1,1533.077,652.464Z"
                  transform="translate(-1531.02 -619.037)" fill="#45d"/>
            <path d="M1533.077,660.463a1.028,1.028,0,0,1-1.029,1.029h0a1.032,1.032,0,0,1-1.028-1.029h0a1.029,1.029,0,0,1,1.028-1.029h0A1.025,1.025,0,0,1,1533.077,660.463Z"
                  transform="translate(-1531.02 -622.923)" fill="#45d"/>
        </g>
        <g transform="translate(862.294 198.912)">
            <path d="M874.816,367.281a11.9,11.9,0,0,1,14.611-1.729c-1.552,1.537-3.344,3.331-3.344,3.331-1.253,1.5.154,2.371.869,2.348l8.375,0c.442,0,.8,0,.8,0h2.432a.806.806,0,0,0,.8-.8V358.912a1.275,1.275,0,0,0-2.3-.9s-1.977,1.925-3.341,3.277a17.8,17.8,0,0,0-28.3,15.16h5.957a11.836,11.836,0,0,1,3.437-9.169"
                  transform="translate(-865.406 -357.488)" fill="#45d"/>
            <path d="M895.8,390.469a11.863,11.863,0,0,1-18.048,10.9c1.551-1.538,3.344-3.332,3.344-3.332,1.251-1.5-.154-2.371-.87-2.348l-8.373,0c-.442,0-.8,0-.8,0h-2.433a.806.806,0,0,0-.8.805v11.514a1.275,1.275,0,0,0,2.3.9s1.974-1.924,3.339-3.275a17.8,17.8,0,0,0,28.307-15.158H895.8Z"
                  transform="translate(-866.571 -373.509)" fill="#45d"/>
        </g>
        <path d="M904.373,539.835a7.4,7.4,0,0,0-3.139-6.055,17.319,17.319,0,0,0-34.637,0,7.413,7.413,0,0,0,4.011,13.466,1.05,1.05,0,0,0,1.05,1.051h3.117a1.053,1.053,0,0,0,1.053-1.051V532.422a1.052,1.052,0,0,0-1.053-1.051h-3.116a1.049,1.049,0,0,0-1.051,1.051,7.449,7.449,0,0,0-1.142.155,14.511,14.511,0,0,1,28.9,0,7.481,7.481,0,0,0-1.143-.155,1.049,1.049,0,0,0-1.051-1.051h-3.115A1.051,1.051,0,0,0,892,532.422v14.823a1.052,1.052,0,0,0,1.052,1.051h3.118a1.05,1.05,0,0,0,1.05-1.051,7.491,7.491,0,0,0,2.265-.449l1.469-.732a7.388,7.388,0,0,0,3.417-6.229"
              transform="translate(-2.165 -235.859)" fill="#45d"/>
        <g transform="translate(943.582 360.535)">
            <rect width="36.34" height="22.284" transform="translate(0.88 1.314)" fill="#fff"/>
            <path d="M1060.141,671.779h-33.707c-1.434,0-2.957.9-2.957,2.346v23.948c0,1.439,1.523,3.38,2.957,3.38h12.93a3.9,3.9,0,0,1-4.229,4.456v1.108h15.632v-1.108c-4.769,0-3.564-4.456-3.564-4.456h12.938c1.431,0,2.284-1.939,2.284-3.38V674.125A2.14,2.14,0,0,0,1060.141,671.779Zm-16.847,28.178a1.836,1.836,0,1,1,1.836-1.835A1.834,1.834,0,0,1,1043.294,699.957Zm16.482-5.659h-33.914V674.164h33.914Z"
                  transform="translate(-1023.477 -671.779)" fill="#45d"/>
        </g>
        <g transform="translate(1112.94 355.295)">
            <path d="M1364.054,726.939a11.938,11.938,0,0,0,7.595,2.287,9.018,9.018,0,0,0,10.373,3.021l-6.338-16.893a9.009,9.009,0,0,0-5.815,7.724c-2.964-.675-5.936-3.973-7.839-9l-5.636,2.159C1358.2,721.009,1360.85,724.708,1364.054,726.939Z"
                  transform="translate(-1354.55 -687.088)" fill="#45d"/>
            <path d="M1360.214,676.492a9.015,9.015,0,0,0,9.462,1.994l-6.339-16.9a9.025,9.025,0,0,0-5.825,9.1,11.93,11.93,0,0,0-4.215,6.719c-.956,3.82-.5,8.39,1.307,13.218.015.04.033.077.048.117l5.636-2.159-.032-.079C1358.354,683.436,1358.416,678.963,1360.214,676.492Z"
                  transform="translate(-1352.808 -661.59)" fill="#45d"/>
        </g>
        <g transform="translate(880.608 161.772)">
            <path d="M903.076,286.3a1.025,1.025,0,0,1-1.028,1.028h0a1.029,1.029,0,0,1-1.029-1.028h0a1.028,1.028,0,0,1,1.029-1.029h0A1.024,1.024,0,0,1,903.076,286.3Z"
                  transform="translate(-901.019 -285.268)" fill="#45d"/>
            <path d="M903.076,295.3a1.028,1.028,0,0,1-1.028,1.029h0a1.032,1.032,0,0,1-1.029-1.029h0a1.028,1.028,0,0,1,1.029-1.028h0A1.024,1.024,0,0,1,903.076,295.3Z"
                  transform="translate(-901.019 -289.64)" fill="#45d"/>
            <path d="M903.076,304.3a1.025,1.025,0,0,1-1.028,1.029h0a1.029,1.029,0,0,1-1.029-1.029h0a1.032,1.032,0,0,1,1.029-1.029h0A1.028,1.028,0,0,1,903.076,304.3Z"
                  transform="translate(-901.019 -294.012)" fill="#45d"/>
            <path d="M903.076,313.3a1.028,1.028,0,0,1-1.028,1.028h0a1.032,1.032,0,0,1-1.029-1.028h0a1.028,1.028,0,0,1,1.029-1.029h0A1.024,1.024,0,0,1,903.076,313.3Z"
                  transform="translate(-901.019 -298.383)" fill="#45d"/>
            <path d="M903.076,322.3a1.028,1.028,0,0,1-1.028,1.029h0a1.032,1.032,0,0,1-1.029-1.029h0a1.029,1.029,0,0,1,1.029-1.028h0A1.025,1.025,0,0,1,903.076,322.3Z"
                  transform="translate(-901.019 -302.755)" fill="#45d"/>
            <path d="M903.076,331.3a1.028,1.028,0,0,1-1.028,1.028h0a1.032,1.032,0,0,1-1.029-1.028h0a1.029,1.029,0,0,1,1.029-1.029h0A1.025,1.025,0,0,1,903.076,331.3Z"
                  transform="translate(-901.019 -307.127)" fill="#45d"/>
            <path d="M903.076,340.3a1.028,1.028,0,0,1-1.028,1.029h0a1.032,1.032,0,0,1-1.029-1.029h0a1.029,1.029,0,0,1,1.029-1.028h0A1.025,1.025,0,0,1,903.076,340.3Z"
                  transform="translate(-901.019 -311.499)" fill="#45d"/>
            <path d="M903.076,349.3a1.028,1.028,0,0,1-1.028,1.029h0a1.032,1.032,0,0,1-1.029-1.029h0a1.029,1.029,0,0,1,1.029-1.029h0A1.025,1.025,0,0,1,903.076,349.3Z"
                  transform="translate(-901.019 -315.87)" fill="#45d"/>
        </g>
        <g transform="translate(880.608 77.093)">
            <path d="M903.076,121.631a1.025,1.025,0,0,1-1.028,1.028h0a1.029,1.029,0,0,1-1.029-1.028h0a1.028,1.028,0,0,1,1.029-1.029h0A1.024,1.024,0,0,1,903.076,121.631Z"
                  transform="translate(-901.019 -120.602)" fill="#45d"/>
            <path d="M903.076,130.63a1.028,1.028,0,0,1-1.028,1.028h0a1.032,1.032,0,0,1-1.029-1.028h0a1.028,1.028,0,0,1,1.029-1.029h0A1.024,1.024,0,0,1,903.076,130.63Z"
                  transform="translate(-901.019 -124.974)" fill="#45d"/>
            <path d="M903.076,139.63a1.025,1.025,0,0,1-1.028,1.028h0a1.029,1.029,0,0,1-1.029-1.028h0a1.032,1.032,0,0,1,1.029-1.029h0A1.028,1.028,0,0,1,903.076,139.63Z"
                  transform="translate(-901.019 -129.346)" fill="#45d"/>
            <path d="M903.076,148.63a1.028,1.028,0,0,1-1.028,1.028h0a1.032,1.032,0,0,1-1.029-1.028h0a1.028,1.028,0,0,1,1.029-1.029h0A1.024,1.024,0,0,1,903.076,148.63Z"
                  transform="translate(-901.019 -133.717)" fill="#45d"/>
            <path d="M903.076,157.631a1.028,1.028,0,0,1-1.028,1.029h0a1.032,1.032,0,0,1-1.029-1.029h0a1.029,1.029,0,0,1,1.029-1.029h0A1.024,1.024,0,0,1,903.076,157.631Z"
                  transform="translate(-901.019 -138.089)" fill="#45d"/>
            <path d="M903.076,166.63a1.028,1.028,0,0,1-1.028,1.028h0a1.032,1.032,0,0,1-1.029-1.028h0a1.029,1.029,0,0,1,1.029-1.028h0A1.024,1.024,0,0,1,903.076,166.63Z"
                  transform="translate(-901.019 -142.461)" fill="#45d"/>
            <path d="M903.076,175.63a1.028,1.028,0,0,1-1.028,1.029h0a1.032,1.032,0,0,1-1.029-1.029h0a1.029,1.029,0,0,1,1.029-1.028h0A1.024,1.024,0,0,1,903.076,175.63Z"
                  transform="translate(-901.019 -146.833)" fill="#45d"/>
            <path d="M903.076,184.63a1.028,1.028,0,0,1-1.028,1.028h0a1.032,1.032,0,0,1-1.029-1.028h0a1.029,1.029,0,0,1,1.029-1.029h0A1.024,1.024,0,0,1,903.076,184.63Z"
                  transform="translate(-901.019 -151.204)" fill="#45d"/>
        </g>
        <g transform="translate(880.608 240.967)">
            <path d="M903.076,440.3a1.025,1.025,0,0,1-1.028,1.029h0a1.029,1.029,0,0,1-1.029-1.029h0a1.028,1.028,0,0,1,1.029-1.029h0A1.024,1.024,0,0,1,903.076,440.3Z"
                  transform="translate(-901.019 -439.268)" fill="#45d"/>
            <path d="M903.076,449.3a1.028,1.028,0,0,1-1.028,1.029h0a1.032,1.032,0,0,1-1.029-1.029h0a1.028,1.028,0,0,1,1.029-1.029h0A1.024,1.024,0,0,1,903.076,449.3Z"
                  transform="translate(-901.019 -443.64)" fill="#45d"/>
            <path d="M903.076,458.3a1.025,1.025,0,0,1-1.028,1.029h0a1.029,1.029,0,0,1-1.029-1.029h0a1.032,1.032,0,0,1,1.029-1.028h0A1.028,1.028,0,0,1,903.076,458.3Z"
                  transform="translate(-901.019 -448.012)" fill="#45d"/>
            <path d="M903.076,467.3a1.028,1.028,0,0,1-1.028,1.029h0a1.032,1.032,0,0,1-1.029-1.029h0a1.028,1.028,0,0,1,1.029-1.029h0A1.024,1.024,0,0,1,903.076,467.3Z"
                  transform="translate(-901.019 -452.383)" fill="#45d"/>
            <path d="M903.076,476.3a1.028,1.028,0,0,1-1.028,1.029h0a1.032,1.032,0,0,1-1.029-1.029h0a1.029,1.029,0,0,1,1.029-1.028h0A1.024,1.024,0,0,1,903.076,476.3Z"
                  transform="translate(-901.019 -456.755)" fill="#45d"/>
            <path d="M903.076,485.3a1.028,1.028,0,0,1-1.028,1.029h0a1.032,1.032,0,0,1-1.029-1.029h0a1.029,1.029,0,0,1,1.029-1.029h0A1.024,1.024,0,0,1,903.076,485.3Z"
                  transform="translate(-901.019 -461.127)" fill="#45d"/>
            <path d="M903.076,494.3a1.028,1.028,0,0,1-1.028,1.028h0a1.032,1.032,0,0,1-1.029-1.028h0a1.029,1.029,0,0,1,1.029-1.029h0A1.024,1.024,0,0,1,903.076,494.3Z"
                  transform="translate(-901.019 -465.499)" fill="#45d"/>
            <path d="M903.076,503.3a1.028,1.028,0,0,1-1.028,1.029h0a1.032,1.032,0,0,1-1.029-1.029h0a1.029,1.029,0,0,1,1.029-1.028h0A1.024,1.024,0,0,1,903.076,503.3Z"
                  transform="translate(-901.019 -469.87)" fill="#45d"/>
        </g>
        <g transform="translate(880.78 314.675)">
            <path d="M903.41,583.628a1.025,1.025,0,0,1-1.029,1.029h0a1.029,1.029,0,0,1-1.028-1.029h0a1.028,1.028,0,0,1,1.028-1.028h0A1.024,1.024,0,0,1,903.41,583.628Z"
                  transform="translate(-901.353 -582.6)" fill="#45d"/>
            <path d="M903.41,592.628a1.028,1.028,0,0,1-1.029,1.028h0a1.032,1.032,0,0,1-1.028-1.028h0a1.028,1.028,0,0,1,1.028-1.029h0A1.024,1.024,0,0,1,903.41,592.628Z"
                  transform="translate(-901.353 -586.972)" fill="#45d"/>
            <path d="M903.41,601.628a1.025,1.025,0,0,1-1.029,1.029h0a1.029,1.029,0,0,1-1.028-1.029h0a1.032,1.032,0,0,1,1.028-1.029h0A1.028,1.028,0,0,1,903.41,601.628Z"
                  transform="translate(-901.353 -591.344)" fill="#45d"/>
            <path d="M903.41,610.628a1.028,1.028,0,0,1-1.029,1.028h0a1.032,1.032,0,0,1-1.028-1.028h0a1.028,1.028,0,0,1,1.028-1.028h0A1.024,1.024,0,0,1,903.41,610.628Z"
                  transform="translate(-901.353 -595.715)" fill="#45d"/>
            <path d="M903.41,619.628a1.028,1.028,0,0,1-1.029,1.028h0a1.032,1.032,0,0,1-1.028-1.028h0a1.028,1.028,0,0,1,1.028-1.029h0A1.024,1.024,0,0,1,903.41,619.628Z"
                  transform="translate(-901.353 -600.087)" fill="#45d"/>
            <path d="M903.41,628.628a1.028,1.028,0,0,1-1.029,1.029h0a1.032,1.032,0,0,1-1.028-1.029h0a1.028,1.028,0,0,1,1.028-1.029h0A1.024,1.024,0,0,1,903.41,628.628Z"
                  transform="translate(-901.353 -604.459)" fill="#45d"/>
            <path d="M903.41,637.628a1.028,1.028,0,0,1-1.029,1.029h0a1.032,1.032,0,0,1-1.028-1.029h0a1.029,1.029,0,0,1,1.028-1.029h0A1.024,1.024,0,0,1,903.41,637.628Z"
                  transform="translate(-901.353 -608.831)" fill="#45d"/>
            <path d="M903.41,646.628a1.028,1.028,0,0,1-1.029,1.029h0a1.032,1.032,0,0,1-1.028-1.029h0a1.028,1.028,0,0,1,1.028-1.028h0A1.024,1.024,0,0,1,903.41,646.628Z"
                  transform="translate(-901.353 -613.202)" fill="#45d"/>
        </g>
        <g transform="translate(906.065 378.527)">
            <path d="M951.55,706.766a1.024,1.024,0,0,1,1.028,1.028h0a1.028,1.028,0,0,1-1.028,1.029h0a1.028,1.028,0,0,1-1.029-1.029h0A1.024,1.024,0,0,1,951.55,706.766Z"
                  transform="translate(-950.522 -706.766)" fill="#45d"/>
            <path d="M960.55,706.766a1.027,1.027,0,0,1,1.028,1.028h0a1.032,1.032,0,0,1-1.028,1.029h0a1.028,1.028,0,0,1-1.029-1.029h0A1.024,1.024,0,0,1,960.55,706.766Z"
                  transform="translate(-954.894 -706.766)" fill="#45d"/>
            <path d="M969.55,706.766a1.024,1.024,0,0,1,1.029,1.028h0a1.029,1.029,0,0,1-1.029,1.029h0a1.032,1.032,0,0,1-1.029-1.029h0A1.028,1.028,0,0,1,969.55,706.766Z"
                  transform="translate(-959.266 -706.766)" fill="#45d"/>
            <path d="M978.55,706.766a1.027,1.027,0,0,1,1.029,1.028h0a1.032,1.032,0,0,1-1.029,1.029h0a1.028,1.028,0,0,1-1.029-1.029h0A1.024,1.024,0,0,1,978.55,706.766Z"
                  transform="translate(-963.637 -706.766)" fill="#45d"/>
            <path d="M987.55,706.766a1.027,1.027,0,0,1,1.029,1.028h0a1.032,1.032,0,0,1-1.029,1.029h0a1.029,1.029,0,0,1-1.028-1.029h0A1.025,1.025,0,0,1,987.55,706.766Z"
                  transform="translate(-968.009 -706.766)" fill="#45d"/>
            <path d="M996.55,706.766a1.027,1.027,0,0,1,1.029,1.028h0a1.032,1.032,0,0,1-1.029,1.029h0a1.029,1.029,0,0,1-1.029-1.029h0A1.024,1.024,0,0,1,996.55,706.766Z"
                  transform="translate(-972.381 -706.766)" fill="#45d"/>
            <path d="M1005.55,706.766a1.028,1.028,0,0,1,1.029,1.028h0a1.032,1.032,0,0,1-1.029,1.029h0a1.029,1.029,0,0,1-1.029-1.029h0A1.025,1.025,0,0,1,1005.55,706.766Z"
                  transform="translate(-976.753 -706.766)" fill="#45d"/>
            <path d="M1014.55,706.766a1.027,1.027,0,0,1,1.029,1.028h0a1.032,1.032,0,0,1-1.029,1.029h0a1.029,1.029,0,0,1-1.028-1.029h0A1.025,1.025,0,0,1,1014.55,706.766Z"
                  transform="translate(-981.124 -706.766)" fill="#45d"/>
        </g>
        <g transform="translate(986.201 378.27)">
            <path d="M1107.381,706.266a1.024,1.024,0,0,1,1.029,1.029h0a1.029,1.029,0,0,1-1.029,1.028h0a1.028,1.028,0,0,1-1.028-1.028h0A1.024,1.024,0,0,1,1107.381,706.266Z"
                  transform="translate(-1106.353 -706.266)" fill="#45d"/>
            <path d="M1116.382,706.266a1.028,1.028,0,0,1,1.028,1.029h0a1.032,1.032,0,0,1-1.028,1.028h0a1.028,1.028,0,0,1-1.029-1.028h0A1.024,1.024,0,0,1,1116.382,706.266Z"
                  transform="translate(-1110.725 -706.266)" fill="#45d"/>
            <path d="M1125.382,706.266a1.025,1.025,0,0,1,1.029,1.029h0a1.029,1.029,0,0,1-1.029,1.028h0a1.032,1.032,0,0,1-1.028-1.028h0A1.028,1.028,0,0,1,1125.382,706.266Z"
                  transform="translate(-1115.097 -706.266)" fill="#45d"/>
            <path d="M1134.382,706.266a1.028,1.028,0,0,1,1.029,1.029h0a1.032,1.032,0,0,1-1.029,1.028h0a1.028,1.028,0,0,1-1.028-1.028h0A1.024,1.024,0,0,1,1134.382,706.266Z"
                  transform="translate(-1119.469 -706.266)" fill="#45d"/>
            <path d="M1143.383,706.266a1.028,1.028,0,0,1,1.028,1.029h0a1.032,1.032,0,0,1-1.028,1.028h0a1.029,1.029,0,0,1-1.029-1.028h0A1.024,1.024,0,0,1,1143.383,706.266Z"
                  transform="translate(-1123.841 -706.266)" fill="#45d"/>
            <path d="M1152.383,706.266a1.028,1.028,0,0,1,1.028,1.029h0a1.032,1.032,0,0,1-1.028,1.028h0a1.029,1.029,0,0,1-1.029-1.028h0A1.024,1.024,0,0,1,1152.383,706.266Z"
                  transform="translate(-1128.212 -706.266)" fill="#45d"/>
            <path d="M1161.383,706.266a1.028,1.028,0,0,1,1.028,1.029h0a1.032,1.032,0,0,1-1.028,1.028h0a1.029,1.029,0,0,1-1.029-1.028h0A1.024,1.024,0,0,1,1161.383,706.266Z"
                  transform="translate(-1132.584 -706.266)" fill="#45d"/>
            <path d="M1170.382,706.266a1.028,1.028,0,0,1,1.029,1.029h0a1.032,1.032,0,0,1-1.029,1.028h0a1.028,1.028,0,0,1-1.028-1.028h0A1.024,1.024,0,0,1,1170.382,706.266Z"
                  transform="translate(-1136.956 -706.266)" fill="#45d"/>
        </g>
        <g transform="translate(1070.366 378.614)">
            <path d="M1271.049,706.935a1.025,1.025,0,0,1,1.028,1.028h0a1.029,1.029,0,0,1-1.028,1.028h0a1.028,1.028,0,0,1-1.029-1.028h0A1.024,1.024,0,0,1,1271.049,706.935Z"
                  transform="translate(-1270.02 -706.935)" fill="#45d"/>
            <path d="M1280.048,706.935a1.028,1.028,0,0,1,1.029,1.028h0a1.032,1.032,0,0,1-1.029,1.028h0a1.027,1.027,0,0,1-1.028-1.028h0A1.024,1.024,0,0,1,1280.048,706.935Z"
                  transform="translate(-1274.392 -706.935)" fill="#45d"/>
            <path d="M1289.049,706.935a1.025,1.025,0,0,1,1.028,1.028h0a1.028,1.028,0,0,1-1.028,1.028h0a1.032,1.032,0,0,1-1.029-1.028h0A1.028,1.028,0,0,1,1289.049,706.935Z"
                  transform="translate(-1278.764 -706.935)" fill="#45d"/>
            <path d="M1298.048,706.935a1.028,1.028,0,0,1,1.029,1.028h0a1.032,1.032,0,0,1-1.029,1.028h0a1.027,1.027,0,0,1-1.028-1.028h0A1.024,1.024,0,0,1,1298.048,706.935Z"
                  transform="translate(-1283.135 -706.935)" fill="#45d"/>
            <path d="M1307.048,706.935a1.028,1.028,0,0,1,1.029,1.028h0a1.032,1.032,0,0,1-1.029,1.028h0a1.028,1.028,0,0,1-1.028-1.028h0A1.025,1.025,0,0,1,1307.048,706.935Z"
                  transform="translate(-1287.507 -706.935)" fill="#45d"/>
            <path d="M1316.049,706.935a1.028,1.028,0,0,1,1.028,1.028h0a1.032,1.032,0,0,1-1.028,1.028h0a1.028,1.028,0,0,1-1.029-1.028h0A1.025,1.025,0,0,1,1316.049,706.935Z"
                  transform="translate(-1291.879 -706.935)" fill="#45d"/>
            <path d="M1325.048,706.935a1.028,1.028,0,0,1,1.028,1.028h0a1.032,1.032,0,0,1-1.028,1.028h0a1.028,1.028,0,0,1-1.028-1.028h0A1.024,1.024,0,0,1,1325.048,706.935Z"
                  transform="translate(-1296.251 -706.935)" fill="#45d"/>
            <path d="M1334.048,706.935a1.028,1.028,0,0,1,1.028,1.028h0a1.032,1.032,0,0,1-1.028,1.028h0a1.028,1.028,0,0,1-1.028-1.028h0A1.024,1.024,0,0,1,1334.048,706.935Z"
                  transform="translate(-1300.622 -706.935)" fill="#45d"/>
        </g>
        <g transform="translate(1142.276 378.784)">
            <path d="M1410.882,707.266a1.025,1.025,0,0,1,1.028,1.029h0a1.029,1.029,0,0,1-1.028,1.029h0a1.028,1.028,0,0,1-1.028-1.029h0A1.024,1.024,0,0,1,1410.882,707.266Z"
                  transform="translate(-1409.854 -707.266)" fill="#45d"/>
            <path d="M1419.883,707.266a1.028,1.028,0,0,1,1.028,1.029h0a1.032,1.032,0,0,1-1.028,1.029h0a1.028,1.028,0,0,1-1.029-1.029h0A1.024,1.024,0,0,1,1419.883,707.266Z"
                  transform="translate(-1414.226 -707.266)" fill="#45d"/>
            <path d="M1428.882,707.266a1.025,1.025,0,0,1,1.029,1.029h0a1.029,1.029,0,0,1-1.029,1.029h0a1.032,1.032,0,0,1-1.028-1.029h0A1.028,1.028,0,0,1,1428.882,707.266Z"
                  transform="translate(-1418.598 -707.266)" fill="#45d"/>
            <path d="M1437.883,707.266a1.028,1.028,0,0,1,1.028,1.029h0a1.032,1.032,0,0,1-1.028,1.029h0a1.028,1.028,0,0,1-1.029-1.029h0A1.024,1.024,0,0,1,1437.883,707.266Z"
                  transform="translate(-1422.969 -707.266)" fill="#45d"/>
            <path d="M1446.883,707.266a1.028,1.028,0,0,1,1.028,1.029h0a1.032,1.032,0,0,1-1.028,1.029h0a1.029,1.029,0,0,1-1.029-1.029h0A1.024,1.024,0,0,1,1446.883,707.266Z"
                  transform="translate(-1427.341 -707.266)" fill="#45d"/>
            <path d="M1455.882,707.266a1.028,1.028,0,0,1,1.029,1.029h0a1.032,1.032,0,0,1-1.029,1.029h0a1.029,1.029,0,0,1-1.028-1.029h0A1.024,1.024,0,0,1,1455.882,707.266Z"
                  transform="translate(-1431.713 -707.266)" fill="#45d"/>
            <path d="M1464.882,707.266a1.028,1.028,0,0,1,1.028,1.029h0a1.032,1.032,0,0,1-1.028,1.029h0a1.029,1.029,0,0,1-1.029-1.029h0A1.024,1.024,0,0,1,1464.882,707.266Z"
                  transform="translate(-1436.084 -707.266)" fill="#45d"/>
            <path d="M1473.883,707.266a1.028,1.028,0,0,1,1.028,1.029h0a1.032,1.032,0,0,1-1.028,1.029h0a1.029,1.029,0,0,1-1.029-1.029h0A1.024,1.024,0,0,1,1473.883,707.266Z"
                  transform="translate(-1440.456 -707.266)" fill="#45d"/>
        </g>
    </g>
</svg>
