<svg xmlns:xlink="http://www.w3.org/1999/xlink" xmlns="http://www.w3.org/2000/svg" width="559" height="491.489"
     viewBox="0 0 559 491.489">
    <defs>
        <linearGradient id="a" y1="0.5" x2="1" y2="0.5" gradientUnits="objectBoundingBox">
            <stop offset="0" stop-color="#ff9f55"/>
            <stop offset="1" stop-color="#ffd255"/>
        </linearGradient>
        <linearGradient id="b" x1="-0.463" y1="0.5" x2="0.537" y2="0.5" gradientUnits="objectBoundingBox">
            <stop offset="0" stop-color="#e37e30"/>
            <stop offset="1" stop-color="#e8a12e"/>
        </linearGradient>
        <linearGradient id="c" x1="-0.03" y1="0.5" x2="1.081" y2="0.5" xlink:href="#a"/>
        <linearGradient id="d" y1="0.5" x2="1" y2="0.5" gradientUnits="objectBoundingBox">
            <stop offset="0" stop-color="#404b61"/>
            <stop offset="0.486" stop-color="#3b475f"/>
            <stop offset="1" stop-color="#2f3e5c"/>
        </linearGradient>
    </defs>
    <g transform="translate(-88.947 -18.33)">
        <g transform="translate(521.273 251.024)">
            <path d="M553.878,285H496.514v-1.025h56.34V237.7h1.025Z" transform="translate(-496.514 -237.697)"
                  fill="#45d"/>
        </g>
        <g transform="translate(530.471 173.142)">
            <g transform="translate(10.894 14.581)">
                <path d="M542.881,205.448H515.455V178.022h27.426Zm-26.512-.914h25.6v-25.6h-25.6Z"
                      transform="translate(-515.455 -178.022)"
                      fill="#45d"/>
                <g transform="translate(32.911 3.351)">
                    <path d="M609.257,187.886H546.481v-6.705h62.776Zm-61.861-.914h60.948V182.1H547.4Z"
                          transform="translate(-546.481 -181.181)" fill="#45d"/>
                </g>
                <g transform="translate(0 34.53)">
                    <path d="M611.142,217.279H515.455v-6.705h95.687Zm-94.774-.914h93.861v-4.876H516.368Z"
                          transform="translate(-515.455 -210.574)" fill="#45d"/>
                </g>
                <g transform="translate(0 47.405)">
                    <path d="M576.4,229.416H515.455v-6.7H576.4Zm-60.034-.913h59.121v-4.876H516.368Z"
                          transform="translate(-515.455 -222.712)" fill="#45d"/>
                </g>
                <g transform="translate(32.911 16.14)">
                    <path d="M588.993,199.942H546.481v-6.7h42.512Zm-41.6-.914h40.682v-4.875H547.4Z"
                          transform="translate(-546.481 -193.238)"
                          fill="#45d"/>
                </g>
            </g>
            <path d="M622.661,247.546H505.185v-83.27H622.661ZM506.1,246.633H621.747V165.19H506.1Z"
                  transform="translate(-505.185 -164.276)"
                  fill="#45d"/>
        </g>
        <g transform="translate(574.364 244.189)">
            <path d="M550.325,238.778a3.762,3.762,0,1,1,3.761-3.761A3.766,3.766,0,0,1,550.325,238.778Zm0-6.5a2.737,2.737,0,1,0,2.737,2.738A2.74,2.74,0,0,0,550.325,232.279Z"
                  transform="translate(-546.564 -231.254)" fill="#45d"/>
        </g>
        <g transform="translate(116.306 206.71)">
            <path d="M183.269,217h-68.53l.119-.61a12.081,12.081,0,0,1,11.844-9.742,11.957,11.957,0,0,1,2.469.257,20.567,20.567,0,0,1,34.805-2.548,15.019,15.019,0,0,1,19.2,12.052ZM116,215.974h66.058a13.993,13.993,0,0,0-18.12-10.532l-.361.12-.22-.311a19.544,19.544,0,0,0-33.456,2.47l-.184.366-.4-.1A11.038,11.038,0,0,0,116,215.974Z"
                  transform="translate(-114.739 -195.921)" fill="#45d"/>
        </g>
        <g transform="translate(227.153 449.61)">
            <path d="M447.142,424.91H234.45l-15.212,56.854H462.354Z" transform="translate(-219.238 -424.91)"
                  fill="url(#a)"/>
            <path d="M235.3,439.145h13.917a.838.838,0,0,1,.911.939l-1.347,6.054a.9.9,0,0,1-.912.645H233.716a.833.833,0,0,1-.9-.964l1.585-6.054A.908.908,0,0,1,235.3,439.145Z"
                  transform="translate(-218.415 -424.046)" fill="#fff"/>
            <path d="M254.385,439.145h10.521l-1.4,7.638H252.785Z" transform="translate(-217.2 -424.046)" fill="#fff"/>
            <path d="M269.246,439.145h10.52l-1.1,7.638-10.722.01Z" transform="translate(-216.279 -424.046)"
                  fill="#fff"/>
            <path d="M284.106,439.145h10.52l-.8,7.638H283.105Z" transform="translate(-215.358 -424.046)" fill="#fff"/>
            <path d="M298.965,439.145h10.521l-.5,7.638H298.265Z" transform="translate(-214.437 -424.046)" fill="#fff"/>
            <path d="M313.825,439.145h10.521l-.2,7.638-10.721.01Z" transform="translate(-213.516 -424.046)"
                  fill="#fff"/>
            <path d="M433.757,439.145H417.977l1.7,7.638h16.081Z" transform="translate(-207.165 -424.046)" fill="#fff"/>
            <path d="M413.62,439.145H403.1l1.4,7.638h10.722Z" transform="translate(-208.068 -424.046)" fill="#fff"/>
            <path d="M398.742,439.145H388.223l1.1,7.638,10.721.01Z" transform="translate(-208.972 -424.046)"
                  fill="#fff"/>
            <path d="M383.866,439.145H373.345l.8,7.638h10.721Z" transform="translate(-209.876 -424.046)" fill="#fff"/>
            <path d="M368.988,439.145h-10.52l.5,7.638h10.719Z" transform="translate(-210.78 -424.046)" fill="#fff"/>
            <path d="M354.11,439.145H343.59l.2,7.638,10.721.01Z" transform="translate(-211.683 -424.046)" fill="#fff"/>
            <path d="M328.68,439.145H339.2l.175,7.638h-10.7Z" transform="translate(-212.589 -424.046)" fill="#fff"/>
            <path d="M230.89,451.709h21.984l-1.252,7.878h-22.4Z" transform="translate(-218.631 -423.282)" fill="#fff"/>
            <path d="M437.646,451.709H410.472l1.548,7.878h27.69Z" transform="translate(-207.62 -423.282)" fill="#fff"/>
            <path d="M405.97,451.709H395.1l1.238,7.878h11.077Z" transform="translate(-208.554 -423.282)" fill="#fff"/>
            <path d="M390.6,451.709H379.73l.929,7.878h11.076Z" transform="translate(-209.488 -423.282)" fill="#fff"/>
            <path d="M375.229,451.709H364.358l.619,7.878h11.076Z" transform="translate(-210.422 -423.282)" fill="#fff"/>
            <path d="M359.858,451.709h-10.87l.31,7.878h11.076Z" transform="translate(-211.356 -423.282)" fill="#fff"/>
            <path d="M227.816,464.947h22.475l-1.64,7.825H225.766Z" transform="translate(-218.841 -422.478)"
                  fill="#fff"/>
            <path d="M254.271,464.947h11.238l-1.332,7.825H252.734Z" transform="translate(-217.203 -422.478)"
                  fill="#fff"/>
            <path d="M270.145,464.947H354.42l.314,7.825h-85.82Z" transform="translate(-216.22 -422.478)" fill="#fff"/>
            <path d="M354.827,464.947h11.237l.615,7.825H355.237Z" transform="translate(-211.001 -422.478)" fill="#fff"/>
            <path d="M370.718,464.947h11.237l.923,7.825H371.435Z" transform="translate(-210.035 -422.478)" fill="#fff"/>
            <path d="M386.609,464.947h11.237l1.23,7.825H387.635Z" transform="translate(-209.07 -422.478)" fill="#fff"/>
            <path d="M402.5,464.947h11.237l1.538,7.825H403.832Z" transform="translate(-208.105 -422.478)" fill="#fff"/>
            <path d="M418.392,464.947h22.475l2.05,7.825H420.03Z" transform="translate(-207.139 -422.478)" fill="#fff"/>
            <path d="M344.5,451.709H333.722v7.878H344.71Z" transform="translate(-212.283 -423.282)" fill="#fff"/>
            <path d="M329.155,451.709h-10.87l-.31,7.878h11.076Z" transform="translate(-213.24 -423.282)" fill="#fff"/>
            <path d="M313.8,451.709h-10.87l-.619,7.878H313.39Z" transform="translate(-214.191 -423.282)" fill="#fff"/>
            <path d="M298.449,451.709h-10.87l-.929,7.878h11.076Z" transform="translate(-215.143 -423.282)" fill="#fff"/>
            <path d="M283.1,451.709h-10.87l-1.238,7.878h11.076Z" transform="translate(-216.094 -423.282)" fill="#fff"/>
            <path d="M267.743,451.709h-10.87l-1.548,7.878H266.4Z" transform="translate(-217.046 -423.282)" fill="#fff"/>
            <path d="M235.642,435.011l1.786-6.818h5.108l-1.667,6.818Z" transform="translate(-218.241 -424.711)"
                  fill="#fff"/>
            <path d="M247.05,428.192h10.216l-1.429,6.818H245.442Z" transform="translate(-217.646 -424.711)"
                  fill="#fff"/>
            <path d="M261.481,428.192H271.7l-1.161,6.818h-10.4Z" transform="translate(-216.753 -424.711)" fill="#fff"/>
            <path d="M275.912,428.192h10.216l-.893,6.818H274.841Z" transform="translate(-215.86 -424.711)" fill="#fff"/>
            <path d="M290.344,428.192h10.216l-.625,6.818h-10.4Z" transform="translate(-214.967 -424.711)" fill="#fff"/>
            <path d="M304.776,428.192h10.216l-.357,6.818H304.24Z" transform="translate(-214.074 -424.711)" fill="#fff"/>
            <path d="M319.207,428.192h10.217l-.089,6.818h-10.4Z" transform="translate(-213.181 -424.711)" fill="#fff"/>
            <path d="M333.639,428.192h10.216l.179,6.818h-10.4Z" transform="translate(-212.288 -424.711)" fill="#fff"/>
            <path d="M348.085,428.192H358.3l.445,6.818H348.354Z" transform="translate(-211.41 -424.711)" fill="#fff"/>
            <path d="M362.532,428.192h10.217l.715,6.818h-10.4Z" transform="translate(-210.533 -424.711)" fill="#fff"/>
            <path d="M376.98,428.192H387.2l.982,6.818H377.784Z" transform="translate(-209.655 -424.711)" fill="#fff"/>
            <path d="M391.427,428.192h10.216l1.25,6.818H392.5Z" transform="translate(-208.777 -424.711)" fill="#fff"/>
            <path d="M405.873,428.192H416.09l1.517,6.818H407.214Z" transform="translate(-207.9 -424.711)" fill="#fff"/>
            <path d="M420.32,428.192h10.216l1.787,6.818h-10.4Z" transform="translate(-207.022 -424.711)" fill="#fff"/>
            <rect width="243.116" height="3.355" transform="translate(0 56.854)" fill="url(#b)"/>
        </g>
        <g transform="translate(332.709 329.196)">
            <rect width="33.459" height="101.626" transform="translate(33.459 101.626) rotate(180)" fill="#518afa"/>
        </g>
        <g transform="translate(204.98 174.334)">
            <rect width="288.917" height="203.816" rx="9.587" transform="translate(288.917 203.816) rotate(180)"
                  fill="url(#c)"/>
        </g>
        <g transform="translate(215.193 184.317)">
            <rect width="267.979" height="156.786" transform="translate(267.979 156.786) rotate(180)" fill="url(#d)"/>
        </g>
        <g transform="translate(340.12 351.506)">
            <path d="M325.735,341.744a9.32,9.32,0,1,0,9.32-9.319A9.32,9.32,0,0,0,325.735,341.744Z"
                  transform="translate(-325.735 -332.425)"
                  fill="#696969"/>
        </g>
        <rect width="150.526" height="7.672" transform="translate(274.175 426.986)" fill="url(#a)"/>
        <g transform="translate(416.55 63.551)">
            <path d="M419.2,103.656l-.233-.12c-24.319-12.415-21.053-36.461-21.018-36.7l.066-.437h.441c15.461,0,20.321-4.983,20.369-5.034l.377-.4.374.4c.046.049,4.906,5.032,20.366,5.032h.442l.066.437c.036.242,3.3,24.288-21.019,36.7ZM398.918,67.419c-.307,3.258-1.331,23.9,20.286,35.086,21.616-11.188,20.592-31.829,20.286-35.086-13.427-.084-18.889-3.823-20.286-5.01C417.806,63.6,412.344,67.335,398.918,67.419Z"
                  transform="translate(-397.788 -60.961)" fill="#45d"/>
        </g>
        <g transform="translate(230.595 196.322)">
            <rect width="30.013" height="3.074" transform="translate(0)" fill="#e0e0e0"/>
        </g>
        <g transform="translate(269.008 219.462)">
            <rect width="21.67" height="3.073" fill="#e0e0e0"/>
        </g>
        <g transform="translate(294.053 219.462)">
            <rect width="14.38" height="3.073" fill="#1487e3"/>
        </g>
        <g transform="translate(323.432 312.363)">
            <rect width="14.38" height="3.074" fill="#1487e3"/>
        </g>
        <g transform="translate(230.936 277.653)">
            <rect width="14.38" height="3.072" transform="translate(0)" fill="#1487e3"/>
        </g>
        <g transform="translate(311.274 219.462)">
            <rect width="34.719" height="3.073" fill="#e0e0e0"/>
        </g>
        <g transform="translate(230.936 265.999)">
            <rect width="22.309" height="3.071" transform="translate(0)" fill="#e0e0e0"/>
        </g>
        <g transform="translate(290.882 289.223)">
            <rect width="22.309" height="3.073" fill="#e0e0e0"/>
        </g>
        <g transform="translate(374.214 312.363)">
            <rect width="22.31" height="3.074" fill="#e0e0e0"/>
        </g>
        <g transform="translate(262.034 289.223)">
            <rect width="13.619" height="3.073" fill="#e0e0e0"/>
        </g>
        <g transform="translate(230.936 289.223)">
            <rect width="26.983" height="3.073" transform="translate(0)" fill="#1487e3"/>
        </g>
        <g transform="translate(230.936 300.793)">
            <rect width="14.883" height="3.074" transform="translate(0)" fill="#e0e0e0"/>
        </g>
        <g transform="translate(266.447 196.322)">
            <rect width="21.306" height="3.074" fill="#78c2ff"/>
        </g>
        <g transform="translate(266.447 231.032)">
            <rect width="21.306" height="3.074" fill="#1487e3"/>
        </g>
        <g transform="translate(255.794 242.602)">
            <rect width="9.103" height="3.073" fill="#e0e0e0"/>
        </g>
        <g transform="translate(246.691 254.343)">
            <rect width="20.447" height="3.073" fill="#78c2ff"/>
        </g>
        <g transform="translate(270.229 254.343)">
            <rect width="28.228" height="3.073" fill="#1487e3"/>
        </g>
        <g transform="translate(359.625 300.793)">
            <rect width="28.228" height="3.074" fill="#1487e3"/>
        </g>
        <g transform="translate(230.936 242.687)">
            <rect width="21.306" height="3.073" transform="translate(0)" fill="#1487e3"/>
        </g>
        <g transform="translate(230.936 254.343)">
            <rect width="12.642" height="3.073" transform="translate(0)" fill="#1487e3"/>
        </g>
        <g transform="translate(269.189 242.687)">
            <rect width="11.927" height="3.073" fill="#ff8761"/>
        </g>
        <g transform="translate(231.293 312.363)">
            <rect width="11.927" height="3.074" fill="#ff8761"/>
        </g>
        <g transform="translate(230.85 219.462)">
            <rect width="21.306" height="3.073" fill="#78c2ff"/>
        </g>
        <g transform="translate(249.693 277.653)">
            <rect width="21.306" height="3.072" fill="#78c2ff"/>
        </g>
        <g transform="translate(249.955 300.793)">
            <rect width="21.306" height="3.074" fill="#78c2ff"/>
        </g>
        <g transform="translate(287.805 300.793)">
            <rect width="21.306" height="3.074" fill="#78c2ff"/>
        </g>
        <g transform="translate(230.85 231.032)">
            <rect width="30.372" height="3.074" fill="#78c2ff"/>
        </g>
        <g transform="translate(373.175 196.322)">
            <rect width="21.306" height="3.074" fill="#78c2ff"/>
        </g>
        <g transform="translate(297.274 312.363)">
            <rect width="21.307" height="3.074" fill="#78c2ff"/>
        </g>
        <g transform="translate(401.11 196.322)">
            <rect width="14.262" height="3.074" fill="#78c2ff"/>
        </g>
        <g transform="translate(449.364 207.892)">
            <rect width="14.262" height="3.072" fill="#78c2ff"/>
        </g>
        <g transform="translate(293.49 196.322)">
            <rect width="27.145" height="3.074" fill="#1487e3"/>
        </g>
        <g transform="translate(401.11 312.363)">
            <rect width="27.145" height="3.074" fill="#1487e3"/>
        </g>
        <g transform="translate(247.723 312.363)">
            <rect width="27.145" height="3.074" fill="#1487e3"/>
        </g>
        <g transform="translate(399.256 207.892)">
            <rect width="27.144" height="3.072" fill="#1487e3"/>
        </g>
        <g transform="translate(365.963 219.462)">
            <rect width="27.146" height="3.073" fill="#1487e3"/>
        </g>
        <g transform="translate(342.376 312.363)">
            <rect width="27.144" height="3.074" fill="#1487e3"/>
        </g>
        <g transform="translate(338.198 289.223)">
            <rect width="27.145" height="3.073" fill="#1487e3"/>
        </g>
        <g transform="translate(279.917 289.223)">
            <rect width="5.851" height="3.073" fill="#ff8761"/>
        </g>
        <g transform="translate(400.481 225.166)">
            <rect width="28.832" height="3.073" transform="matrix(0.995, 0.098, -0.098, 0.995, 0.301, 0)"
                  fill="#78c2ff"/>
        </g>
        <g transform="translate(340.712 196.322)">
            <rect width="27.144" height="3.074" fill="#ff8761"/>
        </g>
        <g transform="translate(302.683 223.694)">
            <path d="M332.484,233.484l-42.043-18.747,1.256-2.8,42.042,18.746Z" transform="translate(-290.442 -211.933)"
                  fill="#1487e3"/>
        </g>
        <g transform="translate(297.274 277.824)">
            <rect width="15.917" height="3.072" fill="#ff8761"/>
        </g>
        <g transform="translate(325.654 196.322)">
            <rect width="9.936" height="3.074" fill="#e0e0e0"/>
        </g>
        <g transform="translate(293.49 231.032)">
            <rect width="9.936" height="3.074" fill="#e0e0e0"/>
        </g>
        <g transform="translate(432.947 207.892)">
            <rect width="9.936" height="3.072" fill="#e0e0e0"/>
        </g>
        <g transform="translate(230.595 207.892)">
            <rect width="15.545" height="3.072" transform="translate(0)" fill="#1487e3"/>
        </g>
        <g transform="translate(272.07 266.083)">
            <rect width="12.273" height="3.072" fill="#1487e3"/>
        </g>
        <g transform="translate(249.955 207.892)">
            <rect width="5.019" height="3.072" fill="#1487e3"/>
        </g>
        <g transform="translate(352.995 207.892)">
            <rect width="41.486" height="3.072" fill="#e0e0e0"/>
        </g>
        <g transform="translate(313.191 300.793)">
            <rect width="41.485" height="3.074" fill="#e0e0e0"/>
        </g>
        <g transform="translate(258.662 207.892)">
            <rect width="5.122" height="3.072" fill="#ff8761"/>
        </g>
        <g transform="translate(335.59 207.892)">
            <rect width="13.574" height="3.072" fill="#1487e3"/>
        </g>
        <g transform="translate(349.163 219.462)">
            <rect width="13.572" height="3.073" fill="#ff8761"/>
        </g>
        <g transform="translate(318.868 289.223)">
            <rect width="13.572" height="3.073" fill="#ff8761"/>
        </g>
        <g transform="translate(279.371 312.363)">
            <rect width="13.573" height="3.074" fill="#ff8761"/>
        </g>
        <g transform="translate(303.118 207.892)">
            <rect width="28.878" height="3.072" fill="#1487e3"/>
        </g>
        <g transform="translate(370.312 289.223)">
            <rect width="28.879" height="3.073" fill="#1487e3"/>
        </g>
        <g transform="translate(276.238 277.824)">
            <rect width="16.872" height="3.072" fill="#1487e3"/>
        </g>
        <g transform="translate(275.153 300.793)">
            <rect width="8.436" height="3.074" fill="#1487e3"/>
        </g>
        <g transform="translate(289.085 207.892)">
            <rect width="9.936" height="3.072" fill="#78c2ff"/>
        </g>
        <g transform="translate(391.556 300.793)">
            <rect width="9.935" height="3.074" fill="#ff8761"/>
        </g>
        <g transform="translate(255.64 219.462)">
            <rect width="9.936" height="3.073" fill="#ff8761"/>
        </g>
        <g transform="translate(257.621 266.083)">
            <rect width="9.936" height="3.072" fill="#ff8761"/>
        </g>
        <g transform="translate(267.983 207.892)">
            <rect width="17.312" height="3.072" fill="#1487e3"/>
        </g>
        <g transform="translate(155.191 223.089)">
            <path d="M226.8,266.767H151.4v-55.4h1.024v54.38H226.8Z" transform="translate(-151.398 -211.363)"
                  fill="#45d"/>
        </g>
        <g transform="translate(382.32 99.622)">
            <path d="M366.543,216.342h-1.024V143.013h55.133V94.967h1.025v49.07H366.543Z"
                  transform="translate(-365.519 -94.967)"
                  fill="#45d"/>
        </g>
        <g transform="translate(226.779 324.349)">
            <g transform="translate(0)">
                <path d="M218.9,306.826a.02.02,0,0,0-.014,0C218.94,306.849,218.948,306.852,218.9,306.826Z"
                      transform="translate(-218.885 -306.824)" fill="#323657"/>
            </g>
        </g>
        <g transform="translate(463.073 110.148)">
            <path d="M450.436,113.671h-8.789v-1.024h7.766v-7.758h1.023Z" transform="translate(-441.647 -104.889)"
                  fill="#45d"/>
        </g>
        <g transform="translate(403.968 110.148)">
            <path d="M394.716,113.671h-8.789v-8.782h1.023v7.758h7.766Z" transform="translate(-385.927 -104.889)"
                  fill="#45d"/>
        </g>
        <g transform="translate(403.971 51.038)">
            <path d="M386.954,57.955H385.93v-8.79h8.783V50.19h-7.759Z" transform="translate(-385.93 -49.165)"
                  fill="#45d"/>
        </g>
        <g transform="translate(463.073 51.042)">
            <path d="M450.436,57.951h-1.023V50.194h-7.766V49.169h8.789Z" transform="translate(-441.647 -49.169)"
                  fill="#45d"/>
        </g>
        <g transform="translate(470.839 72.95)">
            <rect width="1.023" height="24.072" fill="#45d"/>
        </g>
        <g transform="translate(403.968 72.95)">
            <rect width="1.023" height="24.072" fill="#45d"/>
        </g>
        <g transform="translate(151.941 216.077)">
            <path d="M152.1,212.277a3.762,3.762,0,1,1,3.761-3.762A3.766,3.766,0,0,1,152.1,212.277Zm0-6.5a2.737,2.737,0,1,0,2.737,2.737A2.741,2.741,0,0,0,152.1,205.778Z"
                  transform="translate(-148.333 -204.752)" fill="#45d"/>
        </g>
        <g transform="translate(434.203 92.61)">
            <path d="M418.192,95.881a3.762,3.762,0,1,1,3.76-3.762A3.767,3.767,0,0,1,418.192,95.881Zm0-6.5a2.737,2.737,0,1,0,2.737,2.737A2.74,2.74,0,0,0,418.192,89.382Z"
                  transform="translate(-414.43 -88.356)" fill="#45d"/>
        </g>
        <g transform="translate(156.284 56.123)">
            <path d="M178.252,79.783H152.428V53.959h25.824Zm-24.8-1.025h23.776V54.984H153.453Z"
                  transform="translate(-152.428 -53.959)"
                  fill="#45d"/>
        </g>
        <g transform="translate(168.684 63.162)">
            <rect width="1.024" height="12.036" transform="translate(0)" fill="#45d"/>
        </g>
        <g transform="translate(163.178 68.668)">
            <rect width="12.036" height="1.024" transform="translate(0)" fill="#45d"/>
        </g>
        <g transform="translate(538.724 86.748)">
            <path d="M549.877,109.18H512.965V82.83h36.912Zm-35.887-1.025h34.862v-24.3H513.99Z"
                  transform="translate(-512.965 -82.83)"
                  fill="#45d"/>
        </g>
        <g transform="translate(538.909 86.865)">
            <path d="M531.41,98.783,513.14,83.73l.652-.79L531.41,97.456,549.028,82.94l.65.79Z"
                  transform="translate(-513.14 -82.94)"
                  fill="#45d"/>
        </g>
        <g transform="translate(561.503 98.266)">
            <rect width="1.025" height="19.252" transform="matrix(0.726, -0.688, 0.688, 0.726, 0, 0.705)" fill="#45d"/>
        </g>
        <g transform="translate(538.866 98.264)">
            <rect width="19.251" height="1.024" transform="translate(0 13.973) rotate(-46.539)" fill="#45d"/>
        </g>
        <g transform="translate(118.067 283.857)">
            <path d="M122.5,281.518l-.384-1a5.461,5.461,0,0,1-1.011-.232l-.784.736-2.273-1.619.437-.982a5.423,5.423,0,0,1-.549-.878l-1.075-.034-.465-2.754,1-.383a5.3,5.3,0,0,1,.232-1.01l-.735-.784,1.619-2.274.98.438a5.372,5.372,0,0,1,.878-.549l.035-1.075,2.753-.465.384,1a5.5,5.5,0,0,1,1.011.231l.783-.735,2.274,1.619-.437.98a5.526,5.526,0,0,1,.549.879l1.073.034.465,2.752-1,.386a5.4,5.4,0,0,1-.231,1.01l.735.783-1.618,2.275-.982-.438a5.327,5.327,0,0,1-.878.549l-.034,1.075Zm-1.575-2.121.225.086a4.636,4.636,0,0,0,1.274.293l.24.021.329.86,1.512-.256.03-.921.221-.1a4.636,4.636,0,0,0,1.106-.694l.185-.154.84.376.889-1.25-.63-.671.086-.225a4.667,4.667,0,0,0,.292-1.272l.021-.241.86-.329-.255-1.512-.922-.03-.1-.22a4.707,4.707,0,0,0-.693-1.107l-.155-.184.374-.841-1.25-.888-.67.629-.225-.087a4.715,4.715,0,0,0-1.273-.291l-.24-.022-.329-.859-1.513.255-.03.92-.22.1a4.659,4.659,0,0,0-1.106.692l-.185.156-.841-.376-.889,1.25.63.671-.086.224a4.675,4.675,0,0,0-.292,1.273l-.02.24-.861.33.256,1.513.92.028.1.22a4.631,4.631,0,0,0,.693,1.107l.155.184-.376.841,1.25.889Zm1.9-1.276a3.02,3.02,0,0,1-1.753-.563h0a3.036,3.036,0,1,1,2.264.52A2.981,2.981,0,0,1,122.827,278.12Zm.01-5.3a2.267,2.267,0,0,0-1.317,4.114h0a2.266,2.266,0,1,0,1.316-4.114Z"
                  transform="translate(-116.399 -268.65)" fill="#45d"/>
        </g>
        <g transform="translate(88.947 271.091)">
            <path d="M102.845,285.461l-.858-2.241A12.1,12.1,0,0,1,99.3,282.6l-1.748,1.641L92.8,280.866l.978-2.19a12.133,12.133,0,0,1-1.465-2.34l-2.4-.075-.967-5.747,2.24-.857a12.145,12.145,0,0,1,.617-2.691l-1.641-1.748,3.378-4.748,2.189.978a12.1,12.1,0,0,1,2.34-1.465l.076-2.4,5.746-.969.857,2.241a12.087,12.087,0,0,1,2.691.617l1.748-1.641,4.748,3.377-.977,2.19a12.24,12.24,0,0,1,1.465,2.34l2.4.076.968,5.746-2.241.857a12.166,12.166,0,0,1-.616,2.692l1.641,1.747-3.378,4.748-2.189-.978a12.223,12.223,0,0,1-2.34,1.466l-.077,2.4Zm-3.786-4.04.3.113a11.107,11.107,0,0,0,3.038.7l.32.028.785,2.053,4.091-.691.07-2.2.294-.13a11.167,11.167,0,0,0,2.641-1.653l.245-.207,2,.9,2.406-3.383-1.5-1.6.115-.3a11.137,11.137,0,0,0,.7-3.038l.028-.319,2.053-.785-.689-4.091-2.2-.07-.13-.294a11.122,11.122,0,0,0-1.653-2.641l-.207-.246.9-2-3.382-2.406-1.6,1.5-.3-.115a11.134,11.134,0,0,0-3.038-.7l-.319-.028-.786-2.053-4.091.691-.07,2.2-.293.13a11.115,11.115,0,0,0-2.641,1.654l-.246.206-2-.9-2.406,3.382,1.5,1.6-.113.3a11.14,11.14,0,0,0-.7,3.037l-.028.319-2.053.785.689,4.091,2.2.071.13.293a11.155,11.155,0,0,0,1.654,2.642l.206.245-.9,2,3.382,2.406Zm4.3-3.757a6.625,6.625,0,1,1,5.409-2.782A6.586,6.586,0,0,1,103.36,277.663Zm.02-12.229a5.657,5.657,0,0,0-.942.079,5.591,5.591,0,1,0,.942-.079Z"
                  transform="translate(-88.947 -256.615)" fill="#45d"/>
        </g>
        <g transform="translate(302.925 93.475)">
            <path d="M309.783,127.394a19.133,19.133,0,0,1-19.113-19.112h1.025A18.087,18.087,0,1,0,309.783,90.2V89.171a19.112,19.112,0,0,1,0,38.223Zm0-2.657a16.454,16.454,0,1,1,16.454-16.454h-1.025a15.43,15.43,0,1,0-15.43,15.43Z"
                  transform="translate(-290.67 -89.171)" fill="#45d"/>
        </g>
        <g transform="translate(312.802 106.618)">
            <path d="M306.875,113.861l-6.893-6.893.725-.724,6.168,6.168,10.851-10.851.725.724Z"
                  transform="translate(-299.982 -101.562)"
                  fill="#45d"/>
        </g>
        <g transform="translate(423.753 223.599)">
            <g transform="translate(56.259 152.927)">
                <path d="M457.615,357.246s.934,3.666,1.061,4.218,5.875-.967,5.875-.967l-.005-4.484S458.291,356.642,457.615,357.246Z"
                      transform="translate(-457.615 -356.012)" fill="#5c544d"/>
            </g>
            <g transform="translate(44.39 157.01)">
                <path d="M459.242,360.763a15.912,15.912,0,0,1-3.295,3.615c-1.683,1.171-8.187,2.686-9.137,3.813-.685.814-1.639,3.892,8.8,2.486,7.413-1,11.072-.747,11.737-2.039s-2.114-8.778-2.114-8.778S463.644,360.724,459.242,360.763Z"
                      transform="translate(-446.426 -359.861)" fill="#3c4145"/>
            </g>
            <g transform="translate(34.213 41.9)">
                <g transform="translate(0 4.123)">
                    <path d="M457.66,467.7,436.832,255.483l2.625-.254,20.829,212.221Z"
                          transform="translate(-436.832 -255.23)"
                          fill="#f0c141"/>
                </g>
                <g transform="translate(42.463 0)">
                    <g transform="translate(0)">
                        <rect width="2.638" height="213.241" transform="matrix(0.995, -0.098, 0.098, 0.995, 0, 0.258)"
                              fill="#f0c141"/>
                    </g>
                </g>
                <g transform="translate(1.666 3.702)">
                    <g transform="translate(0 0)">
                        <rect width="42.662" height="2.637" transform="translate(0 4.123) rotate(-5.546)"
                              fill="#f0c141"/>
                    </g>
                    <g transform="translate(1.915 19.755)">
                        <g transform="translate(0 0)">
                            <rect width="42.662" height="2.638"
                                  transform="matrix(0.995, -0.096, 0.096, 0.995, 0, 4.101)" fill="#f0c141"/>
                        </g>
                    </g>
                    <g transform="translate(3.832 39.49)">
                        <g transform="translate(0 0)">
                            <g transform="translate(0)">
                                <rect width="42.662" height="2.638" transform="translate(0 4.123) rotate(-5.546)"
                                      fill="#f0c141"/>
                            </g>
                        </g>
                    </g>
                    <g transform="translate(5.748 59.244)">
                        <g transform="translate(0 0)">
                            <g transform="translate(0)">
                                <rect width="42.662" height="2.637" transform="translate(0 4.105) rotate(-5.521)"
                                      fill="#f0c141"/>
                            </g>
                        </g>
                    </g>
                    <g transform="translate(7.665 78.973)">
                        <g transform="translate(0 0)">
                            <rect width="42.662" height="2.638" transform="translate(0 4.137) rotate(-5.565)"
                                  fill="#f0c141"/>
                        </g>
                    </g>
                    <g transform="translate(9.581 98.726)">
                        <g transform="translate(0 0)">
                            <g transform="translate(0)">
                                <rect width="42.661" height="2.638" transform="translate(0 4.122) rotate(-5.544)"
                                      fill="#f0c141"/>
                            </g>
                        </g>
                    </g>
                    <g transform="translate(11.497 118.472)">
                        <g transform="translate(0 0)">
                            <g transform="translate(0)">
                                <rect width="42.662" height="2.637"
                                      transform="matrix(0.995, -0.097, 0.097, 0.995, 0, 4.122)"
                                      fill="#f0c141"/>
                            </g>
                        </g>
                    </g>
                    <g transform="translate(13.414 138.218)">
                        <g transform="translate(0 0)">
                            <rect width="42.661" height="2.638" transform="matrix(0.995, -0.097, 0.097, 0.995, 0, 4.12)"
                                  fill="#f0c141"/>
                        </g>
                    </g>
                    <g transform="translate(15.329 157.961)">
                        <g transform="translate(0 0)">
                            <g transform="translate(0)">
                                <rect width="42.662" height="2.637"
                                      transform="matrix(0.995, -0.097, 0.097, 0.995, 0, 4.122)"
                                      fill="#f0c141"/>
                            </g>
                        </g>
                    </g>
                </g>
                <g transform="translate(18.912 181.401)">
                    <g transform="translate(0 0)">
                        <g transform="translate(0)">
                            <rect width="42.661" height="2.637" transform="translate(0 4.138) rotate(-5.567)"
                                  fill="#f0c141"/>
                        </g>
                    </g>
                    <g transform="translate(1.915 19.754)">
                        <g transform="translate(0 0)">
                            <rect width="42.663" height="2.638" transform="translate(0 4.12) rotate(-5.542)"
                                  fill="#f0c141"/>
                        </g>
                    </g>
                </g>
            </g>
            <g transform="translate(40.711 74.059)">
                <path d="M451.416,284.577s-4.184,15.533-5.287,21.085c-.96,4.838-2.893,17.721-3.167,20.784s12.347,32.714,13.66,38.069l11.5-1.847s-12.133-30.859-8.968-37.716c4.707-10.2,5.32-9.891,9.027-18.293s12.2-8.6,14.477-24.189C482.659,282.47,454.5,279.634,451.416,284.577Z"
                      transform="translate(-442.958 -281.66)" fill="#3c4145"/>
            </g>
            <g transform="translate(56.018 0.812)">
                <path d="M470.987,213.308s-7.635-2.851-11.157,2.961-3.181,17.449.668,18.879,9.631.683,11.6-2.954,3.749-8.894,3.664-12.409S472.993,214.323,470.987,213.308Z"
                      transform="translate(-457.388 -212.609)" fill="#eea886"/>
            </g>
            <g transform="translate(60.19 15.959)">
                <path d="M461.541,233.924a6.414,6.414,0,0,1-.2,2.987c-.511.986,9.6,1.013,9.6,1.013a66.559,66.559,0,0,1,2.378-9.895C474.878,223.5,461.541,233.924,461.541,233.924Z"
                      transform="translate(-461.321 -226.888)" fill="#eea886"/>
            </g>
            <g transform="translate(56.904)">
                <path d="M473.511,228.943s-.7,1.151-3.548.7-6.326-4.238-7.515-4.654-1.2-1.115-1.2-1.115l-.746,1.087-1.262.08s1.152-3.391-.587-4.773,1.8-10.977,10.943-7.783c0,0,7.019,1.935,6.763,5.926S475.08,226.954,473.511,228.943Z"
                      transform="translate(-458.223 -211.843)" fill="#3a3f47"/>
            </g>
            <g transform="translate(59.891 9.129)">
                <path d="M461.264,221.9c.159-.669,1.863-2.583,2.514-.535s-.985,4.8-1.9,4.569S460.859,223.6,461.264,221.9Z"
                      transform="translate(-461.04 -220.449)" fill="#eea886"/>
            </g>
            <g transform="translate(75.531 29.332)">
                <path d="M489.491,262.353c-.084,1-1.227,2.085-2.006,2.621a3.281,3.281,0,0,1-1.742.572l-.454.015h0l-7.934.271s-5.9-19.065,5.167-26.336C482.862,239.529,490.26,253.164,489.491,262.353Z"
                      transform="translate(-475.783 -239.495)" fill="#518afa"/>
            </g>
            <g transform="translate(48.263 157.01)">
                <path d="M467.122,368.639c-.666,1.293-4.325,1.041-11.738,2.038a33.757,33.757,0,0,1-4.875.361l-.432-4.46a33.611,33.611,0,0,0,5.648-2.2,15.911,15.911,0,0,0,3.295-3.615c4.4-.037,5.989-.9,5.989-.9S467.788,367.347,467.122,368.639Z"
                      transform="translate(-450.077 -359.861)" fill="#3c4145"/>
            </g>
            <g transform="translate(59.617 24.672)">
                <path d="M461.568,235.832s6.227-1.449,9.736-.264l.53.49s1.066,2.045-2.948,2.221S458.558,238.747,461.568,235.832Z"
                      transform="translate(-460.781 -235.102)" fill="#ffd255"/>
            </g>
            <g transform="translate(84.736 170.071)">
                <path d="M484.461,373.409s.933,3.665,1.061,4.219,5.874-.97,5.874-.97l-.005-4.484S485.137,372.805,484.461,373.409Z"
                      transform="translate(-484.461 -372.174)" fill="#5c544d"/>
            </g>
            <g transform="translate(64.147 74.869)">
                <path d="M481.317,282.424a121.17,121.17,0,0,1,2.716,17.3c.574,8,1.619,16.773,2.447,25.139.925,9.325,3.564,24.4,3.7,29.389s4.336,26.791,4.336,26.791l-10.74,1.234s-6.979-38.529-8.627-42.466-9.822-32.014-10.1-35.166S481.317,282.424,481.317,282.424Z"
                      transform="translate(-465.052 -282.424)" fill="#3c4145"/>
            </g>
            <g transform="translate(72.866 174.154)">
                <path d="M486.088,376.926a15.931,15.931,0,0,1-3.294,3.614c-1.686,1.172-8.189,2.688-9.138,3.813-.686.814-1.639,3.892,8.8,2.486,7.413-1,11.071-.746,11.737-2.039s-2.114-8.778-2.114-8.778S490.49,376.886,486.088,376.926Z"
                      transform="translate(-473.271 -376.023)" fill="#3c4145"/>
            </g>
            <g transform="translate(40.716 25.402)">
                <path d="M449.243,306.764c-.914-.13,2.27-27.4,2.027-29.11-.162-1.14-.137-10-.07-15.527l-1-5.59a25.225,25.225,0,0,0-2.188-1.384c-1.385-.8-3.123-1.713-5.052-2.677.224-1.321.38-2.36.44-2.968a11.167,11.167,0,0,1,5.65-8.609,9.3,9.3,0,0,1,1.289-.643c.711-.3,1.409-.593,2.085-.872,4.5-1.854,10.225-3.593,10.225-3.593h9.191a77.88,77.88,0,0,1,11.167,3.1,7.84,7.84,0,0,1,1.506.826l-1.25,26.2,0,.018-.005.033c-.562,3.688-1.154,8.036-1.351,11.084-.081,1.245,1.342,7.93,2.086,14.066l2.6,14.683S485.09,311.889,449.243,306.764Z"
                      transform="translate(-442.962 -235.79)" fill="#518afa"/>
            </g>
            <g transform="translate(0 4.508)">
                <path d="M404.651,222.98a3.935,3.935,0,0,0,.924.851s.717.27,1.216.494a3.744,3.744,0,0,1,.378.189,7.2,7.2,0,0,0,2.031,1.075c.981.283,5.423,1.294,5.423,1.294l1.032-2.634.74-2.129s-4.109-5.324-4.994-5.693a2.5,2.5,0,0,0-.258-.091,9.182,9.182,0,0,0-1.884-.171c-.155-.029-1.72-.2-2.059.122a1.542,1.542,0,0,0-.532,1.4,3.682,3.682,0,0,0-.946,1.788,2.284,2.284,0,0,0-.617,1.922S404.345,222.334,404.651,222.98Z"
                      transform="translate(-404.578 -216.093)" fill="#eea886"/>
            </g>
            <g transform="translate(6.764 9.903)">
                <path d="M451.852,257.214a61,61,0,0,0-6.946-3.852c-8.551-4.278-19.107-12.033-21.114-13.153-3.087-1.723-12.837-13.635-12.837-13.635.5-1.794,5.126-5.395,5.126-5.395s14.782,14,18.013,15.723c2.777,1.482,16.5,2.979,20.277,3.368l.965.1C459.284,245.751,454.055,258.633,451.852,257.214Z"
                      transform="translate(-410.955 -221.179)" fill="#518afa"/>
            </g>
        </g>
        <g transform="translate(167.148 154.879)">
            <path d="M186.68,160.107a55.6,55.6,0,0,0-4.114-6.545c-1.492-1.733-6.448-3.033-5.775-5.245s7.314-1.252,9.143.914,7.41,2.935,7.6,3.848S191.6,159,190.4,159.817,186.68,160.107,186.68,160.107Z"
                  transform="translate(-161.816 -147.059)" fill="#6a75ba"/>
            <path d="M176.388,163.784a53.508,53.508,0,0,0-6.328-4.385c-2.057-1-7.122-.222-7.382-2.52s6.216-4.053,8.753-2.792,7.966-.248,8.506.514.572,6.2-.2,7.427S176.388,163.784,176.388,163.784Z"
                  transform="translate(-162.67 -146.657)" fill="#545d94"/>
            <path d="M184.545,172.393s1.865-12.752,1.78-14.965c-.023-.631,3.838-.4,3.657.819-.394,2.644,1.39,12.895,1.08,14.772S184.386,173.574,184.545,172.393Z"
                  transform="translate(-161.341 -146.449)" fill="#eea886"/>
            <path d="M179.285,175.881s-3.5-12.382-4.309-14.442c-.363-.915,3.2-2.336,3.681-.7.758,2.565,6.4,11.284,6.858,13.129S179.608,177.029,179.285,175.881Z"
                  transform="translate(-161.924 -146.273)" fill="#eea886"/>
            <path d="M181.572,184.1s-3.753-12.656-4.33-14l5.918-3.657s2.743,8.084,3.128,10.1S181.572,184.1,181.572,184.1Z"
                  transform="translate(-161.785 -145.882)" fill="#207cd6"/>
            <path d="M281.436,151.562s-5.715,1.445-8.434,5.767-5.07,9.3-10.18,11.559a8.4,8.4,0,0,0-4.745,8.974c.4.9,16.095,18.543,19.521,19.226s9.837.207,9.151-4.327-7.406-14.287-3.634-19.208a26.084,26.084,0,0,0,4.724-9.452Z"
                  transform="translate(-156.883 -146.785)" fill="#2e334d"/>
            <path d="M279.584,171.991a2.159,2.159,0,0,0-.447-.082,3.264,3.264,0,0,0-1.338.16,3.166,3.166,0,0,0-.523.26c-1.358.8-4.572,2.973-5.007,3.025-.5.059-.077-7.437-.077-7.437a17.543,17.543,0,0,0,1.926-5.021C274.334,160.9,279.584,171.991,279.584,171.991Z"
                  transform="translate(-156.027 -146.111)" fill="#eea886"/>
            <path d="M244.977,179.466s-6.279-4.4-13.641-3.032-8.156,4.814-10.683,4.969-10.97-.565-17.9,1.455-12.776,2.237-13.57,1.66,4.331-12.126,4.331-13.713l-8.589-2.238s-2.455,10.25-3.417,12.559c-1.029,2.47-3.007,7.122-.192,11.163s10.682,2.22,15.446,3.036,26.086.292,29.81.092c4.041-.216,16.24-.794,16.24-.794Z"
                  transform="translate(-161.625 -145.752)" fill="#207cd6"/>
            <path d="M290.834,157.549s.4,6.2-.977,8.064a8.9,8.9,0,0,1-1.175,1.367,2.725,2.725,0,0,0-.785,1.137c-.425,1.193-.687,2.871-1.027,3.23-.369.391-1.441-.6-1.829-.606s-4.167,3.26-5.069,2.592-6.417-6.262-5.954-10.1,2.155-9.562,8.362-9.527S290.359,156.005,290.834,157.549Z"
                  transform="translate(-155.907 -146.655)" fill="#eea886"/>
            <path d="M274.2,186.313a27.645,27.645,0,0,1-4.9,6.014,5.238,5.238,0,0,1-3.086,1.492c-.3,0-.588,0-.87.012-2.869.076-5.073.517-8.946.71-4.024.2-13.785-.361-14.075-.361s-3.1.5-3.1.5c-1.012-1.226,1.659-15.085,2.164-15.157s3.754,1.155,6.858.649,4.33-.793,8.95-6.206,9.239-6.785,11.188-6.353a24.5,24.5,0,0,0,5.822,0S274.37,185.952,274.2,186.313Z"
                  transform="translate(-158.033 -145.814)" fill="#ffc955"/>
            <path d="M288.343,162.131s1.156,3,1.769,3.41c0,0,2.232-2.361.8-8.187s-6.842-6.374-10.334-5.782c-4.346.736-8.721,15.441-8.5,16.873s5.095-7.6,9.361-6.873S285.743,162.538,288.343,162.131Z"
                  transform="translate(-156.024 -146.796)" fill="#2e334d"/>
            <path d="M278.948,171.663a3.263,3.263,0,0,0-1.338.16,3.165,3.165,0,0,0-.523.26,24.744,24.744,0,0,1-1.953-5.372C275.8,168.732,278.948,171.663,278.948,171.663Z"
                  transform="translate(-155.838 -145.865)" fill="#a77860"/>
            <path d="M267.792,191.48a5.238,5.238,0,0,1-3.086,1.492c-.3,0-.588,0-.87.012l1.182-11.488Z"
                  transform="translate(-156.524 -144.967)" fill="#c29941"/>
            <path d="M290.173,211.4l-2.77,2.52a97.11,97.11,0,0,1-9.533-6.573c-1.209-1.029-9.268-7.769-10.374-9.306s-2.53-17.414-2.386-18.141,7.005-1.086,7.784.594c0,0,.36,9.056.543,10.571a7.851,7.851,0,0,0,1.795,4.16c1.439,1.765,4.5,5.864,7.469,9.177C283.409,205.188,289.259,210.609,290.173,211.4Z"
                  transform="translate(-156.447 -145.101)" fill="#eea886"/>
            <path d="M273.48,181.293s.433-12.059-3.489-11.909c-4.959.189-5.7,6.255-5.029,12.848C264.962,182.232,272.373,182.3,273.48,181.293Z"
                  transform="translate(-156.468 -145.703)" fill="#ffc955"/>
            <path d="M287.659,208.446a2.052,2.052,0,0,0,.9.762c.923.312,2.288-.289,2.962.921s-2.578,4.23-3.45,4.413-2.274-1.175-3.368-3.857S287.659,208.446,287.659,208.446Z"
                  transform="translate(-155.268 -143.331)" fill="#eea886"/>
            <path d="M291.145,209.675a42.245,42.245,0,0,1,3.335,2.883c1.471,1.421,2.967,3.288,2.589,3.64-.516.482-1.519-1.121-3.071-2.438-1.43-1.212-1.348-.745-1.348-.745s-.016-.135,1.288,1.477c1.4,1.732,2.849,3.788,2.417,4.085-.271.186-.284.235-.9-.314.284.387.217.516.067.643-.782.656-3.237-1.587-4.213-2.477.745.687,1.219,1.27.462,1.358-.866.1-4.2-3.217-5.5-4.3C284.848,212.313,291.145,209.675,291.145,209.675Z"
                  transform="translate(-155.174 -143.255)" fill="#eea886"/>
            <path d="M243.957,179.363s-1.323,9.491-.671,14.159a2.4,2.4,0,0,0,2.064.1s.343-10.358,1.113-14.037C246.462,179.583,246.039,179.263,243.957,179.363Z"
                  transform="translate(-157.783 -145.097)" fill="#e0e0e0"/>
        </g>
        <g transform="translate(253.636 18.33)">
            <rect width="1.024" height="177.992" fill="#45d"/>
        </g>
        <g transform="translate(151.609 289.402)">
            <g transform="translate(8.149 166.368)">
                <path d="M162.532,431.187s-.52,3.642-.584,4.189-5.781-.321-5.781-.321l-.464-4.336S161.817,430.674,162.532,431.187Z"
                      transform="translate(-155.703 -430.717)" fill="#5c544d"/>
            </g>
            <g transform="translate(7.256 170.317)">
                <path d="M162.059,434.686a15.5,15.5,0,0,0,3.563,3.151c1.751.956,4.5,1.336,5.54,2.325.748.715,2.724,3.792-4.552,3.731s-10.784.434-11.563-.747,1.129-8.707,1.129-8.707S157.9,435.066,162.059,434.686Z"
                      transform="translate(-154.861 -434.44)" fill="#3c4145"/>
            </g>
            <g transform="translate(49.109 166.368)">
                <path d="M201.146,431.187s-.52,3.642-.585,4.189-5.782-.321-5.782-.321l-.462-4.336S200.432,430.674,201.146,431.187Z"
                      transform="translate(-194.317 -430.717)" fill="#5c544d"/>
            </g>
            <g transform="translate(48.215 170.317)">
                <path d="M200.673,434.686a15.5,15.5,0,0,0,3.563,3.151c1.751.956,8.2,1.742,9.234,2.733.748.715,1.992,3.593-8.245,3.323-7.274-.192-10.784.434-11.563-.747s1.128-8.707,1.128-8.707S196.413,435.108,200.673,434.686Z"
                      transform="translate(-193.474 -434.44)" fill="#3c4145"/>
            </g>
            <g transform="translate(7.256 72.814)">
                <path d="M164.614,342.521s-3.042,9.037-2.641,16.826-1.573,16.31-2.38,24.446c-.9,9.069-4.581,30.542-4.714,35.393s.572,20.345.572,20.345l7.368.17s6.189-37.539,7.792-41.368,9.552-31.138,9.818-34.2S164.614,342.521,164.614,342.521Z"
                      transform="translate(-154.861 -342.521)" fill="#33373b"/>
            </g>
            <g transform="translate(17.009 71.77)">
                <path d="M195.034,344.189s4.048,21.346,4.582,26.112.89,23.067,1.157,26.048,1.782,38.985,3.207,43.411h-9.422s-7.232-26.175-7.232-38.56-5.587-26.924-9.192-35.095-11.862-8.364-14.079-23.524C164.055,342.581,192.032,339.38,195.034,344.189Z"
                      transform="translate(-164.055 -341.537)" fill="#3c4145"/>
            </g>
            <g transform="translate(24.194 0.79)">
                <path d="M175.476,275.3s7.427-2.775,10.851,2.879,3.093,16.97-.649,18.36-9.366.665-11.283-2.872-3.647-8.65-3.563-12.068S173.528,276.288,175.476,275.3Z"
                      transform="translate(-170.829 -274.622)" fill="#eea886"/>
            </g>
            <g transform="translate(26.217 15.521)">
                <path d="M184.316,295.352a6.238,6.238,0,0,0,.2,2.905c.5.959-9.341.984-9.341.984a64.892,64.892,0,0,0-2.311-9.622C171.344,285.212,184.316,295.352,184.316,295.352Z"
                      transform="translate(-172.736 -288.51)" fill="#eea886"/>
            </g>
            <g transform="translate(23.563)">
                <path d="M173.011,290.508s.679,1.119,3.45.685,6.152-4.122,7.31-4.526,1.168-1.085,1.168-1.085l.723,1.059,1.23.076s-1.122-3.3.57-4.642-1.756-10.675-10.644-7.568c0,0-6.826,1.881-6.578,5.763S171.483,288.574,173.011,290.508Z"
                      transform="translate(-170.234 -273.877)" fill="#fccca2"/>
            </g>
            <g transform="translate(27.529 22.458)">
                <path d="M185.021,297.745s-.032-1.833-.862-2.008-9.166-.978-10.185-.577v2.134S175.936,298.5,185.021,297.745Z"
                      transform="translate(-173.973 -295.049)" fill="#e2d2ca"/>
            </g>
            <g transform="translate(35.492 8.878)">
                <path d="M184.07,283.662c-.155-.651-1.811-2.512-2.445-.519s.958,4.672,1.846,4.441S184.465,285.313,184.07,283.662Z"
                      transform="translate(-181.48 -282.247)" fill="#eea886"/>
            </g>
            <g transform="translate(0 24.703)">
                <path d="M186.6,297.617s4.57,1.643,9.862,3.892a11.107,11.107,0,0,1,6.748,9c.35,3.569,4.151,22.514,4.864,24.117s9.139,27.352,9.436,27.886-6.878,3.512-7.353,3.276S202,342.3,201.223,340.576c0,0-4.423-13.939-4.542-16.017,0,0-.127,5.922-.364,7.585s3.933,33.941,3.814,34.832-18.958,2.021-26.5,1.19A92.4,92.4,0,0,1,160.01,365.6s5.934-25.474,5.751-28.3c-.4-6.155-2.453-17.744-2.453-17.744l-6.148,11.59,7.87,20.247-1.8,6.153s-14.623-22.1-15.1-24.116.716-4.591,1.488-6.253,5.842-14.314,7.029-16.095,3.194-8.914,8.044-10.9a75.861,75.861,0,0,1,10.86-3.019Z"
                      transform="translate(-148.021 -297.166)" fill="#495054"/>
            </g>
            <g transform="translate(42.468 68.849)">
                <rect width="35.564" height="24.811" transform="translate(40.612 24.033) rotate(165.617)"
                      fill="#d6d6d6"/>
            </g>
            <g transform="translate(72.195 95.303)">
                <path d="M216.373,363.722s.984,1.591,1.344,2.043-.884.74-1.416.28S216.373,363.722,216.373,363.722Z"
                      transform="translate(-216.081 -363.722)" fill="#c98462"/>
            </g>
            <g transform="translate(62.775 89.512)">
                <path d="M209.738,369.487a3.832,3.832,0,0,1-.706-1s-.173-.726-.327-1.234a4.062,4.062,0,0,0-.136-.387,6.986,6.986,0,0,1-.788-2.094c-.153-.98-.581-5.389-.581-5.389l2.668-.671,2.145-.453s4.63,4.62,4.878,5.518a2.491,2.491,0,0,1,.056.26,8.882,8.882,0,0,1-.067,1.837c.007.153-.015,1.686-.371,1.973a1.5,1.5,0,0,1-1.414.34,3.587,3.587,0,0,1-1.843.693,2.223,2.223,0,0,1-1.931.359S210.324,369.861,209.738,369.487Z"
                      transform="translate(-207.2 -358.263)" fill="#de9d7d"/>
            </g>
            <g transform="translate(54.896 70.063)">
                <path d="M199.773,342.726s6.115,18.518,7.237,20.461a20.169,20.169,0,0,0,7.353-3.276l-6.712-19.983Z"
                      transform="translate(-199.773 -339.928)" fill="#495054"/>
            </g>
        </g>
    </g>
</svg>
