<svg id="keystow-logo-text-final" xmlns="http://www.w3.org/2000/svg" width="144" height="41.983"
     viewBox="0 0 144 41.983">
    <path id="keystow-logo-text-final-2" data-name="keystow-logo-text-final"
          d="M139.844,14.6a.443.443,0,0,1-.052,0c-.029,0-.064-.007-.093-.007a.218.218,0,0,0-.21.108l-7.308,13.463-7.255-13.5a.14.14,0,0,0-.138-.064.755.755,0,0,0-.1,0h-4.271l4.781,8.721a.284.284,0,0,0,.031.05c.012.018.036.056.05.081l-2.517,4.688L115.546,14.66a.143.143,0,0,0-.14-.064.948.948,0,0,0-.108,0H111.02l9.523,17.407c.688,1.262,1.413,1.9,2.151,1.9a1.4,1.4,0,0,0,.756-.235,4.892,4.892,0,0,0,1.533-1.955c.056-.106.115-.212.172-.314l2.248-4.045,2.535,4.659a3.933,3.933,0,0,0,1.56,1.759,1.348,1.348,0,0,0,.583.138c.966,0,1.691-1.095,2.154-1.921L144,14.6h-4.156ZM100.383,13.6a9.71,9.71,0,0,0-7.225,3.009,9.879,9.879,0,0,0-2.97,7.227,10.221,10.221,0,1,0,10.2-10.236Zm4.376,14.66a6.23,6.23,0,0,1-10.586-4.424,5.967,5.967,0,0,1,1.88-4.383,5.816,5.816,0,0,1,4.327-1.867A5.9,5.9,0,0,1,104.8,19.42a5.96,5.96,0,0,1,1.793,4.417,5.978,5.978,0,0,1-1.833,4.417ZM84.826,6.2H80.793V13.9H78.411v4.033h2.382V33.738h4.033V17.929H88.9V13.9H84.826ZM73.11,23.1l-.024-.018a10.294,10.294,0,0,0-1.583-.9,26.762,26.762,0,0,0-2.512-1.009,7.3,7.3,0,0,1-2.07-.955,1.287,1.287,0,0,1-.505-1.063c0-.808.149-1.533,1.921-1.533a3.874,3.874,0,0,1,2.887,1.111l.754.752,3.009-2.607-.867-.867a7.9,7.9,0,0,0-5.78-2.374A5.773,5.773,0,0,0,64.1,15.281a5.154,5.154,0,0,0-1.709,3.88,4.973,4.973,0,0,0,1.778,4.074,11.743,11.743,0,0,0,3.386,1.718c.747.275,1.386.521,1.905.731a8.75,8.75,0,0,1,.988.458,2.029,2.029,0,0,1,.91,1.648c0,1.172-.345,2.255-2.851,2.255a3.58,3.58,0,0,1-2.2-.576l-.032-.022a4.842,4.842,0,0,1-1.4-1.654L64.3,26.75l-3.453,2.071.535.966a7.682,7.682,0,0,0,7.122,4.289,7.234,7.234,0,0,0,4.819-1.716A5.73,5.73,0,0,0,75.39,27.79,5.639,5.639,0,0,0,73.114,23.1ZM49.6,26.2,43.784,13.9H39.4l7.925,17.084-5.072,11h4.471L59.767,13.9H55.334Zm-14-9.866A10.142,10.142,0,0,0,28.343,13.6,9.938,9.938,0,0,0,18.1,23.838,10,10,0,0,0,28.343,34.081a10.856,10.856,0,0,0,3.325-.481,9.622,9.622,0,0,0,5.762-4.805l.562-1.068L34.4,26.079l-.531.858a6.294,6.294,0,0,1-2.735,2.64,7.28,7.28,0,0,1-2.794.512A6,6,0,0,1,23.7,28.333,6.28,6.28,0,0,1,22.149,24.6H38.54V23.457a9.338,9.338,0,0,0-2.949-7.12ZM22.9,20.655a5.572,5.572,0,0,1,5.442-3.067,6.466,6.466,0,0,1,3.921,1.234,4.973,4.973,0,0,1,1.614,1.835H22.9Zm-7.17-7.437H10.023L4.031,19.177V0H0V33.738H4.029v-8.5l8.543,8.5H18.1L6.632,22.269Z"/>
</svg>
