<svg width="224" height="165" viewBox="0 0 224 165" fill="none" xmlns="http://www.w3.org/2000/svg">
<path d="M216.6 121.608C216.573 121.607 216.547 121.605 216.52 121.601C216.474 121.601 216.42 121.59 216.376 121.59C216.311 121.584 216.246 121.596 216.189 121.626C216.131 121.656 216.083 121.702 216.051 121.758L204.727 142.609L193.491 121.709C193.469 121.674 193.437 121.645 193.399 121.628C193.361 121.61 193.319 121.603 193.278 121.609C193.228 121.608 193.177 121.61 193.127 121.616H186.512L193.912 135.124C193.926 135.151 193.942 135.177 193.961 135.201C193.979 135.229 194.017 135.288 194.038 135.327L190.138 142.588L178.954 121.708C178.931 121.672 178.899 121.644 178.86 121.626C178.822 121.608 178.779 121.602 178.737 121.608C178.681 121.607 178.625 121.609 178.569 121.615H171.944L186.7 148.575C187.766 150.529 188.888 151.523 190.032 151.523C190.449 151.517 190.856 151.391 191.203 151.159C192.242 150.371 193.059 149.328 193.577 148.132C193.664 147.967 193.755 147.804 193.843 147.646L197.325 141.381L201.251 148.597C201.76 149.73 202.602 150.68 203.666 151.321C203.946 151.458 204.254 151.531 204.566 151.534C206.066 151.534 207.185 149.834 207.902 148.559L223.029 121.612H216.6V121.608ZM155.481 120.067C153.394 120.025 151.322 120.417 149.395 121.219C147.469 122.022 145.73 123.216 144.29 124.727C142.802 126.182 141.627 127.925 140.836 129.85C140.045 131.775 139.655 133.84 139.69 135.921C139.695 139.053 140.628 142.113 142.372 144.714C144.116 147.315 146.592 149.341 149.488 150.534C152.383 151.728 155.568 152.036 158.638 151.419C161.709 150.802 164.527 149.289 166.737 147.07C168.948 144.851 170.45 142.026 171.054 138.953C171.659 135.881 171.338 132.697 170.133 129.807C168.928 126.916 166.893 124.448 164.285 122.714C161.677 120.98 158.613 120.059 155.481 120.067V120.067ZM162.259 142.774C160.904 144.101 159.188 144.999 157.326 145.356C155.464 145.714 153.537 145.514 151.788 144.783C150.038 144.052 148.543 142.821 147.488 141.245C146.434 139.669 145.867 137.817 145.859 135.921C145.851 134.65 146.106 133.391 146.607 132.223C147.108 131.055 147.845 130.003 148.771 129.132C149.624 128.209 150.661 127.476 151.815 126.978C152.969 126.48 154.214 126.229 155.471 126.241C156.746 126.21 158.014 126.447 159.193 126.936C160.371 127.425 161.434 128.155 162.313 129.08C163.222 129.968 163.937 131.034 164.415 132.211C164.893 133.389 165.122 134.652 165.089 135.922C165.112 137.196 164.872 138.462 164.384 139.639C163.895 140.817 163.169 141.88 162.25 142.764L162.259 142.774ZM131.382 108.61H125.135V120.525H121.446V126.772H125.135V151.255H131.382V126.769H137.7V120.522H131.383L131.382 108.61ZM113.236 134.781L113.198 134.753C112.424 134.219 111.603 133.754 110.747 133.365C109.477 132.779 108.179 132.257 106.856 131.802C105.717 131.48 104.635 130.982 103.65 130.324C103.398 130.131 103.196 129.882 103.06 129.595C102.924 129.309 102.858 128.994 102.868 128.677C102.868 127.426 103.098 126.303 105.843 126.303C106.666 126.267 107.488 126.402 108.258 126.697C109.027 126.993 109.727 127.445 110.314 128.023L111.482 129.187L116.142 125.149L114.8 123.808C113.636 122.618 112.242 121.678 110.703 121.046C109.163 120.413 107.511 120.102 105.847 120.13C104.638 120.087 103.433 120.29 102.304 120.726C101.176 121.162 100.148 121.823 99.282 122.668C98.4399 123.425 97.7685 124.352 97.3123 125.388C96.8561 126.424 96.6256 127.546 96.636 128.678C96.5741 129.871 96.7908 131.063 97.2689 132.158C97.7471 133.253 98.4736 134.222 99.391 134.988C100.983 136.153 102.754 137.052 104.635 137.648C105.792 138.074 106.782 138.455 107.586 138.78C108.111 138.985 108.622 139.222 109.117 139.49C109.541 139.77 109.89 140.148 110.135 140.593C110.381 141.037 110.515 141.534 110.526 142.042C110.526 143.857 109.992 145.534 106.111 145.534C104.909 145.614 103.714 145.301 102.706 144.642L102.656 144.607C101.749 143.928 101.008 143.052 100.488 142.045L99.6 140.431L94.253 143.639L95.082 145.139C96.0896 147.188 97.6652 148.903 99.6209 150.081C101.577 151.259 103.83 151.849 106.112 151.782C108.84 151.835 111.494 150.89 113.575 149.125C114.61 148.265 115.437 147.18 115.991 145.954C116.545 144.727 116.813 143.391 116.775 142.045C116.815 140.64 116.516 139.246 115.902 137.982C115.289 136.718 114.379 135.62 113.251 134.782L113.236 134.781ZM76.816 139.581L67.816 120.521H61.016L73.293 146.986L65.438 164.024H72.363L92.57 120.524H85.7L76.816 139.581ZM55.125 124.3C52.0914 121.458 48.0549 119.934 43.9 120.063C41.8 119.998 39.7089 120.364 37.7557 121.138C35.8024 121.913 34.0283 123.078 32.5426 124.564C31.0569 126.049 29.891 127.824 29.1169 129.777C28.3427 131.73 27.9765 133.821 28.041 135.921C27.991 138.018 28.3671 140.102 29.1463 142.049C29.9255 143.997 31.0917 145.765 32.5744 147.248C34.057 148.732 35.8252 149.898 37.7719 150.678C39.7187 151.458 41.8034 151.835 43.9 151.786C45.6446 151.806 47.3817 151.555 49.049 151.041C50.959 150.462 52.7332 149.504 54.2662 148.226C55.7992 146.948 57.0597 145.375 57.973 143.6L58.844 141.946L53.285 139.394L52.463 140.723C51.5061 142.49 50.0267 143.918 48.227 144.812C46.8504 145.356 45.3801 145.624 43.9 145.6C40.786 145.6 38.429 144.708 36.716 142.88C35.2953 141.272 34.4459 139.24 34.3 137.1H59.692V135.33C59.7595 133.272 59.3869 131.224 58.5992 129.322C57.8114 127.42 56.6266 125.707 55.124 124.3H55.125ZM35.474 130.992C37.166 127.762 39.893 126.241 43.902 126.241C46.08 126.201 48.2117 126.872 49.974 128.152C51.0308 128.877 51.8901 129.853 52.474 130.994H35.474V130.992ZM24.369 119.473H15.524L6.243 128.7V99H0V151.255H6.241V138.084L19.472 151.255H28.033L10.272 133.491L24.369 119.473Z" fill="black"/>
<path d="M153.259 23.0371H62L65.884 86.4211H157.094L162 23.0371H153.259Z" fill="url(#paint0_linear_404_2)"/>
<path d="M152.413 11.546H104.765C104.653 11.5465 104.543 11.525 104.44 11.4828C104.336 11.4405 104.243 11.3783 104.163 11.2998C104.084 11.2212 104.021 11.1277 103.978 11.0248C103.935 10.9219 103.913 10.8115 103.913 10.7V0H69.2949V21.4H152.413V11.546Z" fill="url(#paint1_linear_404_2)"/>
<g filter="url(#filter0_d_404_2)">
<path d="M129.737 55.6061L130.886 56.7561L137.176 50.2911L137.183 50.2831L134.234 47.1981H110.197C110.019 47.1981 109.846 47.1438 109.7 47.0424C109.555 46.9411 109.443 46.7975 109.382 46.6311C108.539 44.3094 107.009 42.2995 104.996 40.8686C102.983 39.4377 100.581 38.6538 98.1117 38.6211C96.0138 38.6208 93.9547 39.1861 92.1511 40.2575C90.3475 41.329 88.8662 42.8669 87.8631 44.7094C86.86 46.5519 86.3722 48.6307 86.4511 50.7271C86.5301 52.8235 87.1728 54.8598 88.3116 56.6216C89.4505 58.3834 91.0433 59.8056 92.9223 60.7384C94.8014 61.6711 96.8972 62.08 98.9891 61.9219C101.081 61.7638 103.092 61.0446 104.809 59.84C106.527 58.6355 107.888 56.9901 108.749 55.0771C108.913 54.7146 109.058 54.3438 109.184 53.9661C109.246 53.7955 109.358 53.6476 109.505 53.5418C109.652 53.4359 109.828 53.3771 110.01 53.3731H119.665C119.895 53.3733 120.117 53.465 120.28 53.6281L123.407 56.7561L126.538 53.6281C126.618 53.5474 126.714 53.4834 126.819 53.4398C126.925 53.3961 127.038 53.3736 127.152 53.3736C127.266 53.3736 127.379 53.3961 127.484 53.4398C127.589 53.4834 127.685 53.5474 127.766 53.6281L129.737 55.6061ZM94.9967 54.9591C93.7608 54.9586 92.5756 54.4673 91.7018 53.5933C90.828 52.7193 90.337 51.534 90.3367 50.2981V50.2981C90.3365 49.3759 90.6098 48.4744 91.122 47.7076C91.6343 46.9407 92.3624 46.343 93.2144 45.9901C94.0664 45.6371 95.0039 45.5448 95.9083 45.7247C96.8128 45.9046 97.6436 46.3488 98.2956 47.0009C98.9476 47.6531 99.3915 48.4839 99.5713 49.3884C99.751 50.2929 99.6585 51.2304 99.3053 52.0823C98.9522 52.9342 98.3544 53.6622 97.5874 54.1743C96.8205 54.6864 95.9189 54.9595 94.9967 54.9591V54.9591ZM110.597 51.1591C110.376 51.1433 110.169 51.0436 110.02 50.8805C109.87 50.7174 109.788 50.5032 109.792 50.2818C109.795 50.0604 109.883 49.8487 110.037 49.6899C110.191 49.5312 110.401 49.4375 110.622 49.4281H133.37V49.4221C133.486 49.4181 133.602 49.4377 133.711 49.4795C133.82 49.5214 133.919 49.5847 134.003 49.6658C134.087 49.7468 134.154 49.8439 134.199 49.9512C134.245 50.0586 134.268 50.174 134.268 50.2906C134.268 50.4072 134.245 50.5226 134.199 50.6299C134.154 50.7373 134.087 50.8344 134.003 50.9154C133.919 50.9964 133.82 51.0598 133.711 51.1016C133.602 51.1435 133.486 51.1631 133.37 51.1591H110.597Z" fill="#3F84A0"/>
</g>
<g filter="url(#filter1_d_404_2)">
<path d="M94.998 45.63C94.3857 45.6297 93.7793 45.7501 93.2135 45.9842C92.6477 46.2183 92.1336 46.5615 91.7005 46.9944C91.2674 47.4272 90.9238 47.9411 90.6893 48.5067C90.4549 49.0724 90.3341 49.6786 90.334 50.291V50.291C90.3344 51.2129 90.6081 52.114 91.1206 52.8804C91.633 53.6467 92.3612 54.244 93.2131 54.5966C94.0649 54.9491 95.0022 55.0412 95.9064 54.8612C96.8105 54.6812 97.641 54.2371 98.2929 53.5851C98.9447 52.9332 99.3886 52.1026 99.5684 51.1983C99.7483 50.2941 99.656 49.3569 99.3032 48.5051C98.9504 47.6533 98.3531 46.9253 97.5866 46.413C96.8201 45.9007 95.9189 45.6272 94.997 45.627L94.998 45.63ZM94.99 53.214C94.2154 53.214 93.4726 52.9063 92.9249 52.3586C92.3772 51.8109 92.0695 51.068 92.0695 50.2935C92.0695 49.5189 92.3772 48.776 92.9249 48.2283C93.4726 47.6806 94.2154 47.373 94.99 47.373V47.373C95.7645 47.373 96.5074 47.6806 97.0551 48.2283C97.6028 48.776 97.9105 49.5189 97.9105 50.2935C97.9105 51.068 97.6028 51.8109 97.0551 52.3586C96.5074 52.9063 95.7645 53.214 94.99 53.214V53.214Z" fill="#050606"/>
</g>
<g filter="url(#filter2_d_404_2)">
<path d="M130.28 58.6075C130.446 58.77 130.669 58.8618 130.902 58.8635C131.017 58.8624 131.131 58.8385 131.237 58.7932C131.343 58.7479 131.439 58.6821 131.519 58.5995L139.019 50.8995C139.176 50.7371 139.265 50.5198 139.265 50.2935C139.265 50.0672 139.176 49.8499 139.019 49.6875L135.232 45.7285C135.151 45.6435 135.053 45.5758 134.945 45.5297C134.838 45.4837 134.721 45.4601 134.604 45.4605H110.788C109.788 43.0657 108.148 40.9926 106.048 39.4685C103.787 37.8072 101.062 36.8964 98.2558 36.8642C95.4501 36.8319 92.7048 37.6799 90.406 39.2888C88.1072 40.8978 86.3705 43.1867 85.44 45.8339C84.5096 48.4811 84.4322 51.3533 85.2188 54.0467C86.0054 56.7401 87.6164 59.1192 89.8253 60.8496C92.0342 62.5799 94.7298 63.5744 97.5332 63.6932C100.337 63.8121 103.107 63.0493 105.454 61.5121C107.802 59.9749 109.608 57.7407 110.62 55.1235H119.311L122.294 58.1065L122.425 58.2385L122.469 58.2815L122.8 58.6125C122.958 58.7707 123.171 58.8616 123.395 58.8661C123.619 58.8706 123.835 58.7883 124 58.6365C124.008 58.6285 124.017 58.6225 124.024 58.6145L124.029 58.6095L124.46 58.1785L127.15 55.4845L130.28 58.6075ZM126.532 53.6275L123.397 56.7585L120.27 53.6305C120.107 53.4674 119.886 53.3757 119.655 53.3755H110.004C109.822 53.3795 109.646 53.4383 109.499 53.5442C109.352 53.65 109.24 53.7979 109.178 53.9685C109.052 54.3462 108.907 54.717 108.743 55.0795C107.882 56.9927 106.521 58.6385 104.804 59.8434C103.086 61.0483 101.076 61.7679 98.9838 61.9262C96.8918 62.0846 94.7958 61.6759 92.9165 60.7432C91.0372 59.8106 89.4442 58.3884 88.3052 56.6265C87.1662 54.8647 86.5234 52.8283 86.4444 50.7318C86.3654 48.6353 86.8532 46.5563 87.8564 44.7137C88.8596 42.8711 90.3411 41.3331 92.1448 40.2617C93.9486 39.1902 96.0079 38.625 98.1059 38.6255C100.576 38.6582 102.977 39.4421 104.99 40.873C107.003 42.3039 108.533 44.3138 109.376 46.6355C109.438 46.8019 109.549 46.9455 109.694 47.0468C109.84 47.1482 110.013 47.2025 110.191 47.2025H134.231L137.18 50.2875L137.173 50.2955L130.884 56.7575L129.735 55.6075L127.76 53.6325C127.68 53.5514 127.584 53.487 127.479 53.4428C127.374 53.3986 127.261 53.3756 127.147 53.375C127.033 53.3745 126.92 53.3964 126.814 53.4395C126.709 53.4827 126.613 53.5462 126.532 53.6265V53.6275Z" fill="#050606"/>
</g>
<g filter="url(#filter3_d_404_2)">
<path d="M134.246 50.2821C134.246 50.1678 134.223 50.0547 134.179 49.9493C134.135 49.8438 134.071 49.7481 133.99 49.6675C133.909 49.5869 133.813 49.523 133.707 49.4795C133.601 49.436 133.488 49.4138 133.374 49.4141V49.4141V49.4201H110.624C110.403 49.4295 110.194 49.5232 110.039 49.6819C109.885 49.8406 109.797 50.0524 109.794 50.2738C109.791 50.4951 109.872 50.7093 110.022 50.8725C110.172 51.0356 110.378 51.1353 110.599 51.1511H133.372C133.603 51.1505 133.824 51.059 133.988 50.8963C134.151 50.7336 134.244 50.5128 134.246 50.2821V50.2821Z" fill="#050606"/>
</g>
<defs>
<filter id="filter0_d_404_2" x="48.4429" y="19.6211" width="126.74" height="99.334" filterUnits="userSpaceOnUse" color-interpolation-filters="sRGB">
<feFlood flood-opacity="0" result="BackgroundImageFix"/>
<feColorMatrix in="SourceAlpha" type="matrix" values="0 0 0 0 0 0 0 0 0 0 0 0 0 0 0 0 0 0 127 0" result="hardAlpha"/>
<feOffset dy="19"/>
<feGaussianBlur stdDeviation="19"/>
<feColorMatrix type="matrix" values="0 0 0 0 0 0 0 0 0 0 0 0 0 0 0 0 0 0 0.4 0"/>
<feBlend mode="normal" in2="BackgroundImageFix" result="effect1_dropShadow_404_2"/>
<feBlend mode="normal" in="SourceGraphic" in2="effect1_dropShadow_404_2" result="shape"/>
</filter>
<filter id="filter1_d_404_2" x="52.334" y="26.627" width="85.3242" height="85.3242" filterUnits="userSpaceOnUse" color-interpolation-filters="sRGB">
<feFlood flood-opacity="0" result="BackgroundImageFix"/>
<feColorMatrix in="SourceAlpha" type="matrix" values="0 0 0 0 0 0 0 0 0 0 0 0 0 0 0 0 0 0 127 0" result="hardAlpha"/>
<feOffset dy="19"/>
<feGaussianBlur stdDeviation="19"/>
<feColorMatrix type="matrix" values="0 0 0 0 0 0 0 0 0 0 0 0 0 0 0 0 0 0 0.4 0"/>
<feBlend mode="normal" in2="BackgroundImageFix" result="effect1_dropShadow_404_2"/>
<feBlend mode="normal" in="SourceGraphic" in2="effect1_dropShadow_404_2" result="shape"/>
</filter>
<filter id="filter2_d_404_2" x="46.6807" y="17.8633" width="130.584" height="102.842" filterUnits="userSpaceOnUse" color-interpolation-filters="sRGB">
<feFlood flood-opacity="0" result="BackgroundImageFix"/>
<feColorMatrix in="SourceAlpha" type="matrix" values="0 0 0 0 0 0 0 0 0 0 0 0 0 0 0 0 0 0 127 0" result="hardAlpha"/>
<feOffset dy="19"/>
<feGaussianBlur stdDeviation="19"/>
<feColorMatrix type="matrix" values="0 0 0 0 0 0 0 0 0 0 0 0 0 0 0 0 0 0 0.4 0"/>
<feBlend mode="normal" in2="BackgroundImageFix" result="effect1_dropShadow_404_2"/>
<feBlend mode="normal" in="SourceGraphic" in2="effect1_dropShadow_404_2" result="shape"/>
</filter>
<filter id="filter3_d_404_2" x="71.7939" y="30.4141" width="100.452" height="77.7373" filterUnits="userSpaceOnUse" color-interpolation-filters="sRGB">
<feFlood flood-opacity="0" result="BackgroundImageFix"/>
<feColorMatrix in="SourceAlpha" type="matrix" values="0 0 0 0 0 0 0 0 0 0 0 0 0 0 0 0 0 0 127 0" result="hardAlpha"/>
<feOffset dy="19"/>
<feGaussianBlur stdDeviation="19"/>
<feColorMatrix type="matrix" values="0 0 0 0 0 0 0 0 0 0 0 0 0 0 0 0 0 0 0.4 0"/>
<feBlend mode="normal" in2="BackgroundImageFix" result="effect1_dropShadow_404_2"/>
<feBlend mode="normal" in="SourceGraphic" in2="effect1_dropShadow_404_2" result="shape"/>
</filter>
<linearGradient id="paint0_linear_404_2" x1="62" y1="54.7291" x2="162" y2="54.7291" gradientUnits="userSpaceOnUse">
<stop stop-color="#6A11CB"/>
<stop offset="0.5" stop-color="#552FDA"/>
<stop offset="1" stop-color="#2575FC"/>
</linearGradient>
<linearGradient id="paint1_linear_404_2" x1="69.2949" y1="10.7" x2="152.413" y2="10.7" gradientUnits="userSpaceOnUse">
<stop stop-color="#6A11CB"/>
<stop offset="0.5" stop-color="#552FDA"/>
<stop offset="1" stop-color="#2575FC"/>
</linearGradient>
</defs>
</svg>
