<svg xmlns="http://www.w3.org/2000/svg" width="37.667" height="37.667" viewBox="0 0 37.667 37.667">
    <path d="M17.784,7.282a10.438,10.438,0,0,1,7.282,2.8L30.382,4.9A18.1,18.1,0,0,0,17.784,0,18.82,18.82,0,0,0,.96,10.379l6.089,4.729A11.384,11.384,0,0,1,17.784,7.282Z"
          transform="translate(1.049)" fill="#ea4335" fill-rule="evenodd"/>
    <path d="M27.08,11.21a16.134,16.134,0,0,0-.4-3.85H9v6.989H19.379a9.2,9.2,0,0,1-3.85,6.11l5.943,4.6A18.414,18.414,0,0,0,27.08,11.21Z"
          transform="translate(9.833 8.041)" fill="#4285f4" fill-rule="evenodd"/>
    <path d="M8.119,17.139a11.593,11.593,0,0,1-.628-3.725A12.184,12.184,0,0,1,8.1,9.689L2.009,4.96a18.793,18.793,0,0,0,0,16.908Z"
          transform="translate(0 5.419)" fill="#fbbc05" fill-rule="evenodd"/>
    <path d="M17.774,25.889a17.95,17.95,0,0,0,12.472-4.562l-5.943-4.6a11.147,11.147,0,0,1-6.529,1.883A11.338,11.338,0,0,1,7.059,10.78L.97,15.509A18.788,18.788,0,0,0,17.774,25.889Z"
          transform="translate(1.06 11.778)" fill="#34a853" fill-rule="evenodd"/>
    <path d="M0,0H37.667V37.667H0Z" fill="none" fill-rule="evenodd"/>
</svg>
