<svg xmlns="http://www.w3.org/2000/svg" width="30" height="38.395" viewBox="0 0 30 38.395">
    <path id="icon-mouse"
          d="M42,19.447C42,13.113,37.5,8,31.85,8h-8.7C17.5,8,13,13.113,13,19.447v10.3c0,8.624,6.182,15.645,13.737,15.645h1.526C35.818,45.395,42,38.374,42,29.75ZM28.034,22.882H26.966a1.126,1.126,0,0,1-.992-1.221V17.768a1.126,1.126,0,0,1,.992-1.221h1.068a1.126,1.126,0,0,1,.992,1.221v3.892A1.179,1.179,0,0,1,28.034,22.882ZM40.474,29.75c0,7.784-5.495,14.118-12.211,14.118H26.737c-6.716,0-12.211-6.334-12.211-14.118v-10.3c0-5.495,3.816-9.921,8.624-9.921h3.587v5.495a2.674,2.674,0,0,0-2.289,2.747v3.892a2.674,2.674,0,0,0,2.289,2.747v2.747a.763.763,0,0,0,1.526,0V24.408a2.674,2.674,0,0,0,2.289-2.747V17.768a2.674,2.674,0,0,0-2.289-2.747V9.526h3.663c4.732,0,8.547,4.5,8.547,9.921Z"
          transform="translate(-12.5 -7.5)" fill="#fff" stroke="#fff" stroke-width="1"/>
</svg>
