<svg xmlns="http://www.w3.org/2000/svg" width="22.227" height="26.331" viewBox="0 0 22.227 26.331">
    <path id="icon-mao-pra-baixo"
          d="M37.8,20.774a2.312,2.312,0,0,0-.636-1.4,3.945,3.945,0,0,0-2.8-1.176,2.235,2.235,0,0,0-.54-.572,5.414,5.414,0,0,0-3.178-.858,3.553,3.553,0,0,0-.6-.54,4.946,4.946,0,0,0-2.415-.795V12.86a2.992,2.992,0,0,0-.7-2.1A2.517,2.517,0,0,0,24.992,10a2.683,2.683,0,0,0-2,.763,2.845,2.845,0,0,0-.667,1.907v9.09a14.259,14.259,0,0,0-1.653-1.589c-.795-.6-2.288-.286-3.146.35a2.052,2.052,0,0,0-.795,2.415A12.235,12.235,0,0,0,19.08,26.5a15.51,15.51,0,0,0,3.019,4.2c.667.509,1.176,2.606,1.3,3.941l.064.7H35.48V32.184a6.388,6.388,0,0,1,.953-1.843c.985-.985,1.3-3.464,1.3-4.227V20.806ZM36.243,26.05a6.224,6.224,0,0,1-.858,3.146,6.918,6.918,0,0,0-1.367,2.574l-.032.1V33.71H24.9c-.064-.35-.127-.795-.254-1.271a5.328,5.328,0,0,0-1.557-3.019,14.549,14.549,0,0,1-2.638-3.782l-.064-.1-.064-.1a11.874,11.874,0,0,1-2.1-3.083.484.484,0,0,1,.159-.572,1.962,1.962,0,0,1,1.4-.413c.477.381,1.939,1.939,2.765,2.86l1.367,1.526V12.574a1.2,1.2,0,0,1,.254-.763,1.071,1.071,0,0,1,.858-.286,1.189,1.189,0,0,1,.795.254,1.632,1.632,0,0,1,.286.985v3.4h0V21h1.557v-4c1.43.159,1.843.763,1.907.858l.064.159V21h1.557V18.359c1.335.127,1.843.54,1.971.731v3.019h1.557v-2.32c1.367.191,1.589.922,1.621,1.081V26.05Z"
          transform="translate(38.3 35.831) rotate(180)" fill="#fff" stroke="#fff" stroke-width="1"/>
</svg>
